<svg width="64" height="54" viewBox="0 0 64 54" fill="none" xmlns="http://www.w3.org/2000/svg">
<g opacity="0.4">
<rect width="80" height="53.3333" fill="white" fill-opacity="0.01"/>
<path d="M39.5556 43.5556C61.4015 43.5556 79.1111 43.1576 79.1111 42.6667C79.1111 42.1758 61.4015 41.7778 39.5556 41.7778C17.7096 41.7778 0 42.1758 0 42.6667C0 43.1576 17.7096 43.5556 39.5556 43.5556Z" fill="url(#paint0_linear)" fill-opacity="0.6"/>
<path d="M63.8467 31.3735C60.3321 31.3735 57.4492 34.2549 57.4492 37.7678V38.6757L70.2838 38.3007H70.3035V37.7678C70.3035 34.2549 67.4207 31.3735 63.906 31.3735H63.8467Z" fill="#46494B"/>
<path d="M6.15039 37.8723V40.063L19.0047 39.688V37.8723C19.0047 34.3594 16.1218 31.478 12.6072 31.478H12.5479C9.03323 31.478 6.15039 34.3594 6.15039 37.8723Z" fill="#46494B"/>
<path d="M17.8458 35.5981C16.7401 32.697 13.5018 31.2563 10.5992 32.3615C7.69665 33.4667 6.25524 36.7033 7.36098 39.5847C8.46673 42.4858 11.705 43.9265 14.6076 42.8213C17.4904 41.7161 18.9516 38.4795 17.8458 35.5981ZM16.4439 36.1113C17.2535 38.2427 16.1872 40.6109 14.0547 41.4201C11.9222 42.2292 9.55273 41.1635 8.74316 39.0321C7.9336 36.9007 8.99985 34.5324 11.1324 33.7233C13.2649 32.9339 15.6541 33.9996 16.4439 36.1113Z" fill="url(#paint1_radial)"/>
<path d="M13.9024 40.9609C15.7673 40.2508 16.7032 38.1641 15.9927 36.3002C15.2823 34.4362 13.1945 33.5008 11.3296 34.2109C9.4647 34.9209 8.52881 37.0076 9.23926 38.8716C9.9497 40.7356 12.0375 41.671 13.9024 40.9609Z" fill="#303030"/>
<path d="M12.6135 39.3863C13.6059 39.3863 14.4103 38.5822 14.4103 37.5904C14.4103 36.5985 13.6059 35.7944 12.6135 35.7944C11.6211 35.7944 10.8167 36.5985 10.8167 37.5904C10.8167 38.5822 11.6211 39.3863 12.6135 39.3863Z" fill="url(#paint2_radial)"/>
<path d="M12.6329 40.0833C14.0094 40.0833 15.1253 38.9674 15.1253 37.591C15.1253 36.2145 14.0094 35.0986 12.6329 35.0986C11.2565 35.0986 10.1406 36.2145 10.1406 37.591C10.1406 38.9674 11.2565 40.0833 12.6329 40.0833Z" fill="url(#paint3_radial)"/>
<path d="M15.3018 37.2158C15.2548 36.8866 15.149 36.5692 14.9962 36.2988C14.9139 36.146 14.7375 35.8874 14.5612 35.6993C14.3261 35.4524 14.0557 35.2643 13.7735 35.135C13.7383 35.1114 13.6912 35.135 13.6677 35.1702L13.3738 35.664C13.315 35.7463 13.3268 35.8756 13.3973 35.9461C13.5149 36.0284 13.6089 36.099 13.703 36.1813C13.9616 36.4046 14.1497 36.6985 14.279 37.0042C14.279 37.0042 14.279 37.0042 14.279 37.016C14.3261 37.1453 14.3731 37.2863 14.3731 37.4274C14.3849 37.6625 14.3731 37.8859 14.3143 38.121C14.279 38.2504 14.2438 38.3797 14.2085 38.5207C14.1968 38.6266 14.2555 38.7324 14.3613 38.7676L14.8904 38.991C14.9256 39.0028 14.9727 38.991 14.9962 38.9557C15.1137 38.7324 15.2783 38.2151 15.2783 38.2033C15.3371 37.8742 15.3489 37.545 15.3018 37.2158Z" fill="url(#paint4_linear)"/>
<path d="M12.5341 41.163C9.67104 41.1038 8.03217 37.8672 9.69079 35.5384C10.8163 33.9398 13.0278 33.5254 14.6666 34.67C17.5495 36.7028 16.0291 41.2222 12.5341 41.163ZM16.6609 38.5579C17.0756 36.8606 16.3648 35.045 14.8641 34.0779C12.929 32.8346 10.3424 33.3872 9.09843 35.3213C8.26912 36.6041 8.19014 38.3013 9.01945 39.7026C10.8953 42.8997 15.7724 42.2287 16.6609 38.5579Z" fill="url(#paint5_radial)"/>
<path d="M13.6399 38.6758C13.5411 38.7744 13.5017 38.9126 13.5609 39.0507L14.5482 40.6296C14.3705 40.748 14.1928 40.8467 13.9756 40.9256L13.4819 39.7415C13.4622 39.702 13.4227 39.6823 13.3832 39.702C13.3437 39.7217 13.3239 39.7612 13.3437 39.8007L13.7583 41.0243C13.5609 41.1032 13.3437 41.1427 13.1462 41.1822L12.8303 39.3468C12.7908 39.2283 12.6723 39.1297 12.5539 39.1297C12.4157 39.1297 12.3169 39.2086 12.2577 39.327L11.8628 41.1427C11.6653 41.1032 11.4679 41.044 11.2507 40.9651L11.7246 39.7612C11.7443 39.7217 11.7246 39.6823 11.6851 39.6625C11.6456 39.6428 11.6061 39.6625 11.5863 39.702L11.0335 40.8664C10.836 40.7677 10.6583 40.669 10.4806 40.5506L11.5271 39.0113C11.5864 38.8928 11.5666 38.735 11.4679 38.6363C11.3691 38.5376 11.2309 38.4981 11.0927 38.5573L9.51308 39.5441C9.3946 39.3665 9.29588 39.1889 9.21689 38.9718L10.4016 38.4784C10.4411 38.4587 10.4609 38.4192 10.4411 38.3797C10.4214 38.3403 10.3819 38.3205 10.3424 38.3403L9.11817 38.7547C9.03918 38.5573 8.9997 38.3403 8.96021 38.1429L10.7965 37.8271C10.915 37.7877 11.0137 37.6692 11.0137 37.5508C11.0137 37.4127 10.9348 37.314 10.8163 37.2548L8.99969 36.8601C9.03918 36.6627 9.09842 36.4654 9.1774 36.2483L10.3819 36.7219C10.4214 36.7417 10.4609 36.7219 10.4806 36.6825C10.5003 36.643 10.4806 36.6035 10.4411 36.5838L9.27613 36.0312C9.37485 35.8339 9.47358 35.6562 9.59206 35.4786L11.1322 36.5246C11.2507 36.5838 11.4086 36.5641 11.5074 36.4654C11.6061 36.3667 11.6456 36.2286 11.5863 36.0904L10.5991 34.5116C10.7768 34.3932 10.9545 34.2945 11.1717 34.2155L11.6653 35.3997C11.6851 35.4391 11.7246 35.4589 11.7641 35.4391C11.8035 35.4194 11.8233 35.3799 11.8036 35.3405L11.3889 34.1169C11.5863 34.0379 11.8036 33.9985 12.001 33.959L12.3169 35.7944C12.3564 35.9128 12.4749 36.0115 12.5934 36.0115C12.7316 36.0115 12.8303 35.9325 12.8896 35.8141L13.2845 33.9985C13.4819 34.0379 13.6794 34.0971 13.8966 34.1761L13.4227 35.3799C13.4029 35.4194 13.4227 35.4589 13.4622 35.4786C13.5017 35.4983 13.5411 35.4786 13.5609 35.4391L14.1138 34.2748C14.3112 34.3734 14.4889 34.4721 14.6666 34.5905L13.6201 36.1299C13.5609 36.2483 13.5806 36.4062 13.6794 36.5049C13.7781 36.6035 13.9163 36.643 14.0545 36.5838L15.6342 35.597C15.7526 35.7746 15.8514 35.9523 15.9304 36.1694L14.7456 36.6627C14.7061 36.6825 14.6864 36.7219 14.7061 36.7614C14.7259 36.8009 14.7654 36.8206 14.8049 36.8009L16.0291 36.3864C16.1081 36.5838 16.1475 36.8009 16.187 36.9982L14.3507 37.314C14.2322 37.3535 14.1335 37.4719 14.1335 37.5903C14.1335 37.7285 14.2125 37.8271 14.331 37.8863L16.1476 38.281C16.1081 38.4784 16.0488 38.6758 15.9698 38.8928L14.7654 38.4192C14.7259 38.3995 14.6864 38.4192 14.6666 38.4587C14.6469 38.4981 14.6666 38.5376 14.7061 38.5573L15.8711 39.1099C15.7724 39.3073 15.6737 39.4849 15.5552 39.6625L14.015 38.6165C13.8966 38.5376 13.7583 38.5771 13.6399 38.6758C13.6596 38.6758 13.6596 38.6758 13.6399 38.6758Z" fill="url(#paint6_radial)"/>
<path d="M13.4821 38.4977C13.4032 38.5767 13.3637 38.6951 13.4229 38.8135L14.6274 40.866C14.4694 40.9647 14.3114 41.0436 14.1337 41.1226L13.3637 39.3858C13.3439 39.3464 13.3242 39.3464 13.2847 39.3464C13.2452 39.3661 13.2452 39.3858 13.2452 39.4253L13.8178 41.241C13.6401 41.3002 13.4624 41.3396 13.2847 41.3791L12.8108 39.0306C12.7713 38.9319 12.6726 38.853 12.5738 38.853C12.4554 38.853 12.3566 38.9122 12.3369 39.0109L11.784 41.3396C11.6063 41.3002 11.4286 41.241 11.2509 41.1818L11.9025 39.3858C11.9222 39.3464 11.9025 39.3266 11.863 39.3069C11.8235 39.2872 11.8038 39.3069 11.784 39.3464L10.935 41.0633C10.7573 40.9844 10.5993 40.8857 10.4413 40.787L11.7248 38.774C11.784 38.6754 11.7445 38.5372 11.6656 38.4583C11.5866 38.3793 11.4681 38.3399 11.3496 38.3991L9.2961 39.6029C9.19737 39.445 9.11839 39.2872 9.03941 39.1095L10.777 38.3399C10.8165 38.3201 10.8165 38.3004 10.8165 38.2609C10.7968 38.2214 10.777 38.2214 10.7375 38.2214L8.92094 38.7938C8.8617 38.6161 8.82221 38.4385 8.78271 38.2609L11.1324 37.7873C11.2312 37.7478 11.3101 37.6491 11.3101 37.5504C11.3101 37.432 11.2509 37.3333 11.1522 37.3136L8.82221 36.761C8.8617 36.5834 8.92093 36.4058 8.98017 36.2282L10.777 36.8794C10.8165 36.8992 10.8362 36.8794 10.856 36.84C10.8757 36.8005 10.856 36.7808 10.8165 36.761L9.09864 35.9124C9.17762 35.7348 9.27635 35.5769 9.37508 35.419L11.3891 36.7018C11.4878 36.761 11.6261 36.7215 11.705 36.6426C11.784 36.5637 11.8235 36.4453 11.7643 36.3268L10.5598 34.2744C10.7178 34.1757 10.8757 34.0967 11.0534 34.0178L11.8235 35.7545C11.8433 35.794 11.863 35.794 11.9025 35.794C11.942 35.7742 11.942 35.7545 11.942 35.715L11.3694 33.8994C11.5471 33.8402 11.7248 33.8007 11.9025 33.7612L12.3764 36.1097C12.4159 36.2084 12.5146 36.2874 12.6133 36.2874C12.7318 36.2874 12.8305 36.2282 12.8503 36.1295L13.4032 33.8007C13.5809 33.8402 13.7586 33.8994 13.9363 33.9586L13.2847 35.7545C13.2649 35.794 13.2847 35.8137 13.3242 35.8335C13.3637 35.8532 13.3834 35.8335 13.4032 35.794L14.2522 34.077C14.4299 34.1559 14.5879 34.2546 14.7458 34.3533L13.4624 36.386C13.4032 36.4847 13.4426 36.6229 13.5216 36.7018C13.6006 36.7808 13.7191 36.8202 13.8375 36.761L15.8911 35.5572C15.9898 35.715 16.0688 35.8729 16.1478 36.0505L14.4102 36.8202C14.3707 36.84 14.3707 36.8597 14.3707 36.8992C14.3904 36.9386 14.4102 36.9386 14.4497 36.9386L16.2662 36.3663C16.3255 36.5439 16.365 36.7215 16.4045 36.8992L14.0547 37.3728C13.956 37.4123 13.877 37.511 13.877 37.6096C13.877 37.7281 13.9363 37.8267 14.035 37.8465L16.365 38.3991C16.3255 38.5767 16.2662 38.7543 16.207 38.9319L14.4102 38.2806C14.3707 38.2609 14.3509 38.2806 14.3312 38.3201C14.3114 38.3596 14.3312 38.3793 14.3707 38.3991L16.0885 39.2477C16.0095 39.4253 15.9108 39.5832 15.8121 39.7411L13.7981 38.4583C13.6993 38.3991 13.5809 38.4188 13.4821 38.4977Z" fill="url(#paint7_radial)"/>
<path d="M13.3038 38.3021C13.2446 38.3613 13.2051 38.4599 13.2446 38.5586L14.7255 41.1834C14.5873 41.2624 14.4491 41.3413 14.2911 41.4005L13.1853 39.0125C13.1656 38.9928 13.1459 38.9731 13.1261 38.9928C13.1064 38.9928 13.0866 39.0323 13.1064 39.052L13.8764 41.5584C13.7185 41.5979 13.5803 41.6374 13.4223 41.6768L12.7707 38.7362C12.7509 38.6573 12.672 38.5981 12.5732 38.5981C12.4943 38.5981 12.4153 38.6573 12.3758 38.7362L11.6255 41.6374C11.4675 41.5979 11.3293 41.5584 11.1713 41.4992L12.0401 39.0125C12.0401 38.9928 12.0401 38.9533 12.0204 38.9533C12.0006 38.9336 11.9611 38.9533 11.9611 38.9731L10.7764 41.3019C10.6382 41.2229 10.5 41.144 10.3617 41.065L11.9414 38.5192C11.9809 38.4402 11.9611 38.3415 11.9019 38.2626C11.8427 38.2034 11.7439 38.1639 11.6649 38.2034L9.0388 39.6835C8.95982 39.5454 8.88084 39.4072 8.8216 39.2494L11.2108 38.1442C11.2305 38.1244 11.2503 38.1047 11.2305 38.085C11.2305 38.0652 11.1911 38.0455 11.1713 38.0652L8.66364 38.8349C8.62415 38.677 8.58466 38.5389 8.54517 38.381L11.4872 37.7297C11.5662 37.71 11.6255 37.6311 11.6255 37.5324C11.6255 37.4534 11.5662 37.3745 11.4872 37.335L8.58465 36.5851C8.62414 36.4272 8.66364 36.289 8.72287 36.1312L11.2108 36.9995C11.2305 36.9995 11.27 36.9995 11.27 36.9798C11.2898 36.9601 11.27 36.9206 11.2503 36.9206L8.92033 35.7365C8.99931 35.5983 9.07829 35.4602 9.15728 35.322L11.7044 36.9008C11.7834 36.9403 11.8821 36.9206 11.9611 36.8614C12.0204 36.8022 12.0599 36.7035 12.0204 36.6245L10.5395 33.9997C10.6777 33.9208 10.8159 33.8419 10.9739 33.7826L12.0796 36.1706C12.0993 36.1904 12.1191 36.2101 12.1388 36.1904C12.1586 36.1904 12.1783 36.1509 12.1586 36.1312L11.3885 33.6248C11.5465 33.5853 11.6847 33.5458 11.8427 33.5063L12.4943 36.4469C12.514 36.5259 12.593 36.5851 12.6917 36.5851C12.7707 36.5851 12.8497 36.5259 12.8892 36.4469L13.6395 33.5458C13.7975 33.5853 13.9357 33.6248 14.0936 33.684L13.2248 36.1706C13.2248 36.1904 13.2248 36.2298 13.2446 36.2298C13.2643 36.2496 13.3038 36.2298 13.3038 36.2101L14.4885 33.8813C14.6268 33.9603 14.765 34.0392 14.9032 34.1181L13.3236 36.664C13.2841 36.743 13.3038 36.8416 13.3631 36.9206C13.4223 36.9798 13.521 37.0193 13.6 36.9798L16.2261 35.4996C16.3051 35.6378 16.3841 35.7759 16.4433 35.9338L14.0541 37.039C14.0344 37.0587 14.0147 37.0785 14.0344 37.0982C14.0344 37.1179 14.0739 37.1377 14.0936 37.1179L16.6013 36.3483C16.6408 36.5061 16.6803 36.6443 16.7198 36.8022L13.7777 37.4534C13.6987 37.4732 13.6395 37.5521 13.6395 37.6508C13.6395 37.7297 13.6987 37.8087 13.7777 37.8481L16.6803 38.5981C16.6408 38.756 16.6013 38.8941 16.5421 39.052L14.0541 38.1837C14.0344 38.1837 13.9949 38.1836 13.9949 38.2034C13.9752 38.2231 13.9949 38.2626 14.0146 38.2626L16.3446 39.4467C16.2656 39.5849 16.1866 39.723 16.1077 39.8612L13.5605 38.2823C13.4618 38.2231 13.3631 38.2429 13.3038 38.3021Z" fill="url(#paint8_radial)"/>
<path d="M69.0792 35.5981C67.9735 32.697 64.7352 31.2563 61.8326 32.3615C58.93 33.4667 57.4886 36.7033 58.5944 39.5847C59.7001 42.4858 62.9384 43.9265 65.841 42.8213C68.7238 41.7161 70.185 38.4795 69.0792 35.5981ZM67.6773 36.1113C68.4868 38.2427 67.4206 40.6109 65.2881 41.4201C63.1556 42.2292 60.7861 41.1635 59.9766 39.0321C59.167 36.9007 60.2333 34.5324 62.3658 33.7233C64.4983 32.9339 66.8875 33.9996 67.6773 36.1113Z" fill="url(#paint9_radial)"/>
<path d="M65.1358 40.9609C67.0007 40.2508 67.9366 38.1641 67.2261 36.3002C66.5157 34.4362 64.4279 33.5008 62.563 34.2109C60.6981 34.9209 59.7622 37.0076 60.4727 38.8716C61.1831 40.7356 63.2709 41.671 65.1358 40.9609Z" fill="#303030"/>
<path d="M63.8469 39.3863C64.8392 39.3863 65.6437 38.5822 65.6437 37.5904C65.6437 36.5985 64.8392 35.7944 63.8469 35.7944C62.8545 35.7944 62.05 36.5985 62.05 37.5904C62.05 38.5822 62.8545 39.3863 63.8469 39.3863Z" fill="url(#paint10_radial)"/>
<path d="M63.8663 40.0833C65.2428 40.0833 66.3587 38.9674 66.3587 37.591C66.3587 36.2145 65.2428 35.0986 63.8663 35.0986C62.4899 35.0986 61.374 36.2145 61.374 37.591C61.374 38.9674 62.4899 40.0833 63.8663 40.0833Z" fill="url(#paint11_radial)"/>
<path d="M63.7675 41.163C60.9044 41.1038 59.2656 37.8672 60.9242 35.5384C62.0497 33.9398 64.2612 33.5254 65.9 34.67C68.7829 36.7028 67.2625 41.2222 63.7675 41.163ZM67.8943 38.5579C68.309 36.8606 67.5982 35.045 66.0975 34.0779C64.1624 32.8346 61.5758 33.3872 60.3318 35.3213C59.5025 36.6041 59.4235 38.3013 60.2528 39.7026C62.1287 42.8997 67.0058 42.2287 67.8943 38.5579Z" fill="url(#paint12_radial)"/>
<path d="M64.8733 38.6758C64.7745 38.7744 64.7351 38.9126 64.7943 39.0507L65.7816 40.6296C65.6039 40.748 65.4261 40.8467 65.2089 40.9256L64.7153 39.7415C64.6956 39.702 64.6561 39.6823 64.6166 39.702C64.5771 39.7217 64.5573 39.7612 64.5771 39.8007L64.9917 41.0243C64.7943 41.1032 64.5771 41.1427 64.3796 41.1822L64.0637 39.3468C64.0242 39.2283 63.9057 39.1297 63.7873 39.1297C63.6491 39.1297 63.5503 39.2086 63.4911 39.327L63.0962 41.1427C62.8987 41.1032 62.7013 41.044 62.4841 40.9651L62.958 39.7612C62.9777 39.7217 62.958 39.6823 62.9185 39.6625C62.879 39.6428 62.8395 39.6625 62.8197 39.702L62.2669 40.8664C62.0694 40.7677 61.8917 40.669 61.714 40.5506L62.7605 39.0113C62.8197 38.8928 62.8 38.735 62.7013 38.6363C62.6025 38.5376 62.4643 38.4981 62.3261 38.5573L60.7465 39.5441C60.628 39.3665 60.5293 39.1889 60.4503 38.9718L61.635 38.4784C61.6745 38.4587 61.6943 38.4192 61.6745 38.3797C61.6548 38.3403 61.6153 38.3205 61.5758 38.3403L60.3516 38.7547C60.2726 38.5573 60.2331 38.3403 60.1936 38.1429L62.0299 37.8271C62.1484 37.7877 62.2471 37.6692 62.2471 37.5508C62.2471 37.4127 62.1681 37.314 62.0497 37.2548L60.2331 36.8601C60.2726 36.6627 60.3318 36.4654 60.4108 36.2483L61.6153 36.7219C61.6548 36.7417 61.6943 36.7219 61.714 36.6825C61.7337 36.643 61.714 36.6035 61.6745 36.5838L60.5095 36.0312C60.6083 35.8339 60.707 35.6562 60.8255 35.4786L62.3656 36.5246C62.4841 36.5838 62.642 36.5641 62.7408 36.4654C62.8395 36.3667 62.879 36.2286 62.8197 36.0904L61.8325 34.5116C62.0102 34.3932 62.1879 34.2945 62.4051 34.2155L62.8987 35.3997C62.9185 35.4391 62.958 35.4589 62.9975 35.4391C63.0369 35.4194 63.0567 35.3799 63.0369 35.3405L62.6223 34.1169C62.8197 34.0379 63.0369 33.9985 63.2344 33.959L63.5503 35.7944C63.5898 35.9128 63.7083 36.0115 63.8268 36.0115C63.965 36.0115 64.0637 35.9325 64.1229 35.8141L64.5179 33.9985C64.7153 34.0379 64.9128 34.0971 65.13 34.1761L64.6561 35.3799C64.6363 35.4194 64.6561 35.4589 64.6956 35.4786C64.7351 35.4983 64.7745 35.4786 64.7943 35.4391L65.3472 34.2748C65.5446 34.3734 65.7223 34.4721 65.9 34.5905L64.8535 36.1299C64.7943 36.2483 64.814 36.4062 64.9128 36.5049C65.0115 36.6035 65.1497 36.643 65.2879 36.5838L66.8676 35.597C66.986 35.7746 67.0848 35.9523 67.1637 36.1694L65.979 36.6627C65.9395 36.6825 65.9198 36.7219 65.9395 36.7614C65.9593 36.8009 65.9988 36.8206 66.0382 36.8009L67.2625 36.3864C67.3415 36.5838 67.3809 36.8009 67.4204 36.9982L65.5841 37.314C65.4656 37.3535 65.3669 37.4719 65.3669 37.5903C65.3669 37.7285 65.4459 37.8271 65.5644 37.8863L67.3809 38.281C67.3415 38.4784 67.2822 38.6758 67.2032 38.8928L65.9988 38.4192C65.9593 38.3995 65.9198 38.4192 65.9 38.4587C65.8803 38.4981 65.9 38.5376 65.9395 38.5573L67.1045 39.1099C67.0058 39.3073 66.9071 39.4849 66.7886 39.6625L65.2484 38.6166C65.13 38.5376 64.9917 38.5771 64.8733 38.6758C64.893 38.6758 64.893 38.6758 64.8733 38.6758Z" fill="url(#paint13_radial)"/>
<path d="M64.7155 38.4977C64.6366 38.5767 64.5971 38.6951 64.6563 38.8135L65.8608 40.866C65.7028 40.9647 65.5448 41.0436 65.3671 41.1226L64.5971 39.3858C64.5773 39.3464 64.5576 39.3464 64.5181 39.3464C64.4786 39.3661 64.4786 39.3858 64.4786 39.4253L65.0512 41.241C64.8735 41.3002 64.6958 41.3396 64.5181 41.3791L64.0442 39.0306C64.0047 38.9319 63.906 38.853 63.8072 38.853C63.6888 38.853 63.59 38.9122 63.5703 39.0109L63.0174 41.3396C62.8397 41.3002 62.662 41.241 62.4843 41.1818L63.1359 39.3858C63.1556 39.3464 63.1359 39.3266 63.0964 39.3069C63.0569 39.2872 63.0372 39.3069 63.0174 39.3464L62.1684 41.0633C61.9907 40.9844 61.8327 40.8857 61.6747 40.7871L62.9582 38.774C63.0174 38.6754 62.9779 38.5372 62.899 38.4583C62.82 38.3793 62.7015 38.3399 62.583 38.3991L60.5295 39.6029C60.4308 39.445 60.3518 39.2872 60.2728 39.1095L62.0104 38.3399C62.0499 38.3201 62.0499 38.3004 62.0499 38.2609C62.0302 38.2214 62.0104 38.2214 61.9709 38.2214L60.1543 38.7938C60.0951 38.6162 60.0556 38.4385 60.0161 38.2609L62.3658 37.7873C62.4646 37.7478 62.5435 37.6491 62.5435 37.5504C62.5435 37.432 62.4843 37.3333 62.3856 37.3136L60.0556 36.761C60.0951 36.5834 60.1543 36.4058 60.2136 36.2282L62.0104 36.8794C62.0499 36.8992 62.0696 36.8794 62.0894 36.84C62.1091 36.8005 62.0894 36.7808 62.0499 36.761L60.332 35.9124C60.411 35.7348 60.5097 35.5769 60.6085 35.419L62.6225 36.7018C62.7212 36.761 62.8595 36.7215 62.9384 36.6426C63.0174 36.5637 63.0569 36.4453 62.9977 36.3268L61.7932 34.2744C61.9512 34.1757 62.1091 34.0967 62.2868 34.0178L63.0569 35.7545C63.0767 35.794 63.0964 35.794 63.1359 35.794C63.1754 35.7742 63.1754 35.7545 63.1754 35.715L62.6028 33.8994C62.7805 33.8402 62.9582 33.8007 63.1359 33.7612L63.6098 36.1098C63.6493 36.2084 63.748 36.2874 63.8467 36.2874C63.9652 36.2874 64.0639 36.2282 64.0837 36.1295L64.6366 33.8007C64.8143 33.8402 64.992 33.8994 65.1697 33.9586L64.5181 35.7545C64.4983 35.794 64.5181 35.8137 64.5576 35.8335C64.5971 35.8532 64.6168 35.8335 64.6366 35.794L65.4856 34.077C65.6633 34.1559 65.8213 34.2546 65.9792 34.3533L64.6958 36.386C64.6366 36.4847 64.676 36.6229 64.755 36.7018C64.834 36.7808 64.9525 36.8202 65.071 36.761L67.1245 35.5572C67.2232 35.715 67.3022 35.8729 67.3812 36.0505L65.6436 36.8202C65.6041 36.84 65.6041 36.8597 65.6041 36.8992C65.6238 36.9386 65.6436 36.9386 65.6831 36.9386L67.4996 36.3663C67.5589 36.5439 67.5984 36.7215 67.6379 36.8992L65.2882 37.3728C65.1894 37.4123 65.1104 37.511 65.1104 37.6096C65.1104 37.7281 65.1697 37.8267 65.2684 37.8465L67.5984 38.3991C67.5589 38.5767 67.4996 38.7543 67.4404 38.9319L65.6436 38.2807C65.6041 38.2609 65.5843 38.2807 65.5646 38.3201C65.5448 38.3596 65.5646 38.3793 65.6041 38.3991L67.3219 39.2477C67.2429 39.4253 67.1442 39.5832 67.0455 39.7411L65.0315 38.4583C64.9327 38.3991 64.8143 38.4188 64.7155 38.4977Z" fill="url(#paint14_radial)"/>
<path d="M64.5372 38.3021C64.478 38.3613 64.4385 38.4599 64.478 38.5586L65.9589 41.1834C65.8207 41.2624 65.6825 41.3413 65.5245 41.4005L64.4187 39.0125C64.399 38.9928 64.3793 38.9731 64.3595 38.9928C64.3398 38.9928 64.32 39.0323 64.3398 39.052L65.1098 41.5584C64.9519 41.5979 64.8136 41.6374 64.6557 41.6768L64.0041 38.7362C63.9843 38.6573 63.9054 38.5981 63.8066 38.5981C63.7277 38.5981 63.6487 38.6573 63.6092 38.7362L62.8589 41.6374C62.7009 41.5979 62.5627 41.5584 62.4047 41.4992L63.2735 39.0125C63.2735 38.9928 63.2735 38.9533 63.2538 38.9533C63.234 38.9336 63.1945 38.9533 63.1945 38.9731L62.0098 41.3019C61.8716 41.2229 61.7334 41.144 61.5951 41.065L63.1748 38.5192C63.2143 38.4402 63.1945 38.3415 63.1353 38.2626C63.0761 38.2034 62.9773 38.1639 62.8983 38.2034L60.2722 39.6835C60.1932 39.5454 60.1142 39.4072 60.055 39.2494L62.4442 38.1442C62.4639 38.1244 62.4837 38.1047 62.4639 38.085C62.4639 38.0652 62.4245 38.0455 62.4047 38.0652L59.897 38.8349C59.8575 38.677 59.8181 38.5389 59.7786 38.381L62.7206 37.7297C62.7996 37.71 62.8589 37.6311 62.8589 37.5324C62.8589 37.4534 62.7996 37.3745 62.7206 37.335L59.8181 36.5851C59.8575 36.4272 59.897 36.289 59.9563 36.1312L62.4442 36.9995C62.4639 36.9995 62.5034 36.9995 62.5034 36.9798C62.5232 36.9601 62.5034 36.9206 62.4837 36.9206L60.1537 35.7365C60.2327 35.5983 60.3117 35.4602 60.3907 35.322L62.9378 36.9008C63.0168 36.9403 63.1155 36.9206 63.1945 36.8614C63.2538 36.8022 63.2933 36.7035 63.2538 36.6245L61.7729 33.9997C61.9111 33.9208 62.0493 33.8419 62.2073 33.7826L63.313 36.1706C63.3327 36.1904 63.3525 36.2101 63.3722 36.1904C63.392 36.1904 63.4117 36.1509 63.392 36.1312L62.6219 33.6248C62.7799 33.5853 62.9181 33.5458 63.0761 33.5063L63.7277 36.4469C63.7474 36.5259 63.8264 36.5851 63.9251 36.5851C64.0041 36.5851 64.0831 36.5259 64.1226 36.4469L64.8729 33.5458C65.0309 33.5853 65.1691 33.6248 65.327 33.684L64.4582 36.1706C64.4582 36.1904 64.4582 36.2298 64.478 36.2298C64.4977 36.2496 64.5372 36.2298 64.5372 36.2101L65.7219 33.8813C65.8602 33.9603 65.9984 34.0392 66.1366 34.1181L64.557 36.664C64.5175 36.743 64.5372 36.8416 64.5965 36.9206C64.6557 36.9798 64.7544 37.0193 64.8334 36.9798L67.4595 35.4996C67.5385 35.6378 67.6175 35.7759 67.6767 35.9338L65.2875 37.039C65.2678 37.0587 65.2481 37.0785 65.2678 37.0982C65.2678 37.1179 65.3073 37.1377 65.327 37.1179L67.8347 36.3483C67.8742 36.5061 67.9137 36.6443 67.9532 36.8022L65.0111 37.4534C64.9321 37.4732 64.8729 37.5521 64.8729 37.6508C64.8729 37.7297 64.9321 37.8087 65.0111 37.8481L67.9137 38.5981C67.8742 38.756 67.8347 38.8941 67.7755 39.052L65.2875 38.1837C65.2678 38.1837 65.2283 38.1836 65.2283 38.2034C65.2086 38.2231 65.2283 38.2626 65.248 38.2626L67.578 39.4467C67.499 39.5849 67.4201 39.723 67.3411 39.8612L64.7939 38.2823C64.6952 38.2231 64.5965 38.2429 64.5372 38.3021Z" fill="url(#paint15_radial)"/>
<g opacity="0.5">
<path d="M35.5498 16.3988L35.5988 24.609C31.2934 24.8499 26.9286 25.1102 22.2477 25.4484L22.9965 20.458C23.0165 20.3791 23.0365 20.32 23.0565 20.2609C23.5711 19.9272 24.1054 19.5937 24.62 19.2798C26.9947 17.8478 29.624 16.9693 32.3895 16.6833L35.5498 16.3988ZM35.9463 15.9661L32.3711 16.2885C29.5267 16.5939 26.8577 17.492 24.4237 18.9436C23.8696 19.2771 23.2957 19.6302 22.7415 20.0032C22.6818 20.1213 22.6418 20.2593 22.6216 20.3974L21.792 25.8809C26.7099 25.5239 31.3709 25.2449 35.9923 24.9854L35.9463 15.9661Z" fill="#4D4D4D"/>
<path d="M36.5775 16.106L36.6249 24.7504C37.0397 24.7321 37.4544 24.7139 37.8889 24.676L37.8416 16.0119C37.4268 16.0499 36.9923 16.068 36.5775 16.106Z" fill="#4D4D4D"/>
<path d="M11.2023 27.5195L22.9903 27.5626C22.9903 27.5626 22.7469 23.9106 23.0275 22.7867C23.0474 22.7275 22.87 22.648 22.633 22.6668C16.2945 22.7029 11.214 24.3224 11.2067 26.3354L11.2023 27.5195Z" fill="#1A1A1A"/>
<path d="M26.0592 25.3631L23.0713 27.089L21.9908 25.5851L24.7044 23.2662L26.0592 25.3631Z" fill="#1A1A1A"/>
<path d="M23.7629 21.6254L23.8025 21.5861C23.9014 21.5272 24.0396 21.5475 24.1182 21.6464L27.4561 26.8096C27.515 26.9085 27.4947 27.0466 27.376 27.1053L27.3364 27.1447C27.2375 27.2035 27.0993 27.1833 27.0207 27.0843L23.7025 21.9212C23.6239 21.8222 23.6638 21.704 23.7629 21.6254Z" fill="#1A1A1A"/>
<path d="M33.267 25.1926L34.6366 23.2437C34.381 22.927 34.4431 22.1378 34.5452 21.2304C34.6676 20.1651 34.7295 19.4154 35.2433 19.2988C35.2433 19.2988 35.9547 19.1436 36.1126 19.1639C36.5862 19.2643 37.0172 20.1934 36.8946 21.3179C36.8128 22.0873 36.5142 22.7375 36.1774 23.052C36.276 23.0918 36.3348 23.2105 36.2752 23.3089L35.6559 25.2802L33.267 25.1926Z" fill="#1A1A1A"/>
<path d="M51.0573 25.257L52.4269 23.3082C52.1713 22.9915 52.2334 22.2023 52.3355 21.2948C52.4578 20.2296 52.5198 19.4798 53.0336 19.3633C53.0336 19.3633 53.745 19.208 53.9029 19.2283C54.3764 19.3287 54.8075 20.2579 54.6849 21.3824C54.6031 22.1517 54.3045 22.8019 53.9677 23.1165C54.0663 23.1563 54.1251 23.2749 54.0655 23.3734L53.4462 25.3447L51.0573 25.257Z" fill="#1A1A1A"/>
<path d="M13.4488 23.403L13.8436 23.4242C14.2385 23.4453 14.6337 23.3481 14.9505 23.1124C16.8904 21.7972 22.3736 18.0477 25.5003 16.1645C25.6586 16.0664 25.62 15.8295 25.4424 15.7894L24.9294 15.6888C25.0679 15.6104 25.4635 15.4342 25.5822 15.3754L26.7659 15.656C21.7398 18.5783 19.1657 20.5425 14.3954 23.7222L13.132 23.6386C13.2509 23.5404 13.33 23.5012 13.4488 23.403Z" fill="#1A1A1A"/>
<path d="M20.7208 21.9104C20.519 23.0938 20.3372 24.2181 20.2145 25.3623C19.0294 25.4566 17.8049 25.5311 16.4816 25.6447C16.4421 25.6445 16.3235 25.6638 16.1853 25.6633C16.0273 25.6627 15.9491 25.4651 16.068 25.3471C16.1274 25.2881 16.2066 25.2292 16.3057 25.1506C17.7908 23.9917 19.2757 22.8919 20.7208 21.9104ZM21.2569 21.0834C19.5744 22.222 17.8519 23.4788 16.0895 24.8538C15.4361 25.3646 15.3362 25.68 15.3752 25.7985C15.4338 25.9961 15.868 26.0371 16.2037 26.0384C16.3419 26.0389 16.4604 26.0393 16.5197 26.0198C17.8825 25.9261 19.2256 25.8126 20.5489 25.7187C20.7325 24.1011 20.9751 22.5626 21.2569 21.0834Z" fill="black"/>
<path d="M74.5641 22.6796L73.4479 20.1296C72.645 18.311 71.0307 16.9631 69.1369 16.5023C66.8287 15.9412 64.3418 15.6361 61.9527 15.6274C61.0049 15.6239 60.0768 15.6206 59.1291 15.6171C51.2112 15.5882 43.5499 15.5997 36.9533 16.0295L37.0006 24.6936C48.1985 24.1227 59.3559 23.8082 73.9683 23.605C74.4422 23.6067 74.7599 23.1145 74.5641 22.6796ZM74.1481 23.053C74.1282 23.0924 74.0687 23.1514 73.97 23.1511C59.2786 23.3343 48.3976 23.6498 37.7527 24.203C37.575 24.2023 37.4373 24.0834 37.4379 23.9058L37.405 16.7022C37.4055 16.5443 37.5245 16.4066 37.6825 16.4072C44.2196 16.0363 51.8612 16.0247 59.1275 16.0513C60.0555 16.0547 61.0033 16.0581 61.9511 16.0616C64.3205 16.0702 66.7678 16.3752 69.0366 16.9163C70.8121 17.357 72.3082 18.6058 73.0523 20.3058L74.1686 22.836C74.2077 22.9546 74.1679 23.0334 74.1481 23.053Z" fill="black"/>
</g>
<path d="M0.0186331 34.9778L0.018489 35.0173L0.0349918 35.9054C0.0347756 35.9646 0.0937955 36.024 0.153031 36.0243C1.08135 35.9487 1.87138 35.8924 2.97748 35.7978C3.35278 35.7596 3.66755 36.0766 3.5872 36.4513C3.2862 37.7724 2.37589 38.3217 0.538859 38.5124C0.479623 38.5121 0.439844 38.5909 0.479119 38.6503C0.754184 39.0263 1.14808 39.304 1.62147 39.4439L1.93703 39.5437C3.19943 39.9036 4.50198 40.0859 5.80531 40.0512L6.10149 40.0523L6.10956 37.8419C6.12239 34.3291 9.01572 31.4582 12.5304 31.4711L12.5896 31.4713C16.1043 31.4841 18.9766 34.376 18.9638 37.8889L18.9571 39.7045L57.3856 38.7396L57.3889 37.8318C57.4017 34.3189 60.295 31.4481 63.8097 31.4609L63.8689 31.4611C67.3836 31.474 70.2559 34.3659 70.2431 37.8787L70.2411 38.4116L78.4968 37.8694C78.9708 37.8317 79.367 37.4779 79.428 37.0044L79.5699 35.9984C79.59 35.8801 79.5707 35.7616 79.5118 35.6627L79.355 35.3661C79.2961 35.2672 79.257 35.1487 79.2575 35.0303C79.2212 34.142 79.1451 33.3523 79.1089 32.4641C79.1093 32.3457 78.8533 32.1474 78.834 32.0486C78.4618 25.8108 77.8525 19.6314 76.9181 15.9769C76.6261 14.8312 75.6023 14.0183 74.4177 13.9745C57.4976 13.4588 37.24 13.0888 28.4084 14.5367C27.4206 14.691 26.4717 14.9835 25.562 15.3749L26.7457 15.6556C21.7394 18.5779 19.1653 20.542 14.395 23.7218L13.1316 23.6382L11.7674 24.1266L11.4121 24.0859C5.49414 27.9324 0.594199 28.7632 0.378372 33.795C0.140131 34.1493 0.0201462 34.5633 0.0186331 34.9778ZM16.089 24.8529C19.0395 22.5546 21.8901 20.5717 24.6011 18.9633C26.9363 17.5509 29.5261 16.692 32.252 16.4059C39.778 15.6045 49.256 15.5799 59.1484 15.616C60.0764 15.6194 61.0242 15.6228 61.9719 15.6263C64.3611 15.635 66.848 15.9401 69.1561 16.5011C71.0698 16.962 72.6642 18.3296 73.4672 20.1285L74.5834 22.6785C74.7792 23.1134 74.4615 23.6056 73.9876 23.6039C50.7854 23.9139 36.29 24.5122 16.539 25.9992C16.2625 26.0179 15.4726 26.0348 15.3748 25.7779C15.3357 25.679 15.4356 25.3439 16.089 24.8529Z" fill="white"/>
<path d="M21.4041 23.886C21.068 24.0032 20.8299 24.3378 20.8877 24.7328C20.9258 25.1079 21.2801 25.4052 21.6552 25.4263C21.7737 25.4267 21.8922 25.4074 21.9912 25.3486L23.7287 25.3549C24.0052 25.3559 24.2232 25.1397 24.2439 24.8634L24.3684 22.0112C24.3694 21.7547 24.1529 21.5565 23.8961 21.5753L23.1653 21.6319C22.2963 21.7076 21.5829 22.3958 21.5008 23.2638L21.4041 23.886Z" fill="url(#paint16_linear)"/>
<path d="M78.834 32.0497C78.8152 31.7931 78.4967 26.3308 78.4967 26.3308L12.5709 29.0697C8.16596 29.2527 3.92208 30.7773 0.407675 33.4393L0.378461 33.7763C0.14022 34.1307 0.0202353 34.5447 0.0187221 34.9591L0.018578 34.9986L0.0350808 35.8867C0.0347926 35.9657 0.0938845 36.0054 0.153121 36.0056C1.08144 35.93 1.87147 35.8737 2.97757 35.7791C3.35287 35.741 3.66764 36.0579 3.58729 36.4326C3.28629 37.7538 2.39566 38.3228 0.538948 38.4937C0.47964 38.5132 0.439933 38.5723 0.479208 38.6316C0.754273 39.0076 1.14817 39.2853 1.62155 39.4252L1.93712 39.525C3.19945 39.9046 4.50207 40.0673 5.8054 40.0325L6.10158 40.0336L6.10958 37.843C6.1224 34.3301 9.01574 31.4593 12.5304 31.4721L12.5896 31.4723C16.1043 31.4852 18.9766 34.377 18.9638 37.8899L18.9572 39.7056L57.3856 38.7407L57.3889 37.8329C57.4017 34.32 60.2951 31.4491 63.8097 31.462L63.869 31.4622C67.3836 31.475 70.2559 34.3669 70.2431 37.8798L70.2412 38.4126L78.4968 37.8705C78.9708 37.8525 79.367 37.4789 79.428 37.0055L79.5699 35.9995C79.5901 35.8812 79.5707 35.7627 79.5119 35.6638L79.355 35.3672C79.2961 35.2683 79.2571 35.1497 79.2575 35.0313C79.2015 34.143 79.1451 33.3731 79.1089 32.4651C79.0896 32.3269 78.8336 32.1484 78.834 32.0497Z" fill="#EDEEEF"/>
<path d="M57.4149 38.6889L57.4149 37.8062C57.4149 37.8062 57.3684 35.6225 58.7623 33.95L18.4345 35.2973C18.8526 36.2265 18.9573 37.2487 18.964 37.8895C18.9732 38.7819 18.9573 39.7052 18.9573 39.7052L57.4149 38.6889Z" fill="#DDDEE0"/>
<path d="M6.15607 40.0872C6.15607 40.0872 5.98324 36.5512 6.63368 35.4826L0.0362889 35.4826C0.0362889 36.3654 0.251037 37.5461 0.36151 38.1773C0.686734 40.0358 3.98543 39.9893 3.98543 39.9893L6.15607 40.0872Z" fill="#DDDEE0"/>
<path d="M37.0491 38.1512L55.5556 37.6001" stroke="#868687" stroke-width="0.04"/>
<g style="mix-blend-mode:screen">
<path d="M5.35917 37.8385C5.37358 33.8915 8.60374 30.7061 12.5331 30.7204L12.5923 30.7206C16.5414 30.7351 19.7284 33.9636 19.714 37.8909L19.7075 39.6868L18.9571 39.7038L18.9637 37.8882C18.9765 34.3753 16.1042 31.4834 12.5896 31.4706L12.5303 31.4704C9.01565 31.4575 6.12232 34.3284 6.10949 37.8413L6.10149 40.0319L5.80531 40.0308C5.64735 40.0302 5.50914 40.0297 5.35117 40.0291L5.35124 40.0094L5.35917 37.8385Z" fill="url(#paint17_linear)"/>
</g>
<path d="M56.6585 37.8288C56.6729 33.8817 59.9031 30.6963 63.8324 30.7107L63.8916 30.7109C67.8407 30.7253 71.0277 33.9538 71.0133 37.8812L71.0115 38.3745L70.261 38.431L70.263 37.8784C70.2758 34.3655 67.4035 31.4737 63.8889 31.4608L63.8296 31.4606C60.315 31.4478 57.4216 34.3186 57.4088 37.8315L57.4055 38.7393L56.6551 38.7563L56.6552 38.7366L56.6585 37.8288Z" fill="url(#paint18_linear)"/>
<path d="M35.2161 28.0118C35.2439 28.6344 34.7236 28.7552 34.1382 28.7831C33.5528 28.8109 33.051 28.7552 33.0138 28.1233C32.9859 27.5008 33.4784 27.38 34.0638 27.3521C34.6585 27.3149 35.1882 27.38 35.2161 28.0118Z" fill="url(#paint19_linear)"/>
<path d="M34.9376 28.0218C34.9562 28.4864 34.5752 28.5701 34.1385 28.5979C33.7018 28.6165 33.3301 28.5794 33.3022 28.1055C33.2836 27.6409 33.646 27.5572 34.0827 27.5386C34.5195 27.5108 34.9097 27.5479 34.9376 28.0218Z" fill="url(#paint20_linear)"/>
<path d="M36.0898 27.8358C36.0341 27.8172 35.6531 27.6778 35.235 27.6685C34.7797 27.6592 34.6496 27.715 34.0828 27.7428C33.5159 27.7707 33.3766 27.7336 32.9305 27.78C32.5217 27.8265 32.15 28.003 32.0942 28.0216C32.6425 27.9566 33.3301 27.8915 34.092 27.8636C34.8447 27.8358 35.5416 27.8265 36.0898 27.8358Z" fill="#DCDCDC"/>
<path d="M36.0432 28.1612C36.1268 28.0218 36.0989 27.8452 36.0989 27.8452C36.0989 27.8452 36.0989 27.8452 36.0896 27.8452C35.5414 27.8266 34.8445 27.8359 34.0918 27.8731C33.3392 27.9103 32.6423 27.966 32.094 28.0311C32.0847 28.0311 32.0847 28.0311 32.0847 28.0311C32.0847 28.0311 32.0754 28.2076 32.1684 28.3377C32.698 28.2448 33.3763 28.1705 34.1011 28.1333C34.8352 28.1147 35.5042 28.124 36.0432 28.1612Z" fill="#DCDDDE"/>
<path d="M32.3915 28.4866C32.726 28.5516 33.1534 28.5238 33.1534 28.5238C33.1534 28.5238 33.1813 28.3008 34.1012 28.2543C35.0211 28.2078 35.0676 28.4308 35.0676 28.4308C35.0676 28.4308 35.495 28.4216 35.8296 28.3193C35.9318 28.2915 35.9968 28.2264 36.034 28.1614C35.495 28.1242 34.8167 28.1149 34.0919 28.1521C33.3672 28.1892 32.6888 28.2636 32.1592 28.3565C32.2149 28.4123 32.2893 28.468 32.3915 28.4866Z" fill="#C7C9CB"/>
<path d="M0.221593 37.62C0.128672 37.0625 0.0358005 35.9939 0.0358005 35.9939C0.964047 35.938 1.8714 36.0784 2.99724 35.9839C3.37254 35.9458 3.68732 36.2627 3.60697 36.6374C3.30596 37.9586 2.3106 38.3784 0.453895 38.5492C0.453895 38.5492 0.352335 38.4044 0.221593 37.62Z" fill="#B3B3B3"/>
<path d="M35.7084 16.1045L35.7558 24.7489C36.1705 24.7307 36.5852 24.7125 37.0198 24.6746L36.9527 16.0104C36.5379 16.0484 36.1034 16.0665 35.7084 16.1045Z" fill="#6B7377"/>
<path d="M20.5682 25.719C21.062 25.6813 21.5558 25.6436 22.0496 25.606C22.0499 25.5073 22.07 25.4284 22.0703 25.3297L21.9913 25.3295C21.8925 25.3686 21.7739 25.4076 21.6554 25.4072C21.2802 25.4058 20.9259 25.1085 20.8878 24.7136C20.8498 24.3188 21.0682 23.9841 21.4043 23.8669L21.4656 23.2948C21.5471 22.6241 21.9638 22.0532 22.5571 21.7989C22.6379 21.3058 22.7384 20.8127 22.839 20.3197C22.8592 20.1816 22.8991 20.0634 22.9588 19.9452C22.4046 20.2984 21.8306 20.6713 21.2566 21.0639C20.9747 22.5628 20.7321 24.1013 20.5682 25.719Z" fill="#6B7377"/>
<path d="M74.8012 22.5814L73.685 20.0314C72.8626 18.1535 71.1893 16.7462 69.1968 16.2652C66.8689 15.7041 64.3623 15.399 61.9534 15.3902C61.0056 15.3867 60.0776 15.3833 59.1298 15.3799C50.5011 15.3484 40.115 15.3302 32.2137 16.1697C29.4482 16.4556 26.8386 17.3342 24.4442 18.7662C21.7331 20.3943 18.8627 22.3771 15.9122 24.6754C15.0806 25.3237 15.0594 25.7183 15.118 25.8961C15.2157 26.1728 15.5509 26.2924 16.1828 26.2947C16.3407 26.2953 16.4592 26.2957 16.5383 26.2763C36.2103 24.789 50.7453 24.1711 73.9672 23.8809C74.2831 23.882 74.5601 23.7251 74.719 23.4692C74.8978 23.1738 74.9187 22.8581 74.8012 22.5814ZM73.9682 23.6046C50.6673 23.9142 36.1915 24.5324 16.5195 25.9999C16.4405 25.9996 16.322 26.0189 16.2035 26.0185C15.8679 26.0173 15.4336 25.9762 15.3751 25.7786C15.336 25.6601 15.4359 25.3447 16.0894 24.8339C19.0399 22.5357 21.8905 20.5528 24.6015 18.9443C26.9366 17.5319 29.5264 16.673 32.2524 16.3869C40.1339 15.5473 50.3621 15.5649 59.1487 15.597C60.0768 15.6004 61.0245 15.6039 61.9723 15.6073C64.3615 15.616 66.8483 15.9212 69.1565 16.4822C71.0702 16.9431 72.6645 18.3107 73.4675 20.1095L74.5837 22.6595C74.7598 23.1141 74.4421 23.6063 73.9682 23.6046Z" fill="#6B7377"/>
<path opacity="0.8" d="M15.3757 25.7775C15.4343 25.9751 15.8685 26.0161 16.2042 26.0174C16.3424 26.0179 16.4609 26.0183 16.5202 25.9988C17.883 25.9051 19.2261 25.7916 20.5494 25.6977C20.7132 24.08 20.9557 22.5613 21.2376 21.0624C19.5748 22.2207 17.8523 23.4775 16.09 24.8526C15.4366 25.3436 15.3366 25.6787 15.3757 25.7775Z" fill="#B2B6B9"/>
<path opacity="0.8" d="M13.132 23.6382L14.3954 23.7217C19.1657 20.542 21.7398 18.5778 26.7856 15.6556L25.6019 15.375C22.9122 16.5493 15.5672 21.8708 13.132 23.6382Z" fill="#B2B6B9"/>
<path opacity="0.8" d="M22.0503 25.6051C26.7905 25.2672 31.2738 24.9875 35.7569 24.7473L35.7095 16.103L32.2529 16.4061C29.5072 16.6921 26.9372 17.5511 24.602 18.9635C24.0677 19.2774 23.5333 19.6307 22.9792 19.9641C22.9196 20.0823 22.8796 20.2203 22.8594 20.3387C22.7589 20.8317 22.6583 21.3247 22.5775 21.8178C22.7555 21.7395 22.9532 21.681 23.1507 21.662L23.8815 21.6055C24.1383 21.5867 24.3548 21.7848 24.3538 22.0414L24.2449 24.8434C24.2241 25.1197 24.0061 25.336 23.7297 25.335L22.0908 25.329C22.0707 25.4276 22.0507 25.5064 22.0503 25.6051Z" fill="#B2B6B9"/>
<path opacity="0.8" d="M36.9531 16.0088L37.0005 24.6729C48.1983 24.102 59.3557 23.7875 73.9682 23.5843C74.4421 23.586 74.7598 23.0938 74.5639 22.6589L73.4476 20.1286C72.6447 18.31 71.0305 16.9621 69.1366 16.5013C66.8284 15.9403 64.3416 15.6351 61.9524 15.6264C61.0046 15.623 60.0766 15.6196 59.1288 15.6161C51.2307 15.5873 43.5496 15.5987 36.9531 16.0088Z" fill="#B2B6B9"/>
<path d="M55.5552 15.5559L54.9431 15.5537C55.1502 18.3372 55.3001 21.0175 55.3879 23.9979L56 24.0002C55.912 21.079 55.7622 18.3592 55.5552 15.5559Z" fill="#6B7377"/>
<path d="M11.7675 24.1277L13.485 24.2326C13.8015 24.0759 14.0785 23.919 14.3159 23.7817C14.3357 23.7621 14.3753 23.7425 14.3951 23.7228L13.1317 23.6393L11.7675 24.1277Z" fill="#878E91"/>
<path d="M6.65255 29.8304C5.78052 30.7154 5.12611 31.4827 4.58996 32.3096C4.37154 32.6443 4.01533 32.8601 3.63988 32.9377L0.407989 33.4374C0.686761 30.9285 1.89474 29.163 6.4177 29.2573C6.71395 29.2386 6.87054 29.6142 6.65255 29.8304Z" fill="url(#paint21_linear)"/>
<path d="M1.88549 32.0636C1.88412 32.4386 1.94213 32.7743 2.0005 33.0114L2.98776 33.015L3.62005 32.8989C3.67936 32.8793 3.71885 32.8795 3.77815 32.86C4.09444 32.7624 4.39134 32.5662 4.57013 32.2708C4.82819 31.8968 5.10599 31.5228 5.42336 31.1292C5.44317 31.1096 5.44324 31.0898 5.46306 31.0702L2.00763 31.0576C1.94732 31.3534 1.88685 31.6887 1.88549 32.0636Z" fill="url(#paint22_linear)"/>
<path d="M2.83504 31.5343C2.8331 32.0672 2.89075 32.5015 2.96836 32.8768L3.77792 32.8798C4.09421 32.7822 4.39111 32.586 4.56989 32.2906C4.82795 31.9166 5.10576 31.5426 5.42312 31.149C5.44294 31.1294 5.44301 31.1096 5.46283 31.09C5.7206 30.7949 5.99819 30.4801 6.29552 30.1654L2.97831 30.1533C2.91813 30.4097 2.87749 30.7253 2.8367 31.0804C2.83612 31.2383 2.83555 31.3962 2.83504 31.5343Z" fill="url(#paint23_linear)"/>
<path d="M4.69533 30.3574C4.69432 30.6337 4.73288 30.8904 4.75183 31.1075C4.75176 31.1273 4.75168 31.147 4.75161 31.1667L5.42295 31.1692C5.44277 31.1495 5.44284 31.1298 5.46266 31.1101C5.72043 30.815 5.99802 30.5003 6.29535 30.1856C6.41425 30.0676 6.51341 29.9495 6.63232 29.8316C6.71159 29.7529 6.73169 29.6543 6.73198 29.5754L4.75745 29.5682C4.71731 29.7456 4.69684 29.9429 4.67623 30.1797C4.69576 30.2389 4.69555 30.2982 4.69533 30.3574Z" fill="url(#paint24_linear)"/>
<path d="M4.69533 30.3574C4.69432 30.6337 4.73288 30.8904 4.75183 31.1075C4.75176 31.1273 4.75168 31.147 4.75161 31.1667L5.42295 31.1692C5.44277 31.1495 5.44284 31.1298 5.46266 31.1101C5.72043 30.815 5.99802 30.5003 6.29535 30.1856C6.41425 30.0676 6.51341 29.9495 6.63232 29.8316C6.71159 29.7529 6.73169 29.6543 6.73198 29.5754L4.75745 29.5682C4.71731 29.7456 4.69684 29.9429 4.67623 30.1797C4.69576 30.2389 4.69555 30.2982 4.69533 30.3574Z" fill="url(#paint25_linear)"/>
<path d="M0.455163 33.0706L3.56279 32.5433C3.85919 32.4852 4.11646 32.3283 4.27528 32.092C4.79147 31.3242 5.40624 30.5963 6.17926 29.7899C6.25853 29.7113 6.23908 29.6323 6.1206 29.6318C4.93588 29.6275 3.22409 29.5814 2.4523 30.0522L2.45266 29.9535C3.30343 29.483 5.00804 29.233 6.41823 29.2382C6.71441 29.2393 6.87101 29.6148 6.65302 29.8311C5.78098 30.716 5.12649 31.5031 4.57067 32.3102C4.35225 32.6449 3.99604 32.8607 3.62066 32.9185L0.408414 33.4381L0.455163 33.0706Z" fill="#B3B3B3"/>
<g style="mix-blend-mode:screen">
<path d="M6.65251 29.8322C5.78048 30.7171 5.12607 31.4844 4.58992 32.3113C4.3715 32.646 4.01529 32.8618 3.63984 32.9394L0.408004 33.4391C0.87261 30.001 2.49871 29.259 6.41766 29.259C6.71391 29.2403 6.8705 29.6159 6.65251 29.8322Z" fill="#6B7377"/>
</g>
<path opacity="0.4" d="M3.7902 29.6645C4.52582 28.2857 8.02665 26.6802 10.8549 25.4077C11.8438 24.9574 12.6851 24.6129 13.417 24.2406L13.6493 24.1941C12.9174 24.5664 11.8633 25.0364 10.8744 25.4867C8.04611 26.7592 4.52568 28.3252 3.82962 29.6844L3.79013 29.6843L3.7902 29.6645Z" fill="black"/>
<path opacity="0.4" d="M0.378779 33.7959C2.88744 33.5288 4.82292 33.4174 7.90312 33.4484L7.96257 33.3894C4.88237 33.3584 2.88759 33.4893 0.378923 33.7564L0.378779 33.7959Z" fill="#808080"/>
<path opacity="0.4" d="M13.4851 24.2531L16.4272 24.2638L16.5064 24.2049L13.6038 24.1943L13.4851 24.2531Z" fill="black"/>
<path opacity="0.4" d="M26.7262 15.6756C27.359 15.4213 28.1298 15.2268 29.0782 15.0724C37.9295 13.6245 59.3918 13.92 75.8578 14.4143L75.7593 14.3547C59.2736 13.8603 37.9099 13.5652 29.0586 15.0131C28.13 15.1676 27.3197 15.362 26.7067 15.6163L26.7262 15.6756Z" fill="black"/>
<path opacity="0.4" d="M37.1095 38.1331L37.0503 38.1329L20.8969 38.5476C20.0721 31.8937 20.2107 26.3879 21.3767 20.7084C21.4774 20.1759 21.795 19.7034 22.2502 19.409C22.6065 19.1735 22.9232 18.9575 23.24 18.7416C26.1894 16.7393 27.8719 15.6008 36.9175 15.022C36.9372 15.0221 36.957 15.0222 36.9767 15.0223L36.9769 14.963C36.9572 14.963 36.9374 14.9629 36.9177 14.9628C27.8524 15.5218 26.1501 16.68 23.2007 18.6822C22.884 18.8982 22.5673 19.1141 22.211 19.3496C21.7359 19.6637 21.4183 20.1362 21.2978 20.6883C20.1317 26.3877 19.9932 31.8934 20.8179 38.567L20.8178 38.5868L20.8375 38.5868L37.0305 38.1526L37.0897 38.1528L37.1095 38.1331Z" fill="black"/>
<path opacity="0.4" d="M37.1091 38.1938L37.0499 38.1936C37.0499 38.1739 37.0501 38.1344 37.0502 38.1147L36.9172 15.0433C36.9173 15.0236 36.9174 14.9841 36.9175 14.9644L36.9767 14.9646L36.9765 15.0238L37.1095 38.0952C37.1093 38.1346 37.1092 38.1741 37.1091 38.1938Z" fill="black"/>
<path opacity="0.4" d="M55.5555 37.4325L55.4962 37.4323C55.4963 37.4125 55.4965 37.373 55.4965 37.3533L55.5557 24.4452C55.5557 24.4255 55.5559 24.386 55.556 24.3663L55.6152 24.3665L55.615 24.4257L55.5558 37.3338C55.5557 37.3733 55.5556 37.4127 55.5555 37.4325Z" fill="black"/>
</g>
<defs>
<linearGradient id="paint0_linear" x1="39.5556" y1="40.5107" x2="39.5556" y2="44.0001" gradientUnits="userSpaceOnUse">
<stop stop-color="#0C0C0C"/>
<stop offset="1" stop-color="white" stop-opacity="0"/>
</linearGradient>
<radialGradient id="paint1_radial" cx="0" cy="0" r="1" gradientUnits="userSpaceOnUse" gradientTransform="translate(12.5751 37.6455) rotate(-1.36113) scale(5.69616 5.7726)">
<stop offset="0.708877" stop-color="#3D4346"/>
<stop offset="0.78453" stop-color="#6B7377"/>
<stop offset="0.902378" stop-color="#46494B"/>
<stop offset="1" stop-color="#46494B"/>
</radialGradient>
<radialGradient id="paint2_radial" cx="0" cy="0" r="1" gradientUnits="userSpaceOnUse" gradientTransform="translate(12.607 37.5849) rotate(-20.8445) scale(1.79875 1.79808)">
<stop offset="0.8368" stop-color="#1A1A1A"/>
<stop offset="1" stop-color="#4D4D4D"/>
</radialGradient>
<radialGradient id="paint3_radial" cx="0" cy="0" r="1" gradientUnits="userSpaceOnUse" gradientTransform="translate(12.63 37.5855) scale(2.49206 2.4908)">
<stop offset="0.5732" stop-color="white"/>
<stop offset="0.7573" stop-color="#818181"/>
<stop offset="1" stop-color="#666666"/>
</radialGradient>
<linearGradient id="paint4_linear" x1="14.3276" y1="38.9867" x2="14.3276" y2="35.1185" gradientUnits="userSpaceOnUse">
<stop stop-color="#46494B"/>
<stop offset="0.5021" stop-color="#691418"/>
<stop offset="1" stop-color="#46494B"/>
</linearGradient>
<radialGradient id="paint5_radial" cx="0" cy="0" r="1" gradientUnits="userSpaceOnUse" gradientTransform="translate(12.6067 37.5854) rotate(-20.8407) scale(4.16666 4.16508)">
<stop stop-color="#F2F2F2"/>
<stop offset="0.8577" stop-color="#303030"/>
<stop offset="1" stop-color="#F2F2F2"/>
</radialGradient>
<radialGradient id="paint6_radial" cx="0" cy="0" r="1" gradientUnits="userSpaceOnUse" gradientTransform="translate(12.6037 37.5849) scale(3.38733 3.75179)">
<stop stop-color="#3C3C3C"/>
<stop offset="0.4477" stop-color="#3C3C3C"/>
<stop offset="0.8661" stop-color="#393939"/>
<stop offset="1" stop-color="#3C3C3C"/>
</radialGradient>
<radialGradient id="paint7_radial" cx="0" cy="0" r="1" gradientUnits="userSpaceOnUse" gradientTransform="translate(12.6068 37.5845) scale(2.68881 110.185)">
<stop stop-color="#909090"/>
<stop offset="0.4477" stop-color="#909090"/>
<stop offset="0.8661" stop-color="#6C6C6C"/>
<stop offset="1" stop-color="#909090"/>
</radialGradient>
<radialGradient id="paint8_radial" cx="0" cy="0" r="1" gradientUnits="userSpaceOnUse" gradientTransform="translate(12.6063 37.5861) rotate(180) scale(4.08713 4.08506)">
<stop stop-color="#F2F2F2"/>
<stop offset="0.4477" stop-color="#F2F2F2"/>
<stop offset="0.8661" stop-color="#A8A8A8"/>
<stop offset="1" stop-color="#F2F2F2"/>
</radialGradient>
<radialGradient id="paint9_radial" cx="0" cy="0" r="1" gradientUnits="userSpaceOnUse" gradientTransform="translate(63.8085 37.6455) rotate(-1.36113) scale(5.69616 5.7726)">
<stop offset="0.708877" stop-color="#3D4346"/>
<stop offset="0.78453" stop-color="#6B7377"/>
<stop offset="0.902378" stop-color="#46494B"/>
<stop offset="1" stop-color="#46494B"/>
</radialGradient>
<radialGradient id="paint10_radial" cx="0" cy="0" r="1" gradientUnits="userSpaceOnUse" gradientTransform="translate(63.8404 37.5849) rotate(-20.8444) scale(1.79875 1.79808)">
<stop offset="0.8368" stop-color="#1A1A1A"/>
<stop offset="1" stop-color="#4D4D4D"/>
</radialGradient>
<radialGradient id="paint11_radial" cx="0" cy="0" r="1" gradientUnits="userSpaceOnUse" gradientTransform="translate(63.8634 37.5855) scale(2.49205 2.49081)">
<stop offset="0.5732" stop-color="white"/>
<stop offset="0.7573" stop-color="#818181"/>
<stop offset="1" stop-color="#666666"/>
</radialGradient>
<radialGradient id="paint12_radial" cx="0" cy="0" r="1" gradientUnits="userSpaceOnUse" gradientTransform="translate(63.8401 37.5854) rotate(-20.8407) scale(4.16666 4.16508)">
<stop stop-color="#F2F2F2"/>
<stop offset="0.8577" stop-color="#303030"/>
<stop offset="1" stop-color="#F2F2F2"/>
</radialGradient>
<radialGradient id="paint13_radial" cx="0" cy="0" r="1" gradientUnits="userSpaceOnUse" gradientTransform="translate(63.8371 37.5849) scale(3.38732 3.75179)">
<stop stop-color="#3C3C3C"/>
<stop offset="0.4477" stop-color="#3C3C3C"/>
<stop offset="0.8661" stop-color="#393939"/>
<stop offset="1" stop-color="#3C3C3C"/>
</radialGradient>
<radialGradient id="paint14_radial" cx="0" cy="0" r="1" gradientUnits="userSpaceOnUse" gradientTransform="translate(63.8402 37.5845) scale(2.68881 110.185)">
<stop stop-color="#909090"/>
<stop offset="0.4477" stop-color="#909090"/>
<stop offset="0.8661" stop-color="#6C6C6C"/>
<stop offset="1" stop-color="#909090"/>
</radialGradient>
<radialGradient id="paint15_radial" cx="0" cy="0" r="1" gradientUnits="userSpaceOnUse" gradientTransform="translate(63.8397 37.5861) rotate(180) scale(4.08713 4.08506)">
<stop stop-color="#F2F2F2"/>
<stop offset="0.4477" stop-color="#F2F2F2"/>
<stop offset="0.8661" stop-color="#A8A8A8"/>
<stop offset="1" stop-color="#F2F2F2"/>
</radialGradient>
<linearGradient id="paint16_linear" x1="22.5981" y1="25.423" x2="22.6119" y2="21.6321" gradientUnits="userSpaceOnUse">
<stop stop-color="#B3B3B3"/>
<stop offset="0.2845" stop-color="white"/>
<stop offset="1" stop-color="#B3B3B3"/>
</linearGradient>
<linearGradient id="paint17_linear" x1="12.5358" y1="40.0759" x2="12.5699" y2="30.7224" gradientUnits="userSpaceOnUse">
<stop offset="0.0500062"/>
<stop offset="0.6149" stop-color="#666666"/>
<stop offset="1"/>
</linearGradient>
<linearGradient id="paint18_linear" x1="63.8271" y1="39.8272" x2="63.8671" y2="28.8679" gradientUnits="userSpaceOnUse">
<stop stop-color="#DCDCDC"/>
<stop offset="1" stop-color="#969696"/>
</linearGradient>
<linearGradient id="paint19_linear" x1="34.1533" y1="28.7471" x2="34.0904" y2="27.4488" gradientUnits="userSpaceOnUse">
<stop stop-color="white"/>
<stop offset="1" stop-color="#969696"/>
</linearGradient>
<linearGradient id="paint20_linear" x1="34.1203" y1="28.8407" x2="34.1203" y2="27.1191" gradientUnits="userSpaceOnUse">
<stop stop-color="#DCDCDC"/>
<stop offset="1" stop-color="#969696"/>
</linearGradient>
<linearGradient id="paint21_linear" x1="6.74706" y1="31.3486" x2="0.644625" y2="31.3263" gradientUnits="userSpaceOnUse">
<stop stop-color="#A1A1A1"/>
<stop offset="1" stop-color="#F7F7F7"/>
</linearGradient>
<linearGradient id="paint22_linear" x1="3.67627" y1="33.0332" x2="3.68332" y2="31.102" gradientUnits="userSpaceOnUse">
<stop stop-color="#4D4D4D"/>
<stop offset="0.1841" stop-color="white"/>
<stop offset="0.4812" stop-color="#808080"/>
<stop offset="0.8201" stop-color="white"/>
<stop offset="1" stop-color="#4D4D4D"/>
</linearGradient>
<linearGradient id="paint23_linear" x1="4.56221" y1="32.8913" x2="4.57211" y2="30.18" gradientUnits="userSpaceOnUse">
<stop stop-color="#4D4D4D"/>
<stop offset="0.1841" stop-color="white"/>
<stop offset="0.4812" stop-color="#808080"/>
<stop offset="0.8201" stop-color="white"/>
<stop offset="1" stop-color="#4D4D4D"/>
</linearGradient>
<linearGradient id="paint24_linear" x1="5.71971" y1="31.1409" x2="5.72561" y2="29.5264" gradientUnits="userSpaceOnUse">
<stop stop-color="#F7D2A8"/>
<stop offset="0.2" stop-color="#F7931E"/>
<stop offset="0.5138" stop-color="#F7D2A8"/>
<stop offset="0.8" stop-color="#F7931E"/>
<stop offset="1" stop-color="#F7D2A8"/>
</linearGradient>
<linearGradient id="paint25_linear" x1="6.75057" y1="30.363" x2="4.69457" y2="30.3555" gradientUnits="userSpaceOnUse">
<stop offset="0.431" stop-color="#CCCCCC"/>
<stop offset="1"/>
</linearGradient>
</defs>
</svg>
