<svg width="80" height="54" viewBox="0 0 80 54" fill="none" xmlns="http://www.w3.org/2000/svg">
<rect width="80" height="53.3333" fill="white" fill-opacity="0.01"/>
<path d="M40.4445 44.4443C62.2904 44.4443 80 44.0463 80 43.5554C80 43.0645 62.2904 42.6665 40.4445 42.6665C18.5985 42.6665 0.888916 43.0645 0.888916 43.5554C0.888916 44.0463 18.5985 44.4443 40.4445 44.4443Z" fill="url(#paint0_linear)" fill-opacity="0.6"/>
<path d="M53.3367 39.666L56.5467 39.8182L63.6533 39.2287H66.6409L66.7885 30.6426L53.3859 31.0895L53.3367 39.666Z" fill="#46494B"/>
<path d="M7.54248 40.2016L11.697 40.2972L18.4482 39.7077H21.2865L21.4267 31.1216L8.69418 31.5685L7.54248 40.2016Z" fill="#46494B"/>
<path d="M14.4127 43.5555C17.533 43.5555 20.0625 41.0394 20.0625 37.9355C20.0625 34.8316 17.533 32.3154 14.4127 32.3154C11.2924 32.3154 8.76294 34.8316 8.76294 37.9355C8.76294 41.0394 11.2924 43.5555 14.4127 43.5555Z" fill="url(#paint1_radial)"/>
<path d="M14.4124 42.0455C16.6942 42.0455 18.544 40.2054 18.544 37.9356C18.544 35.6658 16.6942 33.8257 14.4124 33.8257C12.1306 33.8257 10.2808 35.6658 10.2808 37.9356C10.2808 40.2054 12.1306 42.0455 14.4124 42.0455Z" fill="url(#paint2_linear)"/>
<path d="M14.4127 41.1662C16.2063 41.1662 17.6603 39.7199 17.6603 37.9357C17.6603 36.1515 16.2063 34.7051 14.4127 34.7051C12.6191 34.7051 11.165 36.1515 11.165 37.9357C11.165 39.7199 12.6191 41.1662 14.4127 41.1662Z" fill="#303030"/>
<path d="M14.4097 40.5374C15.833 40.5374 16.9869 39.3896 16.9869 37.9738C16.9869 36.5579 15.833 35.4102 14.4097 35.4102C12.9864 35.4102 11.8325 36.5579 11.8325 37.9738C11.8325 39.3896 12.9864 40.5374 14.4097 40.5374Z" fill="url(#paint3_radial)"/>
<path d="M17.1691 37.5871C17.1204 37.2485 17.011 36.922 16.853 36.6439C16.7679 36.4867 16.5855 36.2207 16.4032 36.0272C16.1601 35.7732 15.8805 35.5798 15.5887 35.4467C15.5522 35.4226 15.5036 35.4467 15.4793 35.483L15.1754 35.9909C15.1146 36.0756 15.1268 36.2086 15.1997 36.2811C15.3213 36.3658 15.4185 36.4383 15.5158 36.523C15.7832 36.7527 15.9777 37.0551 16.1114 37.3695C16.1114 37.3695 16.1114 37.3695 16.1114 37.3816C16.1601 37.5146 16.2087 37.6597 16.2087 37.8048C16.2208 38.0466 16.2087 38.2764 16.1479 38.5182C16.1114 38.6513 16.075 38.7843 16.0385 38.9294C16.0263 39.0382 16.0871 39.1471 16.1965 39.1833L16.7436 39.4131C16.78 39.4252 16.8287 39.4131 16.853 39.3768C16.9746 39.1471 17.1447 38.615 17.1447 38.6029C17.2055 38.2643 17.2177 37.9257 17.1691 37.5871Z" fill="url(#paint4_linear)"/>
<path d="M14.4126 38.7668C14.8902 38.7668 15.2774 38.3817 15.2774 37.9066C15.2774 37.4315 14.8902 37.0464 14.4126 37.0464C13.935 37.0464 13.5479 37.4315 13.5479 37.9066C13.5479 38.3817 13.935 38.7668 14.4126 38.7668Z" fill="#808080"/>
<path d="M14.4127 34.0459C12.2508 34.0459 10.4924 35.7854 10.4924 37.9455C10.4924 40.1056 12.2412 41.8452 14.4127 41.8452C16.5746 41.8452 18.3329 40.1056 18.3329 37.9455C18.3329 35.7854 16.5842 34.0459 14.4127 34.0459ZM14.4127 41.1761C12.6159 41.1761 11.165 39.7233 11.165 37.9455C11.165 36.1582 12.6255 34.715 14.4127 34.715C16.2095 34.715 17.6603 36.1678 17.6603 37.9455C17.6699 39.7233 16.2095 41.1761 14.4127 41.1761Z" fill="url(#paint5_linear)"/>
<path d="M15.2772 38.5187C15.1138 38.4709 15.0274 38.2988 15.085 38.1459C15.133 37.993 15.306 37.9069 15.4597 37.9547C15.4597 37.9547 15.4597 37.9547 15.4693 37.9547L18.3231 38.2701C18.3327 38.1555 18.3423 38.0408 18.3423 37.9356C18.3423 37.7253 18.3231 37.5151 18.2942 37.3144L15.7576 37.496L17.9195 36.1578C17.7754 35.8711 17.5928 35.6035 17.3814 35.3645L15.258 37.2857C15.1619 37.4195 14.9793 37.4482 14.8448 37.3526C14.7103 37.257 14.6815 37.0754 14.7775 36.9416L15.9594 34.3418C15.6711 34.2176 15.354 34.1316 15.037 34.0742L14.4316 36.5306L13.8263 34.0742C13.4996 34.122 13.1921 34.2176 12.9039 34.3418L14.0857 36.9416C14.1818 37.0754 14.153 37.257 14.0185 37.3526C13.884 37.4482 13.7014 37.4195 13.6053 37.2857L11.4818 35.3645C11.2705 35.6035 11.0879 35.8711 10.9438 36.1578L13.1057 37.496L10.569 37.3144C10.5402 37.5151 10.521 37.7253 10.521 37.9356C10.521 38.0503 10.5306 38.165 10.5402 38.2701L13.3939 37.9547C13.3939 37.9547 13.3939 37.9547 13.4035 37.9547C13.5573 37.9069 13.7302 37.993 13.7783 38.1459C13.8263 38.2988 13.7398 38.4709 13.5861 38.5187C13.5861 38.5187 13.5861 38.5187 13.5765 38.5187L11.0783 39.9332C11.2416 40.2104 11.4434 40.4589 11.674 40.6883L13.6245 39.0539L12.6637 41.4051C12.9423 41.5485 13.2498 41.6632 13.5669 41.7301L14.153 38.9296C14.153 38.9296 14.153 38.9296 14.153 38.9201C14.153 38.7576 14.2875 38.6238 14.4509 38.6238C14.6142 38.6238 14.7487 38.7576 14.7487 38.9201C14.7487 38.9201 14.7487 38.9201 14.7487 38.9296L15.3348 41.7301C15.6519 41.6537 15.9594 41.5485 16.238 41.4051L15.2772 39.0539L17.2277 40.6883C17.4583 40.4589 17.6505 40.2104 17.8234 39.9332L15.2772 38.5187Z" fill="url(#paint6_radial)"/>
<path d="M60.1102 43.5555C63.2305 43.5555 65.76 41.0394 65.76 37.9355C65.76 34.8316 63.2305 32.3154 60.1102 32.3154C56.9899 32.3154 54.4604 34.8316 54.4604 37.9355C54.4604 41.0394 56.9899 43.5555 60.1102 43.5555Z" fill="url(#paint7_radial)"/>
<path d="M60.1099 42.0455C62.3917 42.0455 64.2415 40.2054 64.2415 37.9356C64.2415 35.6658 62.3917 33.8257 60.1099 33.8257C57.8281 33.8257 55.9783 35.6658 55.9783 37.9356C55.9783 40.2054 57.8281 42.0455 60.1099 42.0455Z" fill="url(#paint8_linear)"/>
<path d="M60.1102 41.1662C61.9038 41.1662 63.3579 39.7199 63.3579 37.9357C63.3579 36.1515 61.9038 34.7051 60.1102 34.7051C58.3166 34.7051 56.8625 36.1515 56.8625 37.9357C56.8625 39.7199 58.3166 41.1662 60.1102 41.1662Z" fill="#303030"/>
<path d="M60.1072 40.5374C61.5305 40.5374 62.6844 39.3896 62.6844 37.9738C62.6844 36.5579 61.5305 35.4102 60.1072 35.4102C58.6839 35.4102 57.53 36.5579 57.53 37.9738C57.53 39.3896 58.6839 40.5374 60.1072 40.5374Z" fill="url(#paint9_radial)"/>
<path d="M62.8666 37.5871C62.8179 37.2485 62.7085 36.922 62.5505 36.6439C62.4654 36.4867 62.283 36.2207 62.1007 36.0272C61.8576 35.7732 61.578 35.5798 61.2862 35.4467C61.2498 35.4226 61.2011 35.4467 61.1768 35.483L60.8729 35.9909C60.8121 36.0756 60.8243 36.2086 60.8972 36.2811C61.0188 36.3658 61.116 36.4383 61.2133 36.523C61.4807 36.7527 61.6752 37.0551 61.8089 37.3695C61.8089 37.3695 61.8089 37.3695 61.8089 37.3816C61.8576 37.5146 61.9062 37.6597 61.9062 37.8048C61.9184 38.0466 61.9062 38.2764 61.8454 38.5183C61.8089 38.6513 61.7725 38.7843 61.736 38.9294C61.7239 39.0382 61.7846 39.1471 61.894 39.1833L62.4411 39.4131C62.4775 39.4252 62.5262 39.4131 62.5505 39.3768C62.6721 39.1471 62.8422 38.615 62.8422 38.6029C62.903 38.2643 62.9152 37.9257 62.8666 37.5871Z" fill="url(#paint10_linear)"/>
<path d="M60.1101 38.7668C60.5877 38.7668 60.9749 38.3817 60.9749 37.9066C60.9749 37.4315 60.5877 37.0464 60.1101 37.0464C59.6325 37.0464 59.2454 37.4315 59.2454 37.9066C59.2454 38.3817 59.6325 38.7668 60.1101 38.7668Z" fill="#808080"/>
<path d="M60.1102 34.0459C57.9483 34.0459 56.1899 35.7854 56.1899 37.9455C56.1899 40.1056 57.9387 41.8452 60.1102 41.8452C62.2721 41.8452 64.0304 40.1056 64.0304 37.9455C64.0304 35.7854 62.2817 34.0459 60.1102 34.0459ZM60.1102 41.1761C58.3134 41.1761 56.8625 39.7233 56.8625 37.9455C56.8625 36.1582 58.323 34.715 60.1102 34.715C61.907 34.715 63.3578 36.1678 63.3578 37.9455C63.3675 39.7233 61.907 41.1761 60.1102 41.1761Z" fill="url(#paint11_linear)"/>
<path d="M60.9747 38.5186C60.8113 38.4709 60.7249 38.2988 60.7825 38.1459C60.8306 37.993 61.0035 37.9069 61.1572 37.9547C61.1572 37.9547 61.1572 37.9547 61.1669 37.9547L64.0206 38.2701C64.0302 38.1554 64.0398 38.0408 64.0398 37.9356C64.0398 37.7253 64.0206 37.5151 63.9917 37.3144L61.4551 37.496L63.617 36.1578C63.4729 35.8711 63.2903 35.6035 63.0789 35.3645L60.9555 37.2857C60.8594 37.4195 60.6768 37.4482 60.5423 37.3526C60.4078 37.257 60.379 37.0754 60.475 36.9416L61.6569 34.3418C61.3686 34.2176 61.0516 34.1316 60.7345 34.0742L60.1291 36.5306L59.5238 34.0742C59.1971 34.122 58.8897 34.2176 58.6014 34.3418L59.7832 36.9416C59.8793 37.0754 59.8505 37.257 59.716 37.3526C59.5815 37.4482 59.3989 37.4195 59.3028 37.2857L57.1794 35.3645C56.968 35.6035 56.7854 35.8711 56.6413 36.1578L58.8032 37.496L56.2665 37.3144C56.2377 37.5151 56.2185 37.7253 56.2185 37.9356C56.2185 38.0503 56.2281 38.165 56.2377 38.2701L59.0914 37.9547C59.0914 37.9547 59.0914 37.9547 59.101 37.9547C59.2548 37.9069 59.4277 37.993 59.4758 38.1459C59.5238 38.2988 59.4373 38.4709 59.2836 38.5186C59.2836 38.5186 59.2836 38.5186 59.274 38.5186L56.7758 39.9332C56.9391 40.2104 57.1409 40.4589 57.3715 40.6883L59.322 39.0539L58.3612 41.4051C58.6398 41.5485 58.9473 41.6632 59.2644 41.7301L59.8505 38.9296C59.8505 38.9296 59.8505 38.9296 59.8505 38.9201C59.8505 38.7576 59.985 38.6238 60.1484 38.6238C60.3117 38.6238 60.4462 38.7576 60.4462 38.9201C60.4462 38.9201 60.4462 38.9201 60.4462 38.9296L61.0323 41.7301C61.3494 41.6536 61.6569 41.5485 61.9355 41.4051L60.9747 39.0539L62.9252 40.6883C63.1558 40.4589 63.348 40.2104 63.5209 39.9332L60.9747 38.5186Z" fill="url(#paint12_radial)"/>
<g opacity="0.5">
<path opacity="0.4" d="M59.188 25.3L59.1784 25.3191L59.1688 25.3382C59.0438 25.5198 58.7748 25.9021 58.4097 26.4374C57.593 26.4565 55.9691 26.4947 53.9129 26.5521C53.7976 26.5521 53.6727 26.5616 53.5574 26.5616C50.3962 26.6477 46.3127 26.7719 42.5558 26.9057C42.0465 26.9248 41.5469 26.9439 41.0472 26.9631C40.586 26.9822 40.1056 27.0013 39.6252 27.0204C33.5334 27.2689 26.1253 27.6799 23.3389 27.8424C23.9922 27.2211 25.7314 26.0168 27.9413 24.7743C30.8911 23.1208 33.5719 22.0312 35.3014 21.7827C37.1654 21.5055 39.2505 21.3334 41.4124 21.257C42.0561 21.2379 42.7095 21.2188 43.3629 21.2188C43.4782 21.2188 43.5839 21.2188 43.6992 21.2188C45.5344 21.2188 47.36 21.2952 49.1279 21.4386C50.8863 21.582 52.5966 21.926 54.0955 22.3275C54.2108 22.3561 54.3261 22.3944 54.4414 22.423C56.8147 23.0921 58.5923 23.9045 59.0438 24.2964C59.5819 24.7647 59.2648 25.214 59.188 25.3Z" fill="url(#paint13_linear)"/>
<path d="M31.0061 29.2753C31.0734 29.4377 30.9869 29.6289 30.8236 29.6958C30.6602 29.7627 30.4681 29.6767 30.4008 29.5142L28.9788 25.9204C28.9115 25.7579 28.998 25.5668 29.1613 25.4999C29.3247 25.433 29.5168 25.519 29.5841 25.6815L31.0061 29.2753Z" fill="#1A1A1A"/>
<path d="M56.027 26.9241C56.027 26.9241 55.1238 26.5609 55.6427 25.4618C56.1615 24.3626 57.5452 24.1045 58.4387 24.4199C59.3323 24.7354 59.1209 25.0316 59.0345 25.414C58.9576 25.8058 56.027 26.9241 56.027 26.9241Z" fill="#1A1A1A"/>
<path d="M41.5472 22.1255C41.5472 22.1255 42.239 21.6858 43.3728 23.5879C44.5066 25.4899 44.1222 25.8244 43.5841 25.7479C43.0461 25.6715 41.6528 25.6715 41.0763 24.8877C40.4998 24.104 40.6344 23.0717 40.8073 22.6703C40.9803 22.2689 41.5472 22.1255 41.5472 22.1255Z" fill="#1A1A1A"/>
<path d="M38.0781 31.4543C38.0781 31.4543 38.9813 29.4089 39.75 28.9692C40.5187 28.5296 41.1048 27.5738 41.4411 26.8187C41.7774 26.0636 41.9119 25.9585 42.1041 25.9585C42.2962 25.9585 43.651 26.1305 43.6606 26.2835C43.6702 26.4364 43.2763 27.7649 42.7574 28.7112C42.2386 29.6574 41.614 30.4316 41.0279 31.4639C40.4418 32.4961 38.0781 31.4543 38.0781 31.4543Z" fill="#1A1A1A"/>
<path d="M53.9702 31.082C53.9702 31.082 55.5268 26.5324 56.6029 25.6244C57.6791 24.7164 59.2164 25.2325 59.2164 25.2325L56.5933 31.0915H53.9702V31.082Z" fill="#1A1A1A"/>
</g>
<path opacity="0.4" d="M66.2885 25.4629C66.8266 25.6923 67.3647 25.8643 67.8259 25.9886L69.6611 25.5776C68.3736 25.0519 62.4548 22.672 57.6121 21.2383L56.5264 21.8118C61.1672 23.1403 65.0971 24.9372 66.2885 25.4629Z" fill="#B2B6B9"/>
<path opacity="0.4" d="M31.439 20.9512C30.4397 21.3048 29.3732 21.7732 28.1145 22.404C24.3672 24.2869 20.7064 26.4661 19.8896 26.9631C19.8993 26.9631 19.9185 26.9631 19.9281 26.9631C21.3501 27.0491 22.4647 26.8197 23.8579 25.9882C25.1551 25.214 29.7191 22.3849 32.3999 21.4577L31.439 20.9512Z" fill="#B2B6B9"/>
<path d="M22.9647 26.4844C22.113 26.9966 22.076 26.8814 21.0911 26.9623L19.7939 27.0101C20.1302 26.8189 20.2744 26.7233 20.5146 26.58C21.18 26.6069 21.9 26.6192 22.9647 26.4844Z" fill="#6B7377"/>
<path d="M75.1284 33.118C74.0523 33.118 72.8128 32.6018 72.5822 32.4202C72.3516 32.2386 72.4669 32.0284 72.4669 32.0284C72.4669 32.0284 72.6206 31.7225 72.7744 31.4453C72.9281 31.1777 73.226 31.149 73.226 31.149L76.3679 30.9866C76.3679 30.9866 76.3391 30.2984 75.8394 28.8073C75.5128 27.8229 75.2149 27.3068 75.0516 27.0678C74.0331 26.9818 71.4484 26.7524 69.2769 26.5612C68.7388 26.5134 68.095 26.4657 67.5474 26.3318C66.3079 26.0356 65.0588 25.5194 63.8769 25.0033C59.6492 23.1682 58.525 26.5326 58.525 26.5326C55.5464 26.5326 52.1546 26.934 50.2617 26.7715C47.5233 27.1539 45.3134 27.0678 40.8935 27.0678C37.8476 27.5075 32.39 27.8516 25.6161 27.8516L23.5695 26.6855C22.7336 27.3354 19.2841 27.3545 15.2294 27.8516C11.1746 28.3486 6.74513 29.1132 4.47753 30.0977C3.54552 30.4991 2.90175 30.9292 2.46937 31.302C2.79606 31.2733 3.18039 31.2255 3.62238 31.1395C5.11169 30.8432 7.37928 30.6138 8.24404 30.652C9.1088 30.6903 9.0992 30.9196 8.78212 31.2064C8.6476 31.3306 8.23444 31.7703 7.60989 32.2673C6.80278 32.9173 5.65937 33.6532 4.30458 33.9304C2.88253 34.2171 1.16262 34.5325 0 34.7428V36.4346C0 36.4346 3.69925 36.1574 4.49675 36.1287C5.28464 36.1 5.39034 36.3103 5.73624 36.8169C5.78428 36.8838 5.83232 36.9507 5.88037 37.0272C6.07254 37.3139 6.2551 37.6197 6.36079 37.8109L0.144127 38.0785C0.144127 38.0785 0.0480422 38.1454 0.0960844 38.2506L0.682199 38.2315L1.07615 38.5469L1.25871 38.6998L6.49531 38.4704L7.18712 38.4417C7.18712 38.3079 7.18712 38.1645 7.18712 38.0307C7.18712 37.6675 7.20633 37.3139 7.25437 36.9794C7.70597 33.2327 10.5885 30.6138 14.4415 30.6138C18.0639 30.6138 20.7638 32.9268 21.4941 36.5015L53.2884 35.517C54.3357 32.6687 56.7475 30.9866 60.0528 30.9196C60.1104 30.9196 60.1681 30.9196 60.2257 30.9196C63.1947 30.9196 65.6737 32.5636 66.8075 35.0296L77.8764 34.5899L78.1263 33.1371C77.1846 33.118 75.801 33.118 75.1284 33.118Z" fill="url(#paint14_linear)"/>
<mask id="mask0" mask-type="alpha" maskUnits="userSpaceOnUse" x="0" y="20" width="79" height="19">
<path d="M75.1284 33.118C74.0523 33.118 72.8128 32.6018 72.5822 32.4202C72.3516 32.2386 72.4669 32.0284 72.4669 32.0284C72.4669 32.0284 72.6206 31.7225 72.7744 31.4453C72.9281 31.1777 73.226 31.149 73.226 31.149L76.3679 30.9865C76.3679 30.9865 76.3391 30.2984 75.8395 28.8073C75.5128 27.8229 75.2149 27.3067 75.0516 27.0678C74.0331 26.9818 71.4484 26.7524 69.2769 26.5612C68.7388 26.5134 68.095 26.4656 67.5474 26.3318C66.3079 26.0355 65.0588 25.5194 63.8769 25.0033C59.6492 23.1682 54.5543 20.5117 51.5757 20.5117C48.5971 20.5117 37.2965 20.6742 35.4037 20.5117C32.6652 20.8941 31.0328 22.2509 28.4103 23.5552C27.2969 24.109 26.662 24.4248 25.3508 25.2943L23.5695 26.6855C22.7336 27.3354 19.2841 27.3545 15.2294 27.8515C11.1746 28.3486 6.74513 29.1132 4.47753 30.0977C3.54552 30.4991 2.90175 30.9292 2.46937 31.302C2.79606 31.2733 3.18039 31.2255 3.62238 31.1395C5.11169 30.8432 7.37928 30.6138 8.24405 30.652C9.1088 30.6902 9.0992 30.9196 8.78212 31.2064C8.6476 31.3306 8.23444 31.7703 7.60989 32.2673C6.80278 32.9172 5.65937 33.6532 4.30458 33.9304C2.88253 34.2171 1.16262 34.5325 0 34.7428V36.4346C0 36.4346 3.69925 36.1574 4.49675 36.1287C5.28464 36.1 5.39034 36.3103 5.73624 36.8169C5.78428 36.8838 5.83233 36.9507 5.88037 37.0271C6.07254 37.3139 6.2551 37.6197 6.36079 37.8109L0.144127 38.0785C0.144127 38.0785 0.0480422 38.1454 0.0960844 38.2506L0.682199 38.2314L1.07615 38.5469L1.25871 38.6998L6.49531 38.4704L7.18712 38.4417C7.18712 38.3079 7.18712 38.1645 7.18712 38.0307C7.18712 37.6675 7.20633 37.3139 7.25438 36.9794C7.70597 33.2327 10.5885 30.6138 14.4415 30.6138C18.0639 30.6138 20.7638 32.9268 21.4941 36.5015L53.2884 35.517C54.3358 32.6687 56.7475 30.9865 60.0528 30.9196C60.1104 30.9196 60.1681 30.9196 60.2257 30.9196C63.1947 30.9196 65.6737 32.5636 66.8075 35.0295L77.8764 34.5899L78.1263 33.1371C77.1846 33.118 75.801 33.118 75.1284 33.118Z" fill="url(#paint15_linear)"/>
</mask>
<g mask="url(#mask0)">
<path d="M-3.55542 19.2686H81.7676V43.8324H-3.55542V19.2686Z" fill="white"/>
<path d="M10.198 30.5714L-0.615163 34.8001L-3.17065 39.149L79.8463 37.3807V27.8706L11.8489 30.2304C11.2831 30.2501 10.7249 30.3654 10.198 30.5714Z" fill="#EDEEEF"/>
</g>
<path d="M32.9667 21.2761C35.5129 20.6071 44.2374 19.5844 51.0018 20.5784C51.9146 20.7122 52.8274 20.8843 53.7305 21.085C54.6818 21.2953 55.6234 21.5438 56.5362 21.8018L57.622 21.2284C56.1615 20.7982 54.7971 20.4542 53.6921 20.2726C48.4171 19.4124 43.0075 19.4601 38.7606 19.7278C35.7724 19.9094 33.8219 20.1005 31.439 20.9512L32.3998 21.4577C32.592 21.3813 32.7841 21.3239 32.9667 21.2761Z" fill="white"/>
<path d="M78.126 36.205L67.3549 36.7881C66.7592 33.3568 63.8575 30.8908 60.2159 30.8908C60.1582 30.8908 60.1006 30.8908 60.0429 30.8908C56.1419 30.9673 53.49 33.2803 52.8462 37.1226L21.6572 37.8299C21.3785 33.4906 18.4864 30.585 14.422 30.585C10.2231 30.585 7.17725 33.7104 7.17725 38.0115C7.17725 38.1453 7.17725 38.2886 7.17725 38.4225L8.08044 38.3842C8.08044 38.2313 8.08044 38.0784 8.08044 37.935C8.08044 34.3603 10.5114 31.4547 14.4316 31.4547C18.006 31.4547 20.5426 33.9398 20.7732 37.849C20.7732 37.8777 20.7732 37.8968 20.7828 37.9254C20.7924 38.021 20.7924 38.1262 20.802 38.2313H20.8116L21.6956 38.2122L52.7981 37.5049L53.759 37.4858C53.7782 37.352 53.7974 37.2277 53.8262 37.1035C54.4604 33.7678 56.776 31.9135 60.0717 31.837C63.3866 31.7701 65.8368 33.9589 66.3941 36.8358C66.4229 36.9601 66.4421 37.0843 66.4613 37.2086L67.4222 37.1608L78.126 36.5778L78.2221 36.3675L78.126 36.205Z" fill="url(#paint16_linear)"/>
<path d="M66.4521 37.229C66.4809 37.4679 66.5097 37.7069 66.5097 37.9458C66.5193 38.2613 66.5577 38.8156 66.577 39.4655H66.6442L76.2334 38.5384L77.5114 37.2386L77.8381 37.2194L78.1167 36.5982L78.2128 36.3783L78.1167 36.1872L77.9726 34.0366L65.4336 34.4667C66.3464 35.8048 66.4521 37.229 66.4521 37.229Z" fill="#DBDCDE"/>
<path d="M20.8697 40.1338C20.8697 39.503 20.8697 36.7121 20.2739 35.3739L54.7682 34.5615C53.375 36.9988 53.5672 39.675 53.5672 39.675L20.8697 40.1338Z" fill="#DDDEE0"/>
<path d="M8.08072 38.3944C8.08072 38.3944 7.97506 36.8556 8.50353 35.4219L0.0480957 36.3777L0.249836 39.1017L0.307486 39.2928L3.82418 40.2486H8.02307H8.07111C8.07111 39.6369 8.07111 39.0061 8.08072 38.3944Z" fill="#D8DADD"/>
<path opacity="0.4" d="M66.2885 25.4629C66.8266 25.6923 67.3647 25.8643 67.8259 25.9886L69.6611 25.5776C68.3736 25.0519 62.4548 22.672 57.6121 21.2383L56.5264 21.8118C61.1672 23.1403 65.0971 24.9372 66.2885 25.4629Z" fill="#B2B6B9"/>
<path d="M1.00917 38.1938L0.913086 36.9991L4.60271 36.7697C4.60271 36.7697 5.24647 36.7028 5.5059 36.999C5.76533 37.2953 6.06319 37.8688 6.06319 37.8688C6.06319 37.8688 6.15928 38.0026 5.90946 38.0026C5.65964 38.0026 1.00917 38.1938 1.00917 38.1938Z" fill="#6B7377"/>
<path d="M2.30615 38.0061L2.51754 37.0312L4.67944 36.907C4.67944 36.907 5.17908 36.8592 5.38085 37.0886C5.58263 37.318 5.81323 37.7576 5.81323 37.7576C5.81323 37.7576 5.8901 37.8628 5.68832 37.8628C5.49616 37.8628 2.30615 38.0061 2.30615 38.0061Z" fill="#B3B3B3"/>
<path d="M76.2048 31.685C76.1472 31.9239 76.1568 32.0195 76.2241 32.1246C76.3009 32.2298 76.8198 32.5069 76.8198 32.5069L77.281 30.9395L76.3586 30.9872C76.3682 30.9872 76.2721 31.446 76.2048 31.685Z" fill="#B6BABC"/>
<path d="M76.0894 26.4079C76.0126 26.4175 75.7051 26.4557 74.8499 26.341C73.8411 26.2072 69.8632 25.519 69.8632 25.519L69.6614 25.5668L67.8262 25.9778C68.7966 26.2263 69.5076 26.2646 69.5076 26.2646L74.9172 26.8858C74.9172 26.8858 74.9172 26.8858 74.9268 26.8954C75.167 26.7807 75.388 26.6851 75.561 26.6373C75.8204 26.5609 75.9837 26.4844 76.0894 26.4079Z" fill="white"/>
<path d="M77.0022 28.9607C76.7908 27.374 76.1086 26.4087 76.1086 26.4087C76.1086 26.4087 76.099 26.4087 76.0894 26.4087C75.9837 26.4756 75.8203 26.5521 75.5609 26.6381C75.388 26.6859 75.167 26.7815 74.9268 26.8961C74.9748 26.9535 75.3687 27.4027 75.8396 28.7982C76.3392 30.2988 76.368 30.9774 76.368 30.9774L77.2904 30.9296C77.2904 30.9391 77.2232 30.5473 77.0022 28.9607Z" fill="url(#paint17_linear)"/>
<path d="M76.2338 32.1247C76.1569 32.0196 76.1569 31.924 76.2146 31.685C76.2722 31.4461 76.3683 30.9873 76.3683 30.9873L73.2264 31.1498C73.2264 31.1498 72.9285 31.1689 72.7748 31.4461C72.621 31.7137 72.4673 32.0291 72.4673 32.0291C72.4673 32.0291 72.352 32.2394 72.5826 32.421C72.8132 32.6026 74.0527 33.1187 75.1288 33.1187C75.8014 33.1187 77.185 33.1187 78.1171 33.1187L76.8295 32.507C76.8295 32.507 76.3011 32.2298 76.2338 32.1247Z" fill="url(#paint18_linear)"/>
<path d="M59.2743 24.0287C58.4384 23.3118 53.9705 21.4767 49.1566 21.0848C44.3428 20.693 39.3464 20.8363 35.2436 21.4289C31.2081 22.0215 23.7615 26.6189 22.8295 27.8614C22.8199 27.8805 22.8007 27.8996 22.7911 27.9187C22.7622 27.9665 22.7334 28.0143 22.7046 28.0621C22.7718 28.0621 22.8391 28.0526 22.916 28.0526C22.9256 28.043 22.9352 28.0239 22.9352 28.0143C22.964 27.9665 23.0121 27.9092 23.0697 27.8518C23.627 27.2497 25.4334 25.9689 27.8451 24.6213C30.8141 22.9582 33.5237 21.8686 35.2724 21.6105C37.8283 21.2378 40.7396 21.0466 43.699 21.0466C45.515 21.0466 47.3599 21.1231 49.1374 21.2664C53.9032 21.6583 58.3807 23.503 59.159 24.172C59.8316 24.7551 59.38 25.3572 59.332 25.4146L59.3224 25.4241V25.4337C59.2647 25.5101 59.0149 25.8734 58.6306 26.4373C58.5825 26.5042 58.5441 26.5615 58.496 26.6284C58.5825 26.6284 58.6498 26.6284 58.717 26.6189C58.7651 26.552 58.8131 26.4851 58.8516 26.4277C59.2359 25.8638 59.4665 25.5293 59.4665 25.5293C59.4665 25.5293 60.1103 24.7455 59.2743 24.0287Z" fill="#6B7377"/>
<path d="M59.1588 24.163C58.3805 23.494 53.9126 21.6493 49.1372 21.2574C47.35 21.1141 45.5148 21.0376 43.6988 21.0376C40.7394 21.0376 37.8281 21.2288 35.2722 21.6015C33.5235 21.8596 30.8139 22.9587 27.8449 24.6123C25.4332 25.9599 23.6268 27.2407 23.0695 27.8428C23.0119 27.9002 22.9638 27.9575 22.935 28.0053C22.9254 28.0149 22.9158 28.034 22.9158 28.0436C22.983 28.0436 23.0599 28.034 23.1368 28.034C23.1848 27.9766 23.2521 27.9097 23.3289 27.8333C23.9823 27.212 25.7214 26.0077 27.9314 24.7652C30.8812 23.1117 33.5619 22.0221 35.2915 21.7736C37.1555 21.4964 39.2405 21.3243 41.4024 21.2479C42.0462 21.2288 42.6996 21.2096 43.3529 21.2096C43.4682 21.2096 43.5739 21.2096 43.6892 21.2096C45.5244 21.2096 47.35 21.2861 49.118 21.4295C50.8763 21.5728 52.5867 21.9169 54.0856 22.3184C54.2009 22.347 54.3162 22.3853 54.4315 22.4139C56.8048 23.083 58.5823 23.8954 59.0339 24.2873C59.572 24.7556 59.2549 25.2049 59.1877 25.2909L59.178 25.31L59.1684 25.3291C59.0435 25.5107 58.7745 25.893 58.4094 26.4283C58.3613 26.4952 58.3229 26.5525 58.2749 26.6194C58.3517 26.6194 58.4286 26.6194 58.4958 26.6099C58.5439 26.543 58.5919 26.4761 58.6304 26.4187C59.0147 25.8548 59.2645 25.4916 59.3222 25.4151V25.4056L59.3318 25.396C59.3798 25.3482 59.8314 24.7461 59.1588 24.163Z" fill="#919AA3"/>
<path d="M53.913 26.5519C53.7977 26.5519 53.6728 26.5615 53.5575 26.5615C50.3963 26.6475 46.3127 26.7717 42.5558 26.9056C42.0465 26.9247 41.5469 26.9438 41.0473 26.9629C40.5861 26.982 40.1056 27.0011 39.6252 27.0203C33.5335 27.2688 26.1253 27.6797 23.3389 27.8422C23.262 27.9187 23.1948 27.9856 23.1467 28.0429C25.9716 27.8805 34.6096 27.393 41.0569 27.1541C47.629 26.9056 55.8539 26.6953 58.2848 26.6379C58.3329 26.571 58.3713 26.5041 58.4193 26.4468C57.593 26.4563 55.9692 26.4946 53.913 26.5519Z" fill="#919AA3"/>
<path d="M58.4959 26.6282C58.4287 26.6282 58.3614 26.6282 58.2749 26.6378C55.844 26.6951 47.6192 26.9054 41.047 27.1539C34.5997 27.3928 25.9714 27.8803 23.1369 28.0428C23.06 28.0428 22.9831 28.0523 22.9159 28.0523C22.839 28.0523 22.7717 28.0619 22.7045 28.0619C22.6757 28.1192 22.6468 28.1862 22.6084 28.2626C22.666 28.2626 22.7333 28.2531 22.8006 28.2531C22.8678 28.2531 22.9351 28.2435 23.0023 28.2435C25.6927 28.0906 34.494 27.5936 41.0374 27.3451C47.4943 27.1061 55.5461 26.8958 58.1308 26.8289C58.2077 26.8289 58.2845 26.8289 58.3518 26.8194C58.4287 26.8194 58.5055 26.8194 58.5728 26.8098C58.6208 26.7429 58.6689 26.676 58.7073 26.6187C58.6497 26.6187 58.5728 26.6187 58.4959 26.6282Z" fill="#6B7377"/>
<path d="M15.2197 27.8611C19.2648 27.3641 22.7239 27.345 23.5598 26.6951L24.5975 26.026C27.3551 24.1431 32.1497 21.5625 35.1956 21.1132C39.4233 20.492 44.3909 20.3677 49.1759 20.7691C51.0688 20.9221 53.0961 21.3235 54.8064 21.7345C54.8064 21.7345 59.6395 23.1873 63.8672 25.0129C65.049 25.529 66.2981 26.0451 67.5376 26.3414C68.0853 26.4752 68.7291 26.523 69.2672 26.5708C71.4387 26.762 74.0233 26.9914 75.0418 27.0774C74.9554 26.9531 74.9073 26.9053 74.9073 26.9053L69.4978 26.2841C69.4978 26.2841 68.7867 26.2363 67.8163 25.9973C67.3455 25.8731 66.817 25.7106 66.2789 25.4716C65.0779 24.9555 61.1576 23.1491 56.5167 21.8205C54.7392 21.3044 52.8559 20.8647 50.9823 20.5971C44.2372 19.584 35.5127 20.6067 32.9665 21.2757C32.7839 21.3235 32.6013 21.3809 32.3996 21.4478C29.7188 22.3749 25.1452 25.204 23.8576 25.9782C22.4548 26.8193 21.3402 27.0487 19.9182 26.9627C19.9086 26.9627 19.8894 26.9627 19.8798 26.9627C18.4961 26.8767 18.304 26.8193 18.304 26.8193C18.304 26.8193 12.9425 27.4501 8.56101 28.3677C4.2276 29.2757 2.24826 30.7285 1.60449 31.3115C1.80627 31.3211 2.09452 31.3211 2.45964 31.2924C2.89202 30.9197 3.53579 30.4896 4.46781 30.0881C6.74501 29.1132 11.1745 28.3581 15.2197 27.8611Z" fill="white"/>
<path d="M39.116 29.0754C39.1448 29.7157 38.6068 29.84 38.0014 29.8687C37.3961 29.8973 36.8772 29.84 36.8388 29.1901C36.81 28.5497 37.3192 28.4254 37.9246 28.3967C38.5395 28.3585 39.0872 28.4254 39.116 29.0754Z" fill="url(#paint19_linear)"/>
<path d="M38.828 29.0847C38.8473 29.5626 38.4533 29.6486 38.0017 29.6773C37.5501 29.6964 37.1658 29.6581 37.1369 29.1707C37.1177 28.6928 37.4925 28.6068 37.9441 28.5877C38.3957 28.559 38.7992 28.5972 38.828 29.0847Z" fill="url(#paint20_linear)"/>
<path d="M40.0193 28.8933C39.9617 28.8742 39.5677 28.7308 39.1354 28.7213C38.6645 28.7117 38.53 28.7691 37.9439 28.7977C37.3578 28.8264 37.2137 28.7882 36.7525 28.836C36.3297 28.8838 35.9453 29.0654 35.8877 29.0845C36.4546 29.0176 37.1656 28.9507 37.9535 28.922C38.7318 28.8933 39.4524 28.8838 40.0193 28.8933Z" fill="#DCDCDC"/>
<path d="M39.9714 29.2286C40.0579 29.0852 40.029 28.9036 40.029 28.9036C40.029 28.9036 40.029 28.9036 40.0194 28.9036C39.4525 28.8845 38.7319 28.894 37.9536 28.9323C37.1753 28.9705 36.4547 29.0279 35.8878 29.0948C35.8782 29.0948 35.8782 29.0948 35.8782 29.0948C35.8782 29.0948 35.8686 29.2764 35.9647 29.4102C36.5124 29.3146 37.2138 29.2381 37.9632 29.1999C38.7223 29.1808 39.4141 29.1903 39.9714 29.2286Z" fill="#DCDDDE"/>
<path d="M36.1953 29.5632C36.5412 29.6302 36.9832 29.6015 36.9832 29.6015C36.9832 29.6015 37.012 29.3721 37.9632 29.3243C38.9145 29.2765 38.9625 29.5059 38.9625 29.5059C38.9625 29.5059 39.4045 29.4963 39.7504 29.3912C39.8561 29.3625 39.9234 29.2956 39.9618 29.2287C39.4045 29.1905 38.7031 29.1809 37.9536 29.2192C37.2042 29.2574 36.5028 29.3339 35.9551 29.4294C36.0127 29.4868 36.0896 29.5441 36.1953 29.5632Z" fill="#C7C9CB"/>
<path d="M55.3545 28.5784C55.3641 29.2188 54.826 29.3239 54.2207 29.3335C53.6154 29.343 53.0965 29.2761 53.0773 28.6166C53.0677 27.9763 53.5865 27.8711 54.1919 27.8616C54.7972 27.852 55.3353 27.9285 55.3545 28.5784Z" fill="url(#paint21_linear)"/>
<path d="M55.0563 28.5879C55.0659 29.0658 54.6623 29.1423 54.2107 29.1518C53.7591 29.1614 53.3748 29.104 53.3652 28.6166C53.3556 28.1387 53.7399 28.0622 54.1915 28.0527C54.6431 28.0431 55.0466 28.1005 55.0563 28.5879Z" fill="url(#paint22_linear)"/>
<path d="M56.2575 28.4354C56.1999 28.4067 55.8059 28.2633 55.3832 28.2442C54.9123 28.2251 54.7778 28.2729 54.1917 28.2824C53.596 28.292 53.4615 28.2442 53.0003 28.292C52.5775 28.3302 52.1931 28.4927 52.1355 28.5214C52.7024 28.464 53.423 28.4258 54.2013 28.4163C54.97 28.3876 55.6906 28.4067 56.2575 28.4354Z" fill="#DCDCDC"/>
<path d="M56.1999 28.7601C56.2864 28.6167 56.2672 28.4351 56.2672 28.4351C56.2672 28.4351 56.2672 28.4351 56.2576 28.4351C55.6907 28.4064 54.97 28.3969 54.1917 28.4064C53.4135 28.4255 52.6928 28.4638 52.1259 28.5116C52.1163 28.5116 52.1163 28.5116 52.1163 28.5116C52.1163 28.5116 52.0971 28.6932 52.1932 28.8365C52.7505 28.7601 53.4423 28.7027 54.1917 28.6836C54.9508 28.674 55.6426 28.7027 56.1999 28.7601Z" fill="#DCDDDE"/>
<path d="M52.4239 28.989C52.7698 29.0655 53.2118 29.0463 53.2118 29.0463C53.2118 29.0463 53.2406 28.817 54.2014 28.7978C55.1527 28.7787 55.2007 29.0081 55.2007 29.0081C55.2007 29.0081 55.6427 29.0081 55.9886 28.9125C56.0943 28.8839 56.1616 28.8265 56.2096 28.75C55.6523 28.6927 54.9605 28.664 54.2014 28.6831C53.4424 28.7023 52.7506 28.75 52.2029 28.8361C52.2413 28.903 52.3086 28.9603 52.4239 28.989Z" fill="#C7C9CB"/>
<path fill-rule="evenodd" clip-rule="evenodd" d="M19.9263 28.1138C20.2503 28.027 20.6174 27.8635 20.9042 27.6553C21.1902 27.4476 21.4029 27.1905 21.4029 26.9155H21.3549C21.3549 27.1663 21.1592 27.4109 20.8759 27.6167C20.5939 27.8214 20.2316 27.9827 19.9121 28.0681L19.9104 28.0685L19.9088 28.0692C19.8011 28.1158 19.6184 28.1615 19.3717 28.2067C19.1257 28.2518 18.818 28.2963 18.4615 28.3411C17.7692 28.428 16.8941 28.5161 15.9313 28.613L15.8444 28.6217C13.8509 28.8224 11.4982 29.0615 9.62338 29.4058C7.74809 29.7502 6.5307 30.176 5.78159 30.5163C5.40703 30.6864 5.14955 30.8351 4.98545 30.9415C4.9034 30.9947 4.8447 31.0374 4.80639 31.0668C4.78723 31.0815 4.77317 31.0929 4.76384 31.1007C4.75918 31.1046 4.75569 31.1076 4.75334 31.1097L4.75067 31.112L4.74996 31.1127L4.74976 31.1129C4.74974 31.1129 4.74966 31.1129 4.76586 31.1306C4.78207 31.1482 4.78206 31.1482 4.78206 31.1482L4.78218 31.1481L4.7827 31.1477L4.78501 31.1456C4.78711 31.1438 4.79034 31.141 4.79475 31.1373C4.80357 31.13 4.81712 31.1189 4.83576 31.1046C4.87304 31.076 4.93069 31.0341 5.01169 30.9815C5.17367 30.8765 5.42904 30.7289 5.80154 30.5597C6.54655 30.2214 7.76009 29.7966 9.6321 29.4528C11.5046 29.1089 13.8552 28.87 15.8492 28.6693L15.9365 28.6605C16.8989 28.5636 17.7746 28.4755 18.4675 28.3885C18.8244 28.3436 19.1331 28.2991 19.3805 28.2537C19.626 28.2087 19.8129 28.1625 19.9263 28.1138Z" fill="black" fill-opacity="0.4"/>
<path opacity="0.4" fill-rule="evenodd" clip-rule="evenodd" d="M31.45 20.9307L32.4596 21.4629L32.4075 21.4809C31.0694 21.9437 29.2598 22.8818 27.6216 23.8017C26.3081 24.5393 25.1059 25.2646 24.3466 25.7226C24.1591 25.8358 23.9986 25.9326 23.8701 26.0093C22.4728 26.8432 21.3535 27.0738 19.9271 26.9876H19.8894V26.9398H19.9286L19.9293 26.9399C21.3467 27.0256 22.4564 26.7973 23.8453 25.9683C23.9737 25.8917 24.134 25.795 24.3214 25.6819C25.0807 25.2239 26.2837 24.4981 27.598 23.7601C29.2152 22.852 31.0026 21.9242 32.3398 21.4539L31.4275 20.9729L31.45 20.9307Z" fill="black" fill-opacity="0.4"/>
<path opacity="0.4" fill-rule="evenodd" clip-rule="evenodd" d="M57.6011 21.2173L57.6237 21.2595L56.5903 21.8053C60.9055 23.0457 64.5973 24.6857 66.0308 25.3224C66.1313 25.3671 66.2207 25.4068 66.2984 25.4411C66.8329 25.6689 67.3676 25.8402 67.8267 25.9641L69.6561 25.5544L69.6666 25.601L67.8256 26.0133L67.8199 26.0117C67.3579 25.8873 66.8187 25.7149 66.2793 25.485L66.2791 25.4848C66.2013 25.4505 66.1119 25.4108 66.0113 25.3661C64.5716 24.7266 60.8563 23.0762 56.52 21.8348L56.4629 21.8185L57.6011 21.2173Z" fill="black" fill-opacity="0.4"/>
<path fill-rule="evenodd" clip-rule="evenodd" d="M40.5049 28.8774L40.5053 28.8817C40.5058 28.888 40.5065 28.897 40.5072 28.9085C40.5087 28.9314 40.5106 28.964 40.5118 29.0025C40.5142 29.0795 40.5142 29.181 40.5045 29.278C40.4994 29.3279 40.4785 29.4154 40.4488 29.5377C40.4474 29.5435 40.446 29.5494 40.4445 29.5553C40.4152 29.6761 40.3777 29.831 40.3371 30.0202C40.252 30.4172 40.1537 30.9658 40.0913 31.6672C39.9761 33.071 39.9954 34.5313 40.168 35.5992C40.2547 36.1315 40.274 36.6825 40.2716 37.1001C40.2704 37.309 40.2638 37.4847 40.2574 37.6082C40.2543 37.67 40.2512 37.7187 40.2489 37.752C40.2477 37.7687 40.2468 37.7815 40.2461 37.7901L40.2453 37.7999L40.2453 37.801L40.2479 37.8247C40.2498 37.8415 40.2526 37.8659 40.256 37.896C40.2627 37.9564 40.272 38.04 40.2822 38.1333C40.3027 38.3196 40.3267 38.5444 40.3411 38.6975L40.2933 38.702C40.2789 38.5493 40.2549 38.3248 40.2345 38.1384C40.2243 38.0453 40.215 37.9617 40.2082 37.9013C40.2048 37.8712 40.2021 37.8468 40.2002 37.83L40.1973 37.8041L40.1973 37.804L40.2211 37.8013L40.1972 37.7993L40.1973 37.7985L40.1975 37.7961L40.1982 37.7865C40.1989 37.7779 40.1998 37.7653 40.201 37.7487C40.2032 37.7157 40.2063 37.6673 40.2095 37.6058C40.2157 37.4829 40.2223 37.3079 40.2235 37.0999C40.2259 36.6836 40.2067 36.1355 40.1206 35.6068C39.9472 34.5338 39.9281 33.0694 40.0435 31.6632L40.0435 31.663C40.106 30.9594 40.2047 30.4088 40.2901 30.0102C40.3308 29.8204 40.3685 29.665 40.3978 29.5442C40.3993 29.5382 40.4007 29.5323 40.4021 29.5265C40.4322 29.4023 40.4521 29.319 40.4567 29.2733C40.4661 29.1792 40.4661 29.08 40.4638 29.004C40.4626 28.9661 40.4608 28.9341 40.4593 28.9116C40.4585 28.9004 40.4579 28.8915 40.4574 28.8855L40.4568 28.8787L40.4567 28.8769L40.4566 28.8765L40.4566 28.8764L40.4562 28.8712L41.0057 27.3369L41.0509 27.353L40.5049 28.8774ZM40.2211 37.8013L40.1972 37.7993L40.197 37.8017L40.1973 37.804L40.2211 37.8013Z" fill="black" fill-opacity="0.4"/>
<path fill-rule="evenodd" clip-rule="evenodd" d="M35.2406 21.4057C39.3453 20.8129 44.3435 20.6695 49.159 21.0615C51.5682 21.2576 53.8905 21.8148 55.7151 22.4127C56.6274 22.7116 57.4156 23.0207 58.0281 23.3001C58.6399 23.5792 59.0787 23.8294 59.2904 24.011C59.7154 24.3755 59.7659 24.7595 59.7079 25.0529C59.679 25.1987 59.6236 25.3215 59.5754 25.4077C59.5513 25.4508 59.529 25.4849 59.5126 25.5083C59.5084 25.5143 59.5046 25.5196 59.5013 25.5242C59.4981 25.5285 59.4953 25.5322 59.4931 25.5352C59.4915 25.5372 59.4902 25.5389 59.4892 25.5403L59.4876 25.5422L59.4864 25.5438L59.4861 25.5441L59.4853 25.5453L59.3978 25.6723C59.3397 25.7566 59.2545 25.8804 59.1459 26.0381C58.9286 26.3536 58.6177 26.8053 58.2429 27.35C57.4933 28.4393 56.4883 29.9004 55.4668 31.3879C53.4242 34.3622 51.3163 37.4406 51.0513 37.8621C50.8502 38.2131 50.5197 38.3878 50.2416 38.4748C50.1023 38.5184 49.9756 38.5401 49.8837 38.551C49.8377 38.5565 49.8003 38.5592 49.7744 38.5606C49.7614 38.5613 49.7513 38.5616 49.7444 38.5618C49.7409 38.5619 49.7383 38.5619 49.7364 38.5619L49.7344 38.5619L49.734 38.5619L49.7338 38.562H49.7336L22.9266 39.0496L22.4729 38.6472L22.4708 38.6412L22.4936 38.6336C22.4708 38.6412 22.4708 38.6412 22.4708 38.6412L22.4707 38.6409L22.4705 38.6403L22.4697 38.6378C22.469 38.6357 22.468 38.6325 22.4667 38.6282C22.464 38.6197 22.4601 38.6069 22.4551 38.5897C22.4452 38.5555 22.431 38.5039 22.4137 38.4342C22.3792 38.2947 22.3325 38.0826 22.2838 37.7917C22.1863 37.2099 22.0805 36.3127 22.0468 35.05C22.0132 33.7881 22.0084 32.2938 22.1045 30.97C22.1526 30.3082 22.226 29.6885 22.3338 29.1616C22.4414 28.6352 22.5839 28.1992 22.7712 27.9064C22.8658 27.7585 23.0682 27.5559 23.3552 27.3144C23.6428 27.0723 24.0174 26.7895 24.4585 26.4811C25.3409 25.8642 26.4904 25.1442 27.7449 24.442C30.2529 23.0381 33.1844 21.7027 35.2406 21.4057ZM22.5145 38.6201L22.9446 39.0014L49.7331 38.5142L49.7336 38.5142L49.7341 38.5142L49.7359 38.5141C49.7375 38.5141 49.7399 38.5141 49.7432 38.514C49.7497 38.5138 49.7594 38.5135 49.7719 38.5128C49.7969 38.5115 49.8332 38.5089 49.878 38.5036C49.9677 38.493 50.0914 38.4717 50.2272 38.4292C50.499 38.3442 50.817 38.175 51.0098 37.8381L51.0103 37.8372C51.2749 37.4161 53.3844 34.3354 55.4271 31.3609C56.4486 29.8735 57.4536 28.4123 58.2032 27.323C58.578 26.7783 58.889 26.3266 59.1063 26.0111C59.2149 25.8533 59.3001 25.7296 59.3582 25.6453L59.4467 25.5167L59.447 25.5163C59.4471 25.5163 59.4471 25.5162 59.4669 25.5297L59.4471 25.5162L59.4477 25.5154L59.4483 25.5146L59.4486 25.5142L59.4499 25.5127C59.451 25.5113 59.4526 25.5091 59.4548 25.5063C59.4591 25.5006 59.4654 25.4921 59.4732 25.481C59.4888 25.4587 59.5102 25.426 59.5334 25.3845C59.5799 25.3013 59.6331 25.1833 59.6607 25.0436C59.7156 24.7659 59.67 24.3996 59.2591 24.0472C59.0529 23.8704 58.6196 23.6225 58.0081 23.3436C57.3974 23.065 56.611 22.7565 55.7001 22.458C53.8783 21.8611 51.5597 21.3049 49.1551 21.1091C44.3429 20.7174 39.3483 20.8607 35.2475 21.453C33.2008 21.7486 30.276 23.0799 27.7684 24.4836C26.5151 25.1852 25.367 25.9043 24.4862 26.5201C24.0457 26.8281 23.6724 27.11 23.3862 27.3508C23.0994 27.5923 22.9021 27.7908 22.8117 27.932C22.6292 28.2174 22.4882 28.6464 22.3808 29.1711C22.2736 29.6953 22.2005 30.3128 22.1525 30.9735C22.0565 32.2949 22.0612 33.7874 22.0949 35.0488C22.1285 36.3094 22.2341 37.2044 22.3311 37.7838C22.3797 38.0736 22.4261 38.2844 22.4603 38.4227C22.4775 38.4919 22.4915 38.5429 22.5013 38.5765C22.5062 38.5933 22.51 38.6058 22.5125 38.614C22.5133 38.6164 22.5139 38.6184 22.5145 38.6201Z" fill="black" fill-opacity="0.4"/>
<path fill-rule="evenodd" clip-rule="evenodd" d="M72.9867 28.1618L72.9884 28.1602L73.0223 28.1939C72.9833 28.2328 72.9575 28.2587 72.9403 28.2929L72.9393 28.295L72.9379 28.2968C72.741 28.5499 72.047 29.472 71.402 30.3311C71.0795 30.7606 70.7693 31.1743 70.5398 31.4806C70.425 31.6338 70.3304 31.7601 70.2644 31.8481L70.1617 31.9852L70.1616 31.9854L70.1614 31.9857L70.1608 31.9866C70.1601 31.9875 70.1591 31.989 70.1578 31.9908C70.1551 31.9945 70.1512 31.9997 70.146 32.0064C70.1355 32.0198 70.1199 32.0388 70.099 32.0616C70.0571 32.1072 69.9937 32.1684 69.9076 32.231C69.7352 32.3563 69.4715 32.4873 69.106 32.5115C68.6399 32.545 67.3045 32.6453 66.0855 32.7373C65.476 32.7833 64.8955 32.8272 64.4675 32.8596L63.7641 32.9129L63.7639 32.9129C63.7639 32.9129 63.7639 32.9129 63.762 32.8891C63.7602 32.8653 63.7602 32.8653 63.7603 32.8653L63.7604 32.8652L64.4639 32.812C64.8919 32.7795 65.4723 32.7356 66.0818 32.6896C67.3009 32.5977 68.6365 32.4973 69.1026 32.4638L69.1027 32.4638C69.4578 32.4403 69.713 32.3132 69.8792 32.1924C69.9624 32.1319 70.0234 32.073 70.0635 32.0294C70.0835 32.0075 70.0983 31.9895 70.108 31.9771C70.1129 31.9709 70.1165 31.9661 70.1188 31.9628C70.12 31.9612 70.1208 31.96 70.1214 31.9592L70.122 31.9584L70.1221 31.9582M70.1221 31.9582L70.1227 31.9573L70.1412 31.9709C70.1228 31.9573 70.1227 31.9573 70.1227 31.9573L70.1229 31.9571L70.2259 31.8195C70.2918 31.7315 70.3865 31.6052 70.5012 31.452C70.7308 31.1457 71.041 30.732 71.3635 30.3025C72.0068 29.4456 72.6995 28.5254 72.8985 28.2694C72.9194 28.2287 72.9502 28.1981 72.9867 28.1618" fill="black" fill-opacity="0.4"/>
<path fill-rule="evenodd" clip-rule="evenodd" d="M9.56386 32.3589L10.4905 32.6757L10.4749 32.7209L9.55659 32.4069L9.31615 32.4147C9.16437 32.4196 8.95389 32.4265 8.71909 32.4343C8.24948 32.4498 7.68262 32.4689 7.29353 32.4833L7.29175 32.4355C7.68094 32.4212 8.24788 32.402 8.71749 32.3865C8.9523 32.3787 9.16279 32.3719 9.31458 32.3669L9.55939 32.359C9.5594 32.359 9.55945 32.359 9.56023 32.3829L9.55939 32.359L9.56386 32.3589Z" fill="black" fill-opacity="0.4"/>
<path d="M76.6375 28.9801C76.5799 28.8176 76.3301 28.1103 76.2724 28.0148C76.2052 27.9192 75.8016 27.8236 75.4173 27.8045C75.1578 27.7854 74.1009 27.7949 73.4475 27.8045C73.2169 27.9765 73.0344 28.1486 72.9287 28.2824C72.7365 28.5309 72.0735 29.4102 71.449 30.2513L76.1859 30.1175C76.1859 30.1175 76.503 29.8594 76.6087 29.5727C76.6952 29.286 76.6856 29.1426 76.6375 28.9801Z" fill="url(#paint23_linear)"/>
<path fill-rule="evenodd" clip-rule="evenodd" d="M75.4186 27.7733C75.1567 27.7541 74.0986 27.7637 73.4465 27.7732L73.4363 27.7734L73.4282 27.7794C73.1963 27.9524 73.0115 28.1263 72.9036 28.263L72.9034 28.2632C72.711 28.512 72.0479 29.3915 71.4233 30.2327L71.3853 30.2839L76.1968 30.148L76.2051 30.1413L76.2019 30.1374C76.2051 30.1413 76.2051 30.1413 76.2051 30.1413L76.2054 30.141L76.2061 30.1404L76.2089 30.1381C76.2114 30.136 76.215 30.133 76.2195 30.1291C76.2286 30.1213 76.2417 30.1099 76.2576 30.0953C76.2895 30.0662 76.3331 30.0243 76.3801 29.9733C76.4735 29.872 76.5824 29.7322 76.6374 29.5831L76.6377 29.5823L76.638 29.5814C76.6817 29.4365 76.7016 29.3261 76.7041 29.2304C76.7066 29.1343 76.6915 29.0545 76.6668 28.9711L76.6663 28.9696C76.6641 28.9632 76.6615 28.9561 76.6587 28.9482C76.6255 28.8545 76.5546 28.6544 76.4836 28.4615C76.4452 28.3568 76.4066 28.2541 76.3741 28.1715C76.342 28.0902 76.3146 28.0252 76.2985 27.9986L76.298 27.9976L76.2973 27.9967C76.2751 27.9651 76.2298 27.9384 76.1761 27.9155C76.1207 27.8919 76.0502 27.8699 75.9705 27.8506C75.8112 27.8119 75.6124 27.783 75.4186 27.7733ZM73.4575 27.8351C73.2321 28.0041 73.0549 28.1718 72.9527 28.3012C72.7645 28.5446 72.1246 29.3932 71.5115 30.2183L76.1736 30.0866C76.1751 30.0853 76.1769 30.0838 76.1788 30.0821C76.1874 30.0747 76.2 30.0637 76.2154 30.0496C76.2463 30.0214 76.2886 29.9808 76.3341 29.9314C76.4254 29.8323 76.5277 29.7 76.5785 29.5627C76.6211 29.4213 76.6395 29.3169 76.6418 29.2288C76.6441 29.1412 76.6305 29.0682 76.6072 28.9894C76.6051 28.9833 76.6026 28.9764 76.5999 28.9688C76.5667 28.8751 76.4959 28.6754 76.4251 28.4828C76.3867 28.3783 76.3483 28.2761 76.316 28.1941C76.2837 28.1122 76.2586 28.0535 76.2457 28.0315C76.2339 28.0154 76.2036 27.9947 76.1516 27.9725C76.1004 27.9507 76.0334 27.9297 75.9557 27.9108C75.8004 27.8731 75.6054 27.8447 75.4151 27.8352L75.4143 27.8352C75.158 27.8163 74.1126 27.8256 73.4575 27.8351Z" fill="black"/>
<path fill-rule="evenodd" clip-rule="evenodd" d="M76.4605 29.5339H73.4087V29.4595H76.4605V29.5339Z" fill="#E3000B"/>
<path fill-rule="evenodd" clip-rule="evenodd" d="M76.4896 29.3806L73.4954 29.3808L73.4955 29.3064L76.4897 29.3062L76.4896 29.3806Z" fill="#E3000B"/>
<path fill-rule="evenodd" clip-rule="evenodd" d="M76.4895 29.238H73.572L73.5721 29.1636L76.4896 29.1636L76.4895 29.238Z" fill="#E3000B"/>
<path fill-rule="evenodd" clip-rule="evenodd" d="M76.4893 29.0935L73.6587 29.0935L73.6589 29.019L76.4895 29.019L76.4893 29.0935Z" fill="white"/>
<path fill-rule="evenodd" clip-rule="evenodd" d="M76.4279 28.9509L73.7351 28.9509L73.7353 28.8765L76.4282 28.8765L76.4279 28.9509Z" fill="white"/>
<path fill-rule="evenodd" clip-rule="evenodd" d="M76.3434 28.8073L73.8215 28.8073L73.8219 28.7329L76.3437 28.7329L76.3434 28.8073Z" fill="white"/>
<path fill-rule="evenodd" clip-rule="evenodd" d="M76.2951 28.6633L73.8984 28.6633L73.8988 28.5889L76.2954 28.5889L76.2951 28.6633Z" fill="#E3000B"/>
<path fill-rule="evenodd" clip-rule="evenodd" d="M76.2764 28.5207L73.9856 28.5207L73.986 28.4463L76.2769 28.4463L76.2764 28.5207Z" fill="#E3000B"/>
<path d="M73.3413 29.6677C73.7641 29.1038 74.0331 28.7502 74.1388 28.6164C74.1484 28.6068 74.3502 28.3487 74.7538 28.3487C74.8594 28.3487 74.9651 28.3487 75.0708 28.3487C75.1765 28.3487 75.2726 28.3487 75.3783 28.3487C75.9068 28.3487 76.0989 28.3583 76.1662 28.3583C76.195 28.3583 76.2238 28.3679 76.2623 28.3679C76.2142 28.2436 76.1758 28.1385 76.147 28.0716C76.0221 28.062 75.7626 28.062 75.3879 28.062C75.2918 28.062 75.1861 28.062 75.0804 28.062C74.9747 28.062 74.8691 28.062 74.7634 28.062C74.2253 28.062 73.9466 28.3965 73.9178 28.4348C73.7929 28.5877 73.4662 29.0274 72.9474 29.7251L72.7744 29.9545L76.2334 29.8971C76.3103 29.8111 76.3776 29.7155 76.4352 29.6104L73.3413 29.6677Z" fill="#E3000B"/>
<g style="mix-blend-mode:screen">
<path d="M76.6375 28.9801C76.5799 28.8176 76.3301 28.1103 76.2724 28.0148C76.2052 27.9192 75.8016 27.8236 75.4173 27.8045C75.1578 27.7854 74.1009 27.7949 73.4475 27.8045C73.2169 27.9765 73.0344 28.1486 72.9287 28.2824C72.7365 28.5309 72.0735 29.4102 71.449 30.2513L76.1859 30.1175C76.1859 30.1175 76.503 29.8594 76.6087 29.5727C76.6952 29.286 76.6856 29.1426 76.6375 28.9801Z" fill="url(#paint24_linear)"/>
</g>
<path d="M1.61472 31.3218C1.60511 31.3314 1.5955 31.3314 1.5955 31.341C0.970953 31.9144 0.778784 32.3541 0.577007 32.8893C0.37523 33.4341 0.384838 33.8834 0.384838 33.8834L0.894086 34.0363C1.11508 34.0076 1.80689 33.9025 2.80617 33.74C2.56595 33.5011 2.11436 33.0232 1.91258 32.6982C1.64354 32.249 1.67237 32.2299 1.67237 32.2299C1.67237 32.2299 1.86454 31.8284 2.47948 31.3027C2.09514 31.3314 1.80689 31.3314 1.61472 31.3218Z" fill="#B3B3B3"/>
<path d="M1.07696 33.4447L0.558105 33.6263L0.567714 33.7123L1.125 33.741L3.41181 33.3969L3.36377 33.1006L1.07696 33.4447Z" fill="url(#paint25_linear)"/>
<path d="M3.37924 33.2079L0.556641 33.6255L0.569361 33.7106L3.39196 33.293L3.37924 33.2079Z" fill="#808080"/>
<path d="M1.20099 32.8138L0.682129 32.9954L0.691737 33.0814L1.24903 33.1005L3.53584 32.766L3.48779 32.4697L1.20099 32.8138Z" fill="url(#paint26_linear)"/>
<path d="M3.50449 32.5771L0.681885 32.9946L0.694606 33.0797L3.51721 32.6621L3.50449 32.5771Z" fill="#808080"/>
<mask id="mask1" mask-type="alpha" maskUnits="userSpaceOnUse" x="1" y="30" width="8" height="4">
<path d="M1.66252 32.2204C1.66252 32.2204 1.63369 32.2395 1.90273 32.6887C2.10451 33.0233 2.5561 33.4916 2.79632 33.7305C3.35361 33.635 4.01659 33.5298 4.73722 33.4056C5.97671 33.1953 6.96638 32.6792 7.61015 32.2586C8.22509 31.7616 8.63825 31.3219 8.78238 31.1977C9.09945 30.911 9.10906 30.6816 8.2443 30.6433C7.37954 30.6051 5.11195 30.8345 3.62264 31.1308C3.18065 31.2168 2.78671 31.2742 2.46963 31.2933C1.85469 31.8285 1.66252 32.2204 1.66252 32.2204Z" fill="url(#paint27_linear)"/>
</mask>
<g mask="url(#mask1)">
<path d="M4.54511 32.3549C4.97749 32.3549 6.98565 32.3549 7.41803 32.3549C7.56216 32.3549 7.73511 32.2402 7.77354 32.0968C7.83119 31.8388 7.83119 31.5616 7.77354 31.3035C7.73511 31.1602 7.56216 31.0455 7.41803 31.0455C6.98565 31.0455 4.97749 31.0455 4.54511 31.0455C4.40098 31.0359 4.40098 32.3549 4.54511 32.3549Z" fill="url(#paint28_linear)"/>
<path d="M3.49776 33.4826L2.96929 32.8614L1.66254 33.0716L1.6145 32.7084L3.39206 32.4217L3.91092 33.0334C3.91092 33.0334 4.21839 32.9856 4.73725 32.8805C5.75574 32.6798 6.10164 32.3261 6.58207 31.8291L6.63011 31.7813C7.12975 31.2652 7.79273 30.3954 8.05216 30.0418L8.06177 30.0322L8.35963 30.2521L8.35002 30.2616C8.02333 30.7013 7.39879 31.5233 6.89915 32.0394L6.8511 32.0872C6.35146 32.6129 5.94791 33.0239 4.81411 33.2437C4.16074 33.3679 3.49776 33.4826 3.49776 33.4826Z" fill="#999999"/>
<path fill-rule="evenodd" clip-rule="evenodd" d="M8.27962 30.2194C8.1589 30.3831 7.40857 31.4012 6.83444 31.9914L6.76459 31.9241L6.83458 31.9912C6.83453 31.9913 6.83448 31.9913 6.83444 31.9914C6.81672 32.0096 6.79914 32.0278 6.78165 32.0459C6.54991 32.2858 6.33438 32.5088 6.05094 32.6964C5.74387 32.8996 5.36123 33.059 4.79385 33.1661L4.77559 33.071L4.79371 33.1661C4.79374 33.1661 4.79383 33.1661 4.79385 33.1661C4.46663 33.2283 4.13465 33.2881 3.88463 33.3324C3.75958 33.3545 3.65498 33.3727 3.58162 33.3854C3.54493 33.3918 3.51606 33.3968 3.49635 33.4002L3.46619 33.4053L3.44962 33.31L3.46606 33.4053L3.41118 33.4147L2.89173 32.8023L1.6583 32.9946L1.62817 32.8034L2.9698 32.5942L3.48802 33.2052C3.50467 33.2023 3.52486 33.1988 3.54823 33.1948C3.6214 33.1821 3.72578 33.1639 3.85055 33.1418C4.10015 33.0977 4.4312 33.038 4.75732 32.976L4.75746 32.976C5.30459 32.8727 5.66176 32.7215 5.94318 32.5353C6.20819 32.3599 6.40968 32.1515 6.64449 31.9086C6.66098 31.8916 6.67764 31.8743 6.69449 31.8569L6.69463 31.8568C7.2592 31.2765 8.00367 30.2664 8.12352 30.1038L8.12736 30.0986L8.28424 30.2131L8.27962 30.2194Z" fill="#E5E5E5"/>
<path d="M8.34044 30.395H8.33083C8.10023 30.72 7.5045 31.5324 7.0433 32.039C6.76465 32.3353 6.51483 32.5933 6.19775 32.8036C6.67818 32.6029 7.12016 32.364 7.42763 32.1346C7.87923 31.8 8.19631 31.4655 8.37887 31.2648C8.59987 31.0258 8.97459 30.6053 8.99381 30.5862C8.93616 30.5671 8.67673 30.4046 8.34044 30.395Z" fill="url(#paint29_linear)"/>
</g>
<path d="M1.47052 32.2108L0.95166 32.3924L0.961269 32.4785L1.51856 32.5071L3.25769 32.2491L3.03669 31.9814L1.47052 32.2108Z" fill="url(#paint30_linear)"/>
<path d="M3.18058 32.1441L0.961025 32.4786L0.951416 32.3926L3.11332 32.0771L3.18058 32.1441Z" fill="#808080"/>
<path d="M1.25977 31.6758C1.56724 31.7045 2.38395 31.7331 3.61383 31.5038C4.74763 31.2935 7.23622 30.9876 8.89848 30.7774C8.79279 30.7104 8.59101 30.6627 8.2451 30.6531C7.38034 30.6149 5.11275 30.8443 3.62344 31.1406C2.67221 31.3317 1.99001 31.3413 1.61528 31.3222C1.60567 31.3317 1.59606 31.3317 1.59606 31.3413C1.46154 31.456 1.35585 31.5611 1.25977 31.6758Z" fill="url(#paint31_linear)"/>
<path fill-rule="evenodd" clip-rule="evenodd" d="M8.47144 30.9038C6.81581 31.1089 4.65483 31.3767 3.61514 31.5663C2.36032 31.7967 1.52825 31.7683 1.20557 31.7391L1.21695 31.6145C1.52842 31.6427 2.34899 31.6716 3.59235 31.4433L3.59242 31.4433C4.63599 31.2529 6.80093 30.9847 8.45526 30.7798C8.63239 30.7578 8.80366 30.7366 8.96708 30.7163L8.98268 30.8404C8.81935 30.8607 8.64828 30.8819 8.47144 30.9038Z" fill="#808080"/>
<path opacity="0.5" d="M6.62063 31.4362C7.6199 31.2163 8.38858 31.006 8.96509 30.8244C8.89783 30.7289 8.68644 30.662 8.25406 30.6428C7.3893 30.6046 5.12171 30.834 3.6324 31.1303C3.19041 31.2163 2.79646 31.2737 2.47939 31.2928C1.90288 31.7898 1.7011 32.1721 1.68188 32.2103C2.53704 32.1339 4.5452 31.8949 6.62063 31.4362Z" fill="white"/>
<path opacity="0.8" d="M59.1782 25.3005L59.1686 25.3196L59.159 25.3387C59.0341 25.5203 58.765 25.9026 58.3999 26.4379C57.5832 26.457 55.9594 26.4952 53.9032 26.5526C53.7879 26.5526 53.663 26.5621 53.5477 26.5621C50.3865 26.6481 46.3029 26.7724 42.546 26.9062C42.0367 26.9253 41.5371 26.9444 41.0375 26.9635C40.5763 26.9827 40.0958 27.0018 39.6154 27.0209C33.5237 27.2694 26.1156 27.6804 23.3291 27.8429C23.9825 27.2216 25.7216 26.0173 27.9315 24.7748C30.8813 23.1213 33.5621 22.0317 35.2916 21.7832C37.1557 21.506 39.2407 21.3339 41.4026 21.2575C42.0464 21.2384 42.6997 21.2192 43.3531 21.2192C43.4684 21.2192 43.5741 21.2192 43.6894 21.2192C45.5246 21.2192 47.3502 21.2957 49.1182 21.4391C50.8765 21.5824 52.5868 21.9265 54.0857 22.328C54.201 22.3566 54.3163 22.3949 54.4316 22.4235C56.8049 23.0926 58.5825 23.905 59.0341 24.2969C59.5722 24.7652 59.2551 25.2144 59.1782 25.3005Z" fill="#B2B6B9"/>
<path d="M54.0954 22.3281L53.5574 26.5623C53.6823 26.5623 53.7976 26.5527 53.9129 26.5527L54.4317 22.4237C54.3261 22.395 54.2107 22.3568 54.0954 22.3281Z" fill="#6B7377"/>
<path d="M26.5187 25.3862L26.0479 27.8713L22.9155 28.0529C22.9155 28.0529 22.9636 27.8314 24.3952 26.7721C25.5578 25.9119 26.5187 25.3862 26.5187 25.3862Z" fill="#6B7377"/>
<path d="M41.0471 26.954C41.5371 26.9349 42.0463 26.9158 42.5556 26.8966L43.3627 21.2192C42.7093 21.2192 42.0559 21.2384 41.4122 21.2575L39.625 27.0113C40.1054 26.9922 40.5858 26.9731 41.0471 26.954Z" fill="#6B7377"/>
<path d="M24.761 27.1069L25.0108 28.2252L25.1838 28.6171L26.3752 28.5884L26.4136 27.862L24.761 27.1069Z" fill="url(#paint32_linear)"/>
<path d="M25.3088 26.9626L27.9704 26.8288C27.9704 26.8097 27.9704 26.781 27.9607 26.7619C27.8454 25.7201 27.1248 25.787 27.1248 25.787C27.1248 25.787 26.2312 25.787 25.5202 26.1406C24.8572 26.4656 24.7131 26.8957 24.7611 27.1633C24.7707 27.2016 24.7804 27.2398 24.7996 27.2876L25.059 27.278C25.1167 27.0104 25.3088 26.9626 25.3088 26.9626Z" fill="url(#paint33_linear)"/>
<path d="M25.0489 27.3647C25.0489 27.3265 25.0585 27.2978 25.0585 27.2691L24.7991 27.2787C24.9144 27.5654 25.3179 27.9669 26.3652 27.9669C27.4318 27.9573 27.9699 27.9095 27.9891 27.1162L25.0681 27.2691C25.0585 27.2978 25.0585 27.3265 25.0489 27.3647Z" fill="url(#paint34_linear)"/>
<path d="M27.9802 26.8301L25.3187 26.9639C25.3187 26.9639 25.1265 27.0117 25.0688 27.2697L27.9898 27.1168C27.9898 27.0308 27.9898 26.9352 27.9802 26.8301Z" fill="url(#paint35_linear)"/>
<defs>
<linearGradient id="paint0_linear" x1="40.4445" y1="41.3994" x2="40.4445" y2="44.8887" gradientUnits="userSpaceOnUse">
<stop stop-color="#0C0C0C"/>
<stop offset="1" stop-color="white" stop-opacity="0"/>
</linearGradient>
<radialGradient id="paint1_radial" cx="0" cy="0" r="1" gradientUnits="userSpaceOnUse" gradientTransform="translate(14.3854 37.9898) rotate(-1.35676) scale(5.73325 5.79156)">
<stop offset="0.708877" stop-color="#3D4346"/>
<stop offset="0.78453" stop-color="#6B7377"/>
<stop offset="0.902378" stop-color="#46494B"/>
<stop offset="1" stop-color="#46494B"/>
</radialGradient>
<linearGradient id="paint2_linear" x1="14.4163" y1="42.0482" x2="14.4163" y2="33.7377" gradientUnits="userSpaceOnUse">
<stop stop-color="#808080"/>
<stop offset="0.9677" stop-color="#E5E5E5"/>
</linearGradient>
<radialGradient id="paint3_radial" cx="0" cy="0" r="1" gradientUnits="userSpaceOnUse" gradientTransform="translate(14.4067 37.9682) scale(2.57689 2.56205)">
<stop offset="0.35311" stop-color="white"/>
<stop offset="0.7573" stop-color="#818181"/>
<stop offset="1" stop-color="#666666"/>
</radialGradient>
<linearGradient id="paint4_linear" x1="16.1617" y1="39.4086" x2="16.1617" y2="35.4298" gradientUnits="userSpaceOnUse">
<stop stop-color="#46494B"/>
<stop offset="0.5021" stop-color="#691418"/>
<stop offset="1" stop-color="#46494B"/>
</linearGradient>
<linearGradient id="paint5_linear" x1="14.4166" y1="34.0427" x2="14.4166" y2="41.8231" gradientUnits="userSpaceOnUse">
<stop stop-color="#808080"/>
<stop offset="0.9677" stop-color="#E5E5E5"/>
</linearGradient>
<radialGradient id="paint6_radial" cx="0" cy="0" r="1" gradientUnits="userSpaceOnUse" gradientTransform="translate(14.4241 37.8954) rotate(-44.263) scale(3.88134 3.88005)">
<stop stop-color="#F7F7F7"/>
<stop offset="0.5272" stop-color="#BFBFBF"/>
<stop offset="1" stop-color="#F7F7F7"/>
</radialGradient>
<radialGradient id="paint7_radial" cx="0" cy="0" r="1" gradientUnits="userSpaceOnUse" gradientTransform="translate(60.0829 37.9898) rotate(-1.35676) scale(5.73325 5.79156)">
<stop offset="0.708877" stop-color="#3D4346"/>
<stop offset="0.78453" stop-color="#6B7377"/>
<stop offset="0.902378" stop-color="#46494B"/>
<stop offset="1" stop-color="#46494B"/>
</radialGradient>
<linearGradient id="paint8_linear" x1="60.1138" y1="42.0482" x2="60.1138" y2="33.7377" gradientUnits="userSpaceOnUse">
<stop stop-color="#808080"/>
<stop offset="0.9677" stop-color="#E5E5E5"/>
</linearGradient>
<radialGradient id="paint9_radial" cx="0" cy="0" r="1" gradientUnits="userSpaceOnUse" gradientTransform="translate(60.1042 37.9682) scale(2.57689 2.56205)">
<stop offset="0.35311" stop-color="white"/>
<stop offset="0.7573" stop-color="#818181"/>
<stop offset="1" stop-color="#666666"/>
</radialGradient>
<linearGradient id="paint10_linear" x1="61.8592" y1="39.4087" x2="61.8592" y2="35.4298" gradientUnits="userSpaceOnUse">
<stop stop-color="#46494B"/>
<stop offset="0.5021" stop-color="#691418"/>
<stop offset="1" stop-color="#46494B"/>
</linearGradient>
<linearGradient id="paint11_linear" x1="60.1141" y1="34.0427" x2="60.1141" y2="41.8231" gradientUnits="userSpaceOnUse">
<stop stop-color="#808080"/>
<stop offset="0.9677" stop-color="#E5E5E5"/>
</linearGradient>
<radialGradient id="paint12_radial" cx="0" cy="0" r="1" gradientUnits="userSpaceOnUse" gradientTransform="translate(60.1216 37.8954) rotate(-44.263) scale(3.88134 3.88005)">
<stop stop-color="#F7F7F7"/>
<stop offset="0.5272" stop-color="#BFBFBF"/>
<stop offset="1" stop-color="#F7F7F7"/>
</radialGradient>
<linearGradient id="paint13_linear" x1="33.5099" y1="19.0767" x2="46.2857" y2="35.3688" gradientUnits="userSpaceOnUse">
<stop stop-color="#9AA0A4"/>
<stop offset="0.2552" stop-color="#6B7377"/>
<stop offset="0.5356" stop-color="#9AA0A4"/>
<stop offset="0.7615" stop-color="#90979B"/>
<stop offset="1" stop-color="#6B7377"/>
</linearGradient>
<linearGradient id="paint14_linear" x1="39.1516" y1="36.826" x2="38.4062" y2="19.6631" gradientUnits="userSpaceOnUse">
<stop stop-color="#E9E9E9"/>
<stop offset="0.3118" stop-color="#EFEFEF"/>
<stop offset="0.3649" stop-color="#ECECEC"/>
<stop offset="0.4277" stop-color="#DADADA"/>
<stop offset="0.4355" stop-color="#EDEDED"/>
<stop offset="0.9839" stop-color="#ECECEC"/>
</linearGradient>
<linearGradient id="paint15_linear" x1="39.1516" y1="36.826" x2="38.4062" y2="19.6631" gradientUnits="userSpaceOnUse">
<stop stop-color="#E9E9E9"/>
<stop offset="0.3118" stop-color="#EFEFEF"/>
<stop offset="0.3649" stop-color="#ECECEC"/>
<stop offset="0.4277" stop-color="#DADADA"/>
<stop offset="0.4355" stop-color="#EDEDED"/>
<stop offset="0.9839" stop-color="#ECECEC"/>
</linearGradient>
<linearGradient id="paint16_linear" x1="42.6915" y1="39.4368" x2="42.6915" y2="28.7956" gradientUnits="userSpaceOnUse">
<stop stop-color="#DCDCDC"/>
<stop offset="1" stop-color="#C5C8CA"/>
</linearGradient>
<linearGradient id="paint17_linear" x1="76.1068" y1="27.2669" x2="76.1068" y2="36.8089" gradientUnits="userSpaceOnUse">
<stop stop-color="#DCDCDC"/>
<stop offset="1" stop-color="#969696"/>
</linearGradient>
<linearGradient id="paint18_linear" x1="75.2776" y1="32.3887" x2="75.2776" y2="31.7856" gradientUnits="userSpaceOnUse">
<stop stop-color="white"/>
<stop offset="1" stop-color="#C5C8CA"/>
</linearGradient>
<linearGradient id="paint19_linear" x1="38.0171" y1="29.8317" x2="37.9527" y2="28.4962" gradientUnits="userSpaceOnUse">
<stop stop-color="white"/>
<stop offset="1" stop-color="#969696"/>
</linearGradient>
<linearGradient id="paint20_linear" x1="37.9829" y1="29.927" x2="37.9829" y2="28.1562" gradientUnits="userSpaceOnUse">
<stop stop-color="#DCDCDC"/>
<stop offset="1" stop-color="#969696"/>
</linearGradient>
<linearGradient id="paint21_linear" x1="54.2294" y1="29.3093" x2="54.2036" y2="27.9726" gradientUnits="userSpaceOnUse">
<stop stop-color="white"/>
<stop offset="1" stop-color="#969696"/>
</linearGradient>
<linearGradient id="paint22_linear" x1="54.2154" y1="29.298" x2="54.2154" y2="27.5771" gradientUnits="userSpaceOnUse">
<stop stop-color="#DCDCDC"/>
<stop offset="1" stop-color="#969696"/>
</linearGradient>
<linearGradient id="paint23_linear" x1="72.573" y1="30.2728" x2="76.5415" y2="27.9048" gradientUnits="userSpaceOnUse">
<stop stop-color="#640000"/>
<stop offset="0.1677" stop-color="#9A0005"/>
<stop offset="0.3135" stop-color="#C20008"/>
<stop offset="0.4291" stop-color="#DA000A"/>
<stop offset="0.5" stop-color="#E3000B"/>
<stop offset="0.5709" stop-color="#DA000A"/>
<stop offset="0.6865" stop-color="#C20008"/>
<stop offset="0.8323" stop-color="#9A0005"/>
<stop offset="1" stop-color="#640000"/>
</linearGradient>
<linearGradient id="paint24_linear" x1="72.6459" y1="28.1606" x2="75.2792" y2="31.2288" gradientUnits="userSpaceOnUse">
<stop/>
<stop offset="0.4854" stop-color="#A0A0A0"/>
<stop offset="0.8117"/>
</linearGradient>
<linearGradient id="paint25_linear" x1="0.561494" y1="33.6696" x2="3.38826" y2="33.247" gradientUnits="userSpaceOnUse">
<stop stop-color="#333333"/>
<stop offset="1" stop-color="#191919"/>
</linearGradient>
<linearGradient id="paint26_linear" x1="0.686444" y1="33.037" x2="3.5132" y2="32.6143" gradientUnits="userSpaceOnUse">
<stop stop-color="#333333"/>
<stop offset="1" stop-color="#191919"/>
</linearGradient>
<linearGradient id="paint27_linear" x1="5.32166" y1="33.7747" x2="5.32166" y2="30.2958" gradientUnits="userSpaceOnUse">
<stop stop-color="#808080"/>
<stop offset="1"/>
</linearGradient>
<linearGradient id="paint28_linear" x1="6.13132" y1="32.3516" x2="6.13132" y2="31.0319" gradientUnits="userSpaceOnUse">
<stop stop-color="#969696"/>
<stop offset="0.00126487" stop-color="#979797"/>
<stop offset="0.0985365" stop-color="#BCBCBC"/>
<stop offset="0.1768" stop-color="#D3D3D3"/>
<stop offset="0.2258" stop-color="#DCDCDC"/>
<stop offset="0.3028" stop-color="#CACACA"/>
<stop offset="0.4102" stop-color="#B6B6B6"/>
<stop offset="0.4839" stop-color="#AFAFAF"/>
<stop offset="0.8172" stop-color="white"/>
<stop offset="0.8548" stop-color="#DADADA"/>
<stop offset="0.8925" stop-color="#BCBCBC"/>
<stop offset="0.9295" stop-color="#A7A7A7"/>
<stop offset="0.9657" stop-color="#9A9A9A"/>
<stop offset="1" stop-color="#969696"/>
</linearGradient>
<linearGradient id="paint29_linear" x1="7.68018" y1="30.3521" x2="7.46685" y2="33.3706" gradientUnits="userSpaceOnUse">
<stop stop-color="#969696"/>
<stop offset="0.00126487" stop-color="#979797"/>
<stop offset="0.0985365" stop-color="#BCBCBC"/>
<stop offset="0.1768" stop-color="#D3D3D3"/>
<stop offset="0.2258" stop-color="#DCDCDC"/>
<stop offset="0.3028" stop-color="#CACACA"/>
<stop offset="0.4102" stop-color="#B6B6B6"/>
<stop offset="0.4839" stop-color="#AFAFAF"/>
<stop offset="0.8172" stop-color="white"/>
<stop offset="0.8548" stop-color="#DADADA"/>
<stop offset="0.8925" stop-color="#BCBCBC"/>
<stop offset="0.9295" stop-color="#A7A7A7"/>
<stop offset="0.9657" stop-color="#9A9A9A"/>
<stop offset="1" stop-color="#969696"/>
</linearGradient>
<linearGradient id="paint30_linear" x1="0.959225" y1="32.436" x2="3.23615" y2="32.0956" gradientUnits="userSpaceOnUse">
<stop stop-color="#333333"/>
<stop offset="1" stop-color="#191919"/>
</linearGradient>
<linearGradient id="paint31_linear" x1="1.26234" y1="31.1661" x2="8.89899" y2="31.1661" gradientUnits="userSpaceOnUse">
<stop stop-color="#DCDCDC"/>
<stop offset="1" stop-color="#969696"/>
</linearGradient>
<linearGradient id="paint32_linear" x1="25.5858" y1="28.6193" x2="25.5858" y2="27.1005" gradientUnits="userSpaceOnUse">
<stop stop-color="#B3B3B3"/>
<stop offset="0.2427" stop-color="white"/>
<stop offset="0.4017" stop-color="white"/>
<stop offset="1" stop-color="#B3B3B3"/>
</linearGradient>
<linearGradient id="paint33_linear" x1="26.352" y1="27.2849" x2="26.352" y2="25.7911" gradientUnits="userSpaceOnUse">
<stop stop-color="#B3B3B3"/>
<stop offset="0.2845" stop-color="white"/>
<stop offset="1" stop-color="#B3B3B3"/>
</linearGradient>
<linearGradient id="paint34_linear" x1="26.3846" y1="27.9654" x2="26.3846" y2="27.119" gradientUnits="userSpaceOnUse">
<stop stop-color="#B3B3B3"/>
<stop offset="0.2845" stop-color="white"/>
<stop offset="1" stop-color="#B3B3B3"/>
</linearGradient>
<linearGradient id="paint35_linear" x1="25.0652" y1="27.0476" x2="27.9897" y2="27.0476" gradientUnits="userSpaceOnUse">
<stop stop-color="#EAEAEA"/>
<stop offset="1" stop-color="#BEBEBE"/>
</linearGradient>
</defs>
</svg>
