<svg width="80" height="54" viewBox="0 0 80 54" fill="none" xmlns="http://www.w3.org/2000/svg">
<rect width="80" height="53.3333" fill="white" fill-opacity="0.01"/>
<path d="M40.4444 44.4443C59.3448 44.4443 74.6666 44.0463 74.6666 43.5554C74.6666 43.0645 59.3448 42.6665 40.4444 42.6665C21.544 42.6665 6.22217 43.0645 6.22217 43.5554C6.22217 44.0463 21.544 44.4443 40.4444 44.4443Z" fill="url(#paint0_linear)" fill-opacity="0.6"/>
<g opacity="0.5">
<path d="M61.3814 22.7285C61.2937 22.252 61.0805 21.9762 60.6667 21.7881C60.4661 21.6878 60.2404 21.6251 60.0272 21.6C55.1744 20.9479 51.5882 20.6094 47.701 20.6094C45.5191 20.6094 43.2495 20.7222 40.6037 20.9354C39.8137 20.9981 39.0363 21.136 38.2714 21.3617C34.3591 22.4903 31.7383 23.8571 28.29 26.4151C27.7508 26.8164 27.2994 27.3305 26.9859 27.9449C26.7602 28.3838 26.5972 28.7976 26.4216 29.3619C36.6287 28.296 46.0207 27.6189 58.6729 27.2678C59.0366 27.2553 59.4128 27.2051 59.7639 27.0797C60.441 26.854 60.8046 26.5154 61.068 25.9762C61.1432 25.8132 61.1933 25.6251 61.2059 25.437C61.2435 24.8978 61.3564 23.6815 61.394 23.1925C61.4191 23.0295 61.4065 22.879 61.3814 22.7285ZM47.701 21.4495C50.7606 21.4495 53.6446 21.6752 56.7669 22.0389L56.2152 26.4903C52.1023 26.6157 48.2652 26.7913 44.5034 27.017L45.5818 21.4871C46.3091 21.4495 47.0113 21.4495 47.701 21.4495ZM27.7383 28.3211C27.9891 27.8321 28.3652 27.4057 28.7916 27.0797C32.265 24.5091 34.8105 23.2176 38.5096 22.1517C39.1993 21.9511 39.9265 21.8257 40.6789 21.763C42.0582 21.6501 43.3122 21.5624 44.5034 21.5122L42.9109 27.1048C37.9077 27.4183 32.9923 27.8321 27.7006 28.3713C27.7257 28.3587 27.7257 28.3462 27.7383 28.3211ZM60.5664 23.1047C60.5288 23.5812 60.4284 24.8101 60.3783 25.3493C60.3657 25.4496 60.3532 25.5374 60.3156 25.6001C60.1651 25.901 59.9896 26.1142 59.488 26.2772C59.2372 26.365 58.9488 26.4151 58.6479 26.4151C57.9958 26.4277 57.3438 26.4527 56.6917 26.4778L57.2434 22.1016C58.1087 22.2019 58.999 22.3147 59.9143 22.4401C60.0648 22.4652 60.1902 22.5028 60.3031 22.553C60.4786 22.6408 60.5162 22.6784 60.5538 22.8915C60.5789 22.9417 60.5789 23.0169 60.5664 23.1047Z" fill="#333333"/>
<path d="M44.8789 24.3587C44.7661 23.481 44.277 22.8666 43.8883 22.8791C43.7629 22.8791 43.2488 23.1299 43.2488 23.1299C42.8726 23.318 42.6469 23.97 42.7472 24.7976C42.835 25.5124 43.1485 26.0766 43.4996 26.2396L42.8726 27.5187V27.619L44.5278 27.6691L44.7911 25.7381L44.6532 25.7882C44.8664 25.4622 44.9542 24.9356 44.8789 24.3587Z" fill="#1A1A1A"/>
<path d="M32.6408 29.1118L31.3367 26.0522C31.274 25.9143 31.111 25.839 30.9606 25.9017C30.8226 25.9644 30.7474 26.1275 30.8101 26.2779L31.2113 27.2184L31.0734 27.2811L30.6722 26.3281C30.6471 26.2779 30.5969 26.2403 30.5342 26.2403C30.158 26.2654 28.9292 26.4159 27.4746 26.629V28.9614L31.8258 29.1118L31.7631 28.9739L31.9512 28.9864L32.1016 29.3375C32.1643 29.4755 32.3274 29.5507 32.4778 29.488C32.6408 29.4128 32.7035 29.2498 32.6408 29.1118Z" fill="#262626"/>
</g>
<path d="M25.4055 38.3527C25.4055 39.1928 25.3428 39.8574 25.2801 40.6349L13.2172 40.3088C13.0417 39.6819 12.9163 39.0424 12.9163 38.3527C12.9163 34.9294 15.7125 32.1582 19.1609 32.1582C22.6092 32.1457 25.4055 34.9294 25.4055 38.3527Z" fill="#46494B"/>
<path d="M69.4693 38.5157C69.4693 38.9295 69.4567 39.3057 69.4317 39.6694L69.3314 39.6819L57.3688 40.4719C57.3061 39.8449 57.281 39.2054 57.281 38.5157C57.281 35.0925 60.0146 32.3213 63.3751 32.3213C66.7357 32.3213 69.4693 35.0925 69.4693 38.5157Z" fill="#46494B"/>
<path d="M19.162 33.2495C16.2905 33.2495 13.9707 35.5818 13.9707 38.4408C13.9707 41.3123 16.2905 43.6321 19.162 43.6321C22.0335 43.6321 24.3533 41.3123 24.3533 38.4408C24.3533 35.5818 22.0335 33.2495 19.162 33.2495ZM19.162 42.2653C17.0554 42.2653 15.35 40.56 15.35 38.4534C15.35 36.3467 17.0554 34.6414 19.162 34.6414C21.2686 34.6414 22.974 36.3467 22.974 38.4534C22.974 40.5474 21.2686 42.2653 19.162 42.2653Z" fill="url(#paint1_radial)"/>
<path d="M19.0863 42.4763C21.2816 42.4763 23.0613 40.6967 23.0613 38.5014C23.0613 36.306 21.2816 34.5264 19.0863 34.5264C16.891 34.5264 15.1113 36.306 15.1113 38.5014C15.1113 40.6967 16.891 42.4763 19.0863 42.4763Z" fill="#303030"/>
<path d="M19.0871 41.1731C20.5552 41.1731 21.7454 39.983 21.7454 38.5148C21.7454 37.0466 20.5552 35.8564 19.0871 35.8564C17.6189 35.8564 16.4287 37.0466 16.4287 38.5148C16.4287 39.983 17.6189 41.1731 19.0871 41.1731Z" fill="url(#paint2_radial)"/>
<path d="M21.9328 38.1129C21.8826 37.7618 21.7698 37.4232 21.6068 37.1348C21.519 36.9718 21.3309 36.6959 21.1428 36.4953C20.892 36.232 20.6036 36.0313 20.3027 35.8934C20.265 35.8683 20.2149 35.8934 20.1898 35.931L19.8763 36.4577C19.8136 36.5454 19.8262 36.6834 19.9014 36.7586C20.0268 36.8464 20.1271 36.9216 20.2274 37.0094C20.5033 37.2476 20.7039 37.5611 20.8419 37.8872C20.8419 37.8872 20.8419 37.8872 20.8419 37.8997C20.892 38.0376 20.9422 38.1881 20.9422 38.3386C20.9547 38.5894 20.9422 38.8276 20.8795 39.0784C20.8419 39.2163 20.8042 39.3543 20.7666 39.5047C20.7541 39.6176 20.8168 39.7304 20.9296 39.7681L21.4939 40.0063C21.5315 40.0189 21.5817 40.0063 21.6068 39.9687C21.7322 39.7304 21.9077 39.1787 21.9077 39.1662C21.9704 38.8151 21.9829 38.464 21.9328 38.1129Z" fill="url(#paint3_linear)"/>
<path d="M19.0864 34.6904C16.9798 34.6904 15.2744 36.3958 15.2744 38.5024C15.2744 40.609 16.9798 42.3144 19.0864 42.3144C21.193 42.3144 22.8984 40.609 22.8984 38.5024C22.8984 36.4083 21.193 34.6904 19.0864 34.6904ZM19.0864 41.6247C17.3685 41.6247 15.9766 40.2328 15.9766 38.5149C15.9766 36.797 17.3685 35.4052 19.0864 35.4052C20.8043 35.4052 22.1962 36.797 22.1962 38.5149C22.1962 40.2328 20.8043 41.6247 19.0864 41.6247Z" fill="url(#paint4_radial)"/>
<path d="M20.3406 37.6363L21.7199 36.7961C21.7074 36.7836 20.8171 35.8933 20.8045 35.8808L19.9519 37.2601C19.7262 37.4231 19.4252 37.3103 19.35 37.0093L19.7262 35.4419C19.7136 35.4419 18.4346 35.4419 18.4221 35.4419L18.7982 37.0219C18.7481 37.2977 18.4597 37.4231 18.1963 37.2601L17.3562 35.8808C17.3437 35.8933 16.4534 36.7836 16.4408 36.7961L17.8202 37.6488C17.9832 37.8745 17.8578 38.1629 17.5694 38.2382L16.002 37.862C16.002 37.8745 16.002 39.141 16.002 39.1536L17.5819 38.7774C17.8578 38.8275 17.9832 39.1159 17.8202 39.3793L16.4408 40.2319C16.4534 40.2445 17.3437 41.1348 17.3562 41.1473L18.2089 39.768C18.4346 39.605 18.723 39.7178 18.8108 40.0188L18.4346 41.5987C18.4471 41.5987 19.7011 41.6113 19.7136 41.5987L19.35 40.0188C19.4001 39.7429 19.6885 39.6175 19.9519 39.768L20.8045 41.1473C20.8171 41.1348 21.7074 40.2445 21.7199 40.2319L20.3406 39.3918C20.1776 39.1661 20.2904 38.8651 20.5914 38.7899L22.1588 39.1661C22.1588 39.1536 22.1588 37.8871 22.1588 37.8745L20.5914 38.2507C20.303 38.188 20.1776 37.8996 20.3406 37.6363Z" fill="url(#paint5_radial)"/>
<path d="M20.1279 37.7874L21.8834 36.4833C21.7831 36.3579 21.2439 35.8313 21.1185 35.7184L19.8019 37.4739C19.6138 37.6119 19.3755 37.5115 19.3128 37.2607L19.6263 35.0914C19.4633 35.0789 18.6984 35.0789 18.5479 35.0914L18.8614 37.2607C18.8238 37.4865 18.5855 37.5868 18.3598 37.4614L17.0557 35.7059C16.9303 35.8062 16.3911 36.3454 16.2908 36.4708L18.0463 37.7874C18.1843 37.9755 18.084 38.2137 17.8332 38.2764L15.6764 37.9755C15.6639 38.1385 15.6639 38.8909 15.6764 39.0539L17.8457 38.7404C18.0714 38.778 18.1717 39.0163 18.0463 39.242L16.2908 40.5461C16.3786 40.6589 16.9178 41.1981 17.0557 41.311L18.3724 39.5555C18.5605 39.4175 18.7987 39.5178 18.8614 39.7561L18.5479 41.9254C18.6984 41.9379 19.4633 41.9379 19.6263 41.9254L19.3128 39.7561C19.3504 39.5178 19.5887 39.4175 19.8019 39.5555L21.1185 41.311C21.2439 41.2232 21.7705 40.6715 21.8834 40.5461L20.1279 39.242C19.9899 39.0539 20.0903 38.8156 20.3285 38.7404L22.4978 39.0539C22.5104 38.8909 22.5104 38.126 22.4978 37.9755L20.3285 38.289C20.0903 38.2514 19.9899 38.0131 20.1279 37.7874Z" fill="url(#paint6_radial)"/>
<path d="M19.8771 37.963L22.059 36.1323C21.8584 35.8815 21.7204 35.7561 21.4696 35.5429L19.6389 37.7248C19.4884 37.8251 19.3129 37.7498 19.2627 37.5617L19.5135 34.7278C19.1875 34.7028 18.9868 34.6902 18.6859 34.7278L18.9367 37.5743C18.9116 37.7498 18.7235 37.8251 18.5605 37.7248L16.7297 35.5429C16.4664 35.7561 16.341 35.8815 16.1404 36.1323L18.3222 37.963C18.4226 38.1135 18.3473 38.289 18.1592 38.3392L15.3253 38.0884C15.2877 38.4144 15.2877 38.6025 15.3253 38.916L18.1718 38.6652C18.3473 38.6903 18.4226 38.8784 18.3222 39.0414L16.1404 40.8721C16.3285 41.0979 16.4664 41.2483 16.7297 41.4615L18.5354 39.3047C18.6859 39.2044 18.8614 39.2796 18.9116 39.4677L18.6608 42.3016C18.9743 42.3393 19.1749 42.3267 19.4884 42.3016L19.2376 39.4677C19.2627 39.2922 19.4508 39.2169 19.6138 39.3047L21.4446 41.4866C21.6953 41.2985 21.8207 41.148 22.0339 40.8972L19.8771 39.0539C19.7768 38.9035 19.8521 38.7279 20.0276 38.6778L22.8615 38.9285C22.8991 38.6025 22.8866 38.4019 22.8615 38.1009L20.0276 38.3517C19.8521 38.3141 19.7768 38.126 19.8771 37.963Z" fill="url(#paint7_radial)"/>
<path d="M63.4628 42.4153C65.6581 42.4153 67.4378 40.6356 67.4378 38.4403C67.4378 36.245 65.6581 34.4653 63.4628 34.4653C61.2675 34.4653 59.4878 36.245 59.4878 38.4403C59.4878 40.6356 61.2675 42.4153 63.4628 42.4153Z" fill="#303030"/>
<path d="M63.4638 33.2495C60.5922 33.2495 58.2725 35.5818 58.2725 38.4408C58.2725 41.3123 60.5922 43.6321 63.4638 43.6321C66.3353 43.6321 68.6551 41.3123 68.6551 38.4408C68.6551 35.5818 66.3353 33.2495 63.4638 33.2495ZM63.4638 42.2653C61.3572 42.2653 59.6518 40.56 59.6518 38.4534C59.6518 36.3467 61.3572 34.6414 63.4638 34.6414C65.5704 34.6414 67.2757 36.3467 67.2757 38.4534C67.2757 40.5474 65.5704 42.2653 63.4638 42.2653Z" fill="url(#paint8_radial)"/>
<path d="M63.5307 40.37C64.5626 40.37 65.3991 39.5335 65.3991 38.5017C65.3991 37.4698 64.5626 36.6333 63.5307 36.6333C62.4989 36.6333 61.6624 37.4698 61.6624 38.5017C61.6624 39.5335 62.4989 40.37 63.5307 40.37Z" fill="url(#paint9_radial)"/>
<path d="M63.5312 41.1727C64.9993 41.1727 66.1895 39.9825 66.1895 38.5143C66.1895 37.0461 64.9993 35.856 63.5312 35.856C62.063 35.856 60.8728 37.0461 60.8728 38.5143C60.8728 39.9825 62.063 41.1727 63.5312 41.1727Z" fill="url(#paint10_radial)"/>
<path d="M66.3769 38.1124C66.3267 37.7613 66.2139 37.4227 66.0509 37.1343C65.9631 36.9713 65.775 36.6954 65.5869 36.4948C65.3361 36.2315 65.0477 36.0308 64.7468 35.8929C64.7091 35.8678 64.659 35.8929 64.6339 35.9305L64.3204 36.4572C64.2577 36.545 64.2703 36.6829 64.3455 36.7581C64.4709 36.8459 64.5712 36.9211 64.6715 37.0089C64.9474 37.2472 65.148 37.5606 65.286 37.8867C65.286 37.8867 65.286 37.8867 65.286 37.8992C65.3361 38.0371 65.3863 38.1876 65.3863 38.3381C65.3988 38.5889 65.3863 38.8271 65.3236 39.0779C65.286 39.2158 65.2483 39.3538 65.2107 39.5043C65.1982 39.6171 65.2609 39.73 65.3737 39.7676L65.938 40.0058C65.9756 40.0184 66.0258 40.0058 66.0509 39.9682C66.1762 39.73 66.3518 39.1782 66.3518 39.1657C66.4145 38.8146 66.427 38.4635 66.3769 38.1124Z" fill="url(#paint11_linear)"/>
<path d="M63.5307 34.6899C61.4241 34.6899 59.7188 36.3953 59.7188 38.5019C59.7188 40.6085 61.4241 42.3139 63.5307 42.3139C65.6373 42.3139 67.3427 40.6085 67.3427 38.5019C67.3427 36.4078 65.6373 34.6899 63.5307 34.6899ZM63.5307 41.6242C61.8128 41.6242 60.421 40.2324 60.421 38.5145C60.421 36.7966 61.8128 35.4047 63.5307 35.4047C65.2486 35.4047 66.6405 36.7966 66.6405 38.5145C66.6405 40.2324 65.2486 41.6242 63.5307 41.6242Z" fill="url(#paint12_radial)"/>
<path d="M64.7849 37.6358L66.1642 36.7957C66.1517 36.7831 65.2614 35.8928 65.2489 35.8803L64.3962 37.2596C64.1705 37.4226 63.8695 37.3098 63.7943 37.0088L64.1705 35.4414C64.1579 35.4414 62.8789 35.4414 62.8664 35.4414L63.2426 37.0214C63.1924 37.2972 62.904 37.4226 62.6407 37.2596L61.8005 35.8803C61.788 35.8928 60.8977 36.7831 60.8852 36.7957L62.2645 37.6483C62.4275 37.874 62.3021 38.1625 62.0137 38.2377L60.4463 37.8615C60.4463 37.874 60.4463 39.1405 60.4463 39.1531L62.0263 38.7769C62.3021 38.827 62.4275 39.1154 62.2645 39.3788L60.8852 40.2315C60.8977 40.244 61.788 41.1343 61.8005 41.1468L62.6532 39.7675C62.8789 39.6045 63.1673 39.7173 63.2551 40.0183L62.8789 41.5982C62.8915 41.5982 64.1454 41.6108 64.1579 41.5982L63.7943 40.0183C63.8445 39.7424 64.1329 39.617 64.3962 39.7675L65.2489 41.1468C65.2614 41.1343 66.1517 40.244 66.1642 40.2315L64.7849 39.3913C64.6219 39.1656 64.7348 38.8647 65.0357 38.7894L66.6031 39.1656C66.6031 39.1531 66.6031 37.8866 66.6031 37.874L65.0357 38.2502C64.7473 38.1875 64.6219 37.8991 64.7849 37.6358Z" fill="url(#paint13_radial)"/>
<path d="M64.572 37.7869L66.3275 36.4828C66.2272 36.3574 65.688 35.8308 65.5626 35.7179L64.2459 37.4734C64.0579 37.6114 63.8196 37.511 63.7569 37.2603L64.0704 35.0909C63.9074 35.0784 63.1425 35.0784 62.992 35.0909L63.3055 37.2603C63.2679 37.486 63.0296 37.5863 62.8039 37.4609L61.4998 35.7054C61.3744 35.8057 60.8352 36.3449 60.7349 36.4703L62.4904 37.7869C62.6284 37.975 62.528 38.2133 62.2773 38.276L60.1205 37.975C60.1079 38.138 60.1079 38.8904 60.1205 39.0534L62.2898 38.7399C62.5155 38.7775 62.6158 39.0158 62.4904 39.2415L60.7349 40.5456C60.8227 40.6584 61.3619 41.1976 61.4998 41.3105L62.8165 39.555C63.0045 39.417 63.2428 39.5174 63.3055 39.7556L62.992 41.9249C63.1425 41.9374 63.9074 41.9374 64.0704 41.9249L63.7569 39.7556C63.7945 39.5174 64.0328 39.417 64.2459 39.555L65.5626 41.3105C65.688 41.2227 66.2146 40.671 66.3275 40.5456L64.572 39.2415C64.434 39.0534 64.5343 38.8151 64.7726 38.7399L66.9419 39.0534C66.9544 38.8904 66.9544 38.1255 66.9419 37.975L64.7726 38.2885C64.5343 38.2509 64.434 38.0126 64.572 37.7869Z" fill="url(#paint14_radial)"/>
<path d="M64.3212 37.9625L66.5031 36.1318C66.3024 35.881 66.1645 35.7556 65.9137 35.5424L64.083 37.7243C63.9325 37.8246 63.757 37.7493 63.7068 37.5613L63.9576 34.7274C63.6316 34.7023 63.4309 34.6897 63.13 34.7274L63.3808 37.5738C63.3557 37.7493 63.1676 37.8246 63.0046 37.7243L61.1738 35.5424C60.9105 35.7556 60.7851 35.881 60.5845 36.1318L62.7663 37.9625C62.8667 38.113 62.7914 38.2885 62.6033 38.3387L59.7694 38.0879C59.7318 38.4139 59.7318 38.602 59.7694 38.9155L62.6159 38.6647C62.7914 38.6898 62.8667 38.8779 62.7663 39.0409L60.5845 40.8717C60.7726 41.0974 60.9105 41.2478 61.1738 41.461L62.9795 39.3042C63.13 39.2039 63.3055 39.2792 63.3557 39.4672L63.1049 42.3011C63.4184 42.3388 63.619 42.3262 63.9325 42.3011L63.6817 39.4672C63.7068 39.2917 63.8949 39.2165 64.0579 39.3042L65.8886 41.4861C66.1394 41.298 66.2648 41.1475 66.478 40.8967L64.3212 39.0534C64.2209 38.903 64.2961 38.7274 64.4717 38.6773L67.3056 38.928C67.3432 38.602 67.3307 38.4014 67.3056 38.1004L64.4717 38.3512C64.2961 38.3136 64.2209 38.1255 64.3212 37.9625Z" fill="url(#paint15_radial)"/>
<path d="M25.2801 26.7036L25.2676 26.7162C24.8663 26.9544 24.4275 27.1049 23.9635 27.1425L23.4243 27.1926C23.6626 27.0547 23.8883 26.9168 24.114 26.7788C24.4275 26.7914 24.7786 26.7663 25.2801 26.7036Z" fill="#6B7377"/>
<path opacity="0.4" d="M72.2778 26.3898C71.375 26.3396 70.7856 26.3145 69.8452 26.0637L65.168 22.4022L67.5881 22.2769C69.4314 23.7565 70.8358 24.9854 72.2778 26.3898Z" fill="#B2B6B9"/>
<path opacity="0.4" d="M35.901 21.3375C31.8382 23.0554 28.741 24.6479 25.2676 26.7169C24.8663 26.9551 24.4275 27.1056 23.9635 27.1432L23.4243 27.1934C28.3147 24.209 32.1141 22.3281 35.7129 21.1996L35.8759 21.187C36.0891 21.187 36.1016 21.2497 35.901 21.3375Z" fill="#B2B6B9"/>
<path d="M47.876 20.7225C51.9388 20.7225 55.7006 21.0986 60.0894 21.6504C60.3026 21.6755 60.4907 21.7256 60.6537 21.8009C61.0048 21.9639 61.1552 22.152 61.2305 22.5031C61.2556 22.6034 61.2556 22.7162 61.243 22.8542C61.2054 23.3056 61.1051 24.4341 61.0549 24.9482C61.0424 25.1113 61.0048 25.2492 60.9421 25.362C60.7038 25.826 60.3653 26.0893 59.7885 26.2774C59.4875 26.3777 59.1489 26.4279 58.7728 26.4404C47.224 26.7414 38.0201 27.2931 27.0983 28.3464C27.2362 27.9953 27.3616 27.7069 27.5246 27.431C27.8255 26.9044 28.2393 26.4404 28.7409 26.0893C32.252 23.6441 34.8225 22.4278 38.5843 21.4121C39.3116 21.2115 40.0765 21.0861 40.854 21.0234C43.5123 20.8102 45.7443 20.7225 47.876 20.7225ZM47.876 20.4717C45.7067 20.4717 43.4496 20.572 40.8289 20.7726C40.0515 20.8353 39.274 20.9607 38.5091 21.1739C34.6219 22.2272 32.0262 23.5062 28.5904 25.8887C28.0638 26.2523 27.6124 26.7414 27.2989 27.3056C27.0732 27.7069 26.9102 28.1082 26.7346 28.6223C36.879 27.6317 46.1958 27.0047 58.7728 26.6787C59.1364 26.6661 59.5 26.616 59.8511 26.5031C60.5157 26.29 60.8919 25.9765 61.1552 25.4749C61.2305 25.3244 61.2806 25.1489 61.2932 24.9733C61.3308 24.4717 61.4311 23.3307 61.4813 22.8792C61.4938 22.7413 61.4938 22.6034 61.4687 22.4654C61.381 22.014 61.1678 21.7758 60.754 21.5877C60.5534 21.4999 60.3402 21.4372 60.1145 21.4121C55.3119 20.7977 51.7382 20.4717 47.876 20.4717Z" fill="url(#paint16_linear)" stroke="black" stroke-width="0.367" stroke-miterlimit="10"/>
<path d="M47.362 20.7222L46.6974 26.879C46.1833 26.9041 45.6691 26.9292 45.155 26.9542L46.3714 20.7222C46.7099 20.7222 47.0359 20.7222 47.362 20.7222Z" fill="url(#paint17_linear)"/>
<path d="M46.3839 20.7354L45.1676 26.9674C44.641 26.9925 44.1143 27.0301 43.5876 27.0552L45.3808 20.7604C45.7068 20.7479 46.0454 20.7354 46.3839 20.7354Z" fill="url(#paint18_linear)"/>
<path d="M30.3335 25.0234L30.0325 28.0705C29.067 28.1583 28.1015 28.2461 27.1108 28.3464C27.2488 27.9953 27.3742 27.7069 27.5246 27.431C27.8256 26.9043 28.2394 26.4404 28.741 26.0893C29.2927 25.7006 29.8193 25.3495 30.3335 25.0234Z" fill="#1A1A1A"/>
<path d="M73.6071 31.895V28.8605C73.6071 28.1206 73.3061 27.4059 72.7795 26.8792C72.6039 26.7162 72.4409 26.5532 72.2779 26.3902C71.3751 26.3401 70.7857 26.315 69.8453 26.0642L65.1681 22.4027L67.5882 22.2773L67.9267 21.9387C67.9894 21.876 68.0145 21.7757 67.9769 21.6879C67.9518 21.6252 67.8891 21.5751 67.8264 21.5625C60.8044 20.3211 55.6883 19.7193 46.9358 19.6816C42.7853 19.6816 39.3495 20.0578 35.7005 21.2114L35.8635 21.1989C36.0892 21.1864 36.1018 21.2491 35.8886 21.3368C31.8258 23.0547 28.7286 24.6472 25.2552 26.7162C24.8539 26.9545 24.4151 27.105 23.9511 27.1426L23.4119 27.1927L23.3492 27.2053C23.0357 27.2304 22.7348 27.2554 22.4338 27.293C12.2769 28.2586 5.78153 30.8292 6.24549 36.1082C6.25803 36.1835 6.32073 36.2336 6.38342 36.2336H6.89754L6.92262 37.7384L6.38342 38.8167C6.17025 39.2556 6.45866 39.7697 6.9477 39.8074L12.6155 40.2588L13.1171 40.2964H13.2174C13.0418 39.6694 12.9164 39.0299 12.9164 38.3402C12.9164 34.917 15.7127 32.1458 19.1611 32.1458C22.6094 32.1458 25.4057 34.917 25.4057 38.3402C25.4057 39.1804 25.343 39.845 25.2803 40.6224H25.3681H25.8069L56.8043 40.4719H57.2683L57.3686 40.4594C57.3059 39.8324 57.2808 39.1929 57.2808 38.5033C57.2808 35.08 60.0144 32.3088 63.3749 32.3088C66.7355 32.3088 69.4691 35.08 69.4691 38.5033C69.4691 38.9171 69.4565 39.2932 69.4315 39.6569L69.9832 39.5942L72.0647 39.3434C72.4409 39.2932 72.792 39.1428 73.0679 38.892L73.9456 38.0769C74.3344 37.7384 74.5851 37.2619 74.6228 36.7603C74.7482 34.5784 74.6604 33.0862 73.6071 31.895ZM61.494 22.8792C61.4564 23.3306 61.3561 24.4591 61.3059 24.9733C61.2934 25.1488 61.2432 25.3244 61.168 25.4748C60.9047 25.9764 60.5285 26.3024 59.8639 26.5031C59.5128 26.6159 59.1492 26.6661 58.7855 26.6786C46.2211 26.9921 36.8918 27.6316 26.7474 28.6222C26.9229 28.1081 27.086 27.7068 27.3117 27.3056C27.6251 26.7413 28.0766 26.2523 28.6032 25.8886C32.0265 23.5062 34.6347 22.2271 38.5219 21.1738C39.2742 20.9732 40.0517 20.8353 40.8417 20.7726C48.1396 20.2083 52.6161 20.4465 60.1272 21.3995C60.3529 21.4246 60.5661 21.4748 60.7667 21.5751C61.168 21.7632 61.3812 22.0014 61.4815 22.4528C61.494 22.5908 61.5066 22.7413 61.494 22.8792Z" fill="white"/>
<mask id="mask0" mask-type="alpha" maskUnits="userSpaceOnUse" x="6" y="19" width="69" height="22">
<path d="M73.6071 31.895V28.8605C73.6071 28.1206 73.3061 27.4059 72.7795 26.8792C72.6039 26.7162 72.4409 26.5532 72.2779 26.3902C71.3751 26.3401 70.7857 26.315 69.8453 26.0642L65.1681 22.4027L67.5882 22.2773L67.9267 21.9387C67.9894 21.876 68.0145 21.7757 67.9769 21.6879C67.9518 21.6252 67.8891 21.5751 67.8264 21.5625C60.8044 20.3211 55.6883 19.7193 46.9358 19.6816C42.7853 19.6816 39.3495 20.0578 35.7005 21.2114L35.8635 21.1989C36.0892 21.1864 36.1018 21.2491 35.8886 21.3368C31.8258 23.0547 28.7286 24.6472 25.2552 26.7162C24.8539 26.9545 24.4151 27.105 23.9511 27.1426L23.4119 27.1927L23.3492 27.2053C23.0357 27.2304 22.7348 27.2554 22.4338 27.293C12.2769 28.2586 5.78153 30.8292 6.24549 36.1082C6.25803 36.1835 6.32073 36.2336 6.38342 36.2336H6.89754L6.92262 37.7384L6.38342 38.8167C6.17025 39.2556 6.45866 39.7697 6.9477 39.8074L12.6155 40.2588L13.1171 40.2964H13.2174C13.0418 39.6694 12.9164 39.0299 12.9164 38.3402C12.9164 34.917 15.7127 32.1458 19.1611 32.1458C22.6094 32.1458 25.4057 34.917 25.4057 38.3402C25.4057 39.1804 25.343 39.845 25.2803 40.6224H25.3681H25.8069L56.8043 40.4719H57.2683L57.3686 40.4594C57.3059 39.8324 57.2808 39.1929 57.2808 38.5033C57.2808 35.08 60.0144 32.3088 63.3749 32.3088C66.7355 32.3088 69.4691 35.08 69.4691 38.5033C69.4691 38.9171 69.4565 39.2932 69.4315 39.6569L69.9832 39.5942L72.0647 39.3434C72.4409 39.2932 72.792 39.1428 73.0679 38.892L73.9456 38.0769C74.3344 37.7384 74.5851 37.2619 74.6228 36.7603C74.7482 34.5784 74.6604 33.0862 73.6071 31.895ZM61.494 22.8792C61.4564 23.3306 61.3561 24.4591 61.3059 24.9733C61.2934 25.1488 61.2432 25.3244 61.168 25.4748C60.9047 25.9764 60.5285 26.3024 59.8639 26.5031C59.5128 26.6159 59.1492 26.6661 58.7855 26.6786C46.2211 26.9921 36.8918 27.6316 26.7474 28.6222C26.9229 28.1081 27.086 27.7068 27.3117 27.3056C27.6251 26.7413 28.0766 26.2523 28.6032 25.8886C32.0265 23.5062 34.6347 22.2271 38.5219 21.1738C39.2742 20.9732 40.0517 20.8353 40.8417 20.7726C48.1396 20.2083 52.6161 20.4465 60.1272 21.3995C60.3529 21.4246 60.5661 21.4748 60.7667 21.5751C61.168 21.7632 61.3812 22.0014 61.4815 22.4528C61.494 22.5908 61.5066 22.7413 61.494 22.8792Z" fill="white"/>
</mask>
<g mask="url(#mask0)">
<path d="M9.21128 36.6124L7.74737 37.4871L5.55298 43.1925L76.8394 40.8727V28.396L27.6096 31.0063C21.1122 31.3508 14.7968 33.2751 9.21128 36.6124Z" fill="#9AA0A4" fill-opacity="0.15"/>
<path d="M19.5972 34.3526L5.61578 42.0643L3.42139 46.4531L76.4633 45.0738L76.9649 31.8447L19.5972 34.3526Z" fill="#9AA0A4" fill-opacity="0.15"/>
</g>
<path d="M42.7089 30.0331C42.7374 30.6815 42.2046 30.8073 41.6052 30.8363C41.0059 30.8654 40.4921 30.8073 40.454 30.1493C40.4255 29.5009 40.9297 29.3751 41.5291 29.3461C42.138 29.3074 42.6803 29.3751 42.7089 30.0331Z" fill="url(#paint19_linear)"/>
<path d="M42.4582 29.9804C42.4781 30.4705 42.0695 30.5587 41.6011 30.5881C41.1327 30.6077 40.734 30.5685 40.7041 30.0686C40.6842 29.5785 41.0729 29.4903 41.5413 29.4707C42.0097 29.4413 42.4283 29.4805 42.4582 29.9804Z" fill="url(#paint20_linear)"/>
<path d="M43.5877 29.8528C43.53 29.8396 43.1354 29.7212 42.7024 29.7146C42.2308 29.708 42.0961 29.7475 41.5091 29.7672C40.9221 29.787 40.7777 29.7607 40.3158 29.7936C39.8924 29.8265 39.5074 30.0142 39.4497 30.0274C40.0175 29.9813 40.72 29.9217 41.5091 29.902C42.2886 29.8822 43.0199 29.8462 43.5877 29.8528Z" fill="#DCDCDC"/>
<path d="M43.5257 30.164C43.6118 30.0246 43.5831 29.8482 43.5831 29.8482C43.5831 29.8482 43.5831 29.8482 43.5735 29.8482C43.0091 29.8296 42.2915 29.8389 41.5165 29.876C40.7416 29.9132 40.024 29.9689 39.4595 30.0339C39.45 30.0339 39.45 30.0339 39.45 30.0339C39.45 30.0339 39.4404 30.2104 39.5361 30.3404C40.0814 30.2476 40.7798 30.1733 41.5261 30.1361C42.2819 30.1175 42.9708 30.1268 43.5257 30.164Z" fill="#DCDDDE"/>
<path d="M39.8084 30.537C40.144 30.6183 40.5728 30.5835 40.5728 30.5835C40.5728 30.5835 40.6008 30.3048 41.5237 30.2467C42.4465 30.1886 42.4931 30.4674 42.4931 30.4674C42.4931 30.4674 42.9219 30.4557 43.2575 30.328C43.3601 30.2931 43.4253 30.2118 43.4626 30.1305C42.9219 30.0841 42.2414 30.0725 41.5143 30.1189C40.7872 30.1654 40.044 30.224 39.5127 30.3401C39.5686 30.4098 39.7059 30.5138 39.8084 30.537Z" fill="#C7C9CB"/>
<path d="M58.2584 29.2812C58.287 29.9295 57.7542 30.0553 57.1548 30.0844C56.5554 30.1134 56.0417 30.0553 56.0036 29.3973C55.9751 28.749 56.4793 28.6232 57.0787 28.5941C57.6876 28.5554 58.2299 28.6232 58.2584 29.2812Z" fill="url(#paint21_linear)"/>
<path d="M58.0077 29.2284C58.0277 29.7185 57.6191 29.8067 57.1506 29.8361C56.6822 29.8558 56.2836 29.8165 56.2537 29.3166C56.2337 28.8265 56.6224 28.7383 57.0908 28.7187C57.5593 28.6893 57.9778 28.7285 58.0077 29.2284Z" fill="url(#paint22_linear)"/>
<path d="M59.1373 29.1008C59.0795 29.0877 58.685 28.9692 58.2519 28.9626C57.7804 28.9561 57.6457 28.9955 57.0586 29.0153C56.4716 29.035 56.3273 29.0087 55.8654 29.0416C55.4419 29.0745 55.057 29.2622 54.9993 29.2754C55.567 29.2293 56.2695 29.1697 57.0586 29.15C57.8381 29.1303 58.5695 29.0943 59.1373 29.1008Z" fill="#DCDCDC"/>
<path d="M59.0753 29.412C59.1614 29.2727 59.1327 29.0962 59.1327 29.0962C59.1327 29.0962 59.1327 29.0962 59.1231 29.0962C58.5586 29.0776 57.8411 29.0869 57.0661 29.1241C56.2911 29.1612 55.5736 29.217 55.0091 29.282C54.9995 29.282 54.9995 29.282 54.9995 29.282C54.9995 29.282 54.99 29.4584 55.0856 29.5885C55.631 29.4956 56.3294 29.4213 57.0757 29.3841C57.8315 29.3656 58.5204 29.3749 59.0753 29.412Z" fill="#DCDDDE"/>
<path d="M55.358 29.7851C55.6936 29.8664 56.1224 29.8316 56.1224 29.8316C56.1224 29.8316 56.1504 29.5528 57.0732 29.4947C57.9961 29.4367 58.0427 29.7154 58.0427 29.7154C58.0427 29.7154 58.4715 29.7038 58.8071 29.576C58.9096 29.5412 58.9749 29.4599 59.0122 29.3786C58.4715 29.3321 57.791 29.3205 57.0639 29.367C56.3368 29.4134 55.5936 29.472 55.0623 29.5882C55.1182 29.6579 55.2555 29.7619 55.358 29.7851Z" fill="#C7C9CB"/>
<path d="M10.9481 36.6474C10.7976 37.4248 10.5343 38.0894 10.0327 38.6913C9.85718 38.8919 9.61893 39.0173 9.3556 39.0173H7.80072C7.63771 39.0173 7.51231 38.8669 7.54993 38.7164C7.80072 37.4875 8.92926 36.7603 10.8353 36.1709C10.9481 36.2587 10.9983 36.4217 10.9481 36.6474Z" fill="#B3B3B3"/>
<path d="M7.66258 38.7042C7.63751 38.8547 7.7629 39.0052 7.91337 39.0052H7.27386C7.11085 39.0052 6.98546 38.8547 7.02307 38.7042C7.27386 37.4252 8.4651 36.7104 10.4839 36.1086C10.6846 36.0459 10.8476 36.0709 10.9479 36.1587C9.04192 36.7481 7.91337 37.4754 7.66258 38.7042Z" fill="#6B7377"/>
<path d="M8.3772 36.0454C7.838 36.384 7.37405 36.9232 6.88501 37.826L6.92263 37.7508L6.89755 36.246L8.3772 36.0454Z" fill="#B3B3B3"/>
<path d="M25.92 38.3406C25.92 39.1807 25.8573 39.8704 25.7946 40.6228H25.3557H25.268C25.3306 39.8453 25.3933 39.1807 25.3933 38.3406C25.3933 34.9173 22.5971 32.1461 19.1487 32.1461C15.7004 32.1461 12.9041 34.9173 12.9041 38.3406C12.9041 39.0177 13.0295 39.6698 13.2051 40.2967H13.1047L12.6032 40.2591C12.4527 39.6447 12.3398 39.0303 12.3398 38.3657C12.3398 34.6289 15.3869 31.6069 19.1487 31.6069C22.9231 31.6069 25.92 34.6038 25.92 38.3406Z" fill="url(#paint23_linear)" fill-opacity="0.8"/>
<path d="M70.0081 38.7413C70.0081 39.0422 69.9956 39.3181 69.9831 39.5939L69.4313 39.6566C69.4564 39.293 69.4689 38.9168 69.4689 38.503C69.4689 35.0798 66.7354 32.3085 63.3748 32.3085C60.0142 32.3085 57.2807 35.0798 57.2807 38.503C57.2807 39.1927 57.2932 39.8322 57.3684 40.4591L57.2681 40.4717H56.8042C56.754 39.8698 56.7415 39.2554 56.7415 38.6033C56.7415 34.7663 59.613 31.7944 63.3873 31.7944C67.1492 31.7944 70.0081 34.9042 70.0081 38.7413Z" fill="url(#paint24_linear)" fill-opacity="0.8"/>
<path d="M72.3154 26.4157C71.4627 26.3655 70.8106 26.3404 69.8451 26.0771H69.8326L65.1052 22.378L67.588 22.2651L67.6382 22.3028L65.2306 22.4156L69.8577 26.0395C70.8106 26.2903 71.3749 26.3154 72.2527 26.3655L72.3154 26.4157Z" fill="black" fill-opacity="0.4"/>
<path d="M14.1201 29.9885V29.9384C19.3365 29.349 23.2237 28.9352 26.7473 28.5967V28.6468C23.2237 28.9854 19.3365 29.3992 14.1201 29.9885Z" fill="black" fill-opacity="0.4"/>
<path d="M23.4241 27.2048L23.4868 27.1672L23.9633 27.1296C24.4272 27.0794 24.8661 26.9415 25.2548 26.7033C28.8536 24.5465 31.9383 22.9791 35.8882 21.3113C36.0011 21.2612 36.0262 21.2361 36.0262 21.2361C36.0262 21.2361 36.0011 21.2235 35.9258 21.2235C35.9133 21.2235 35.6625 21.2235 35.6625 21.2235L35.8004 21.1734H35.8631C36.0387 21.1608 36.0638 21.1985 36.0638 21.2235C36.0763 21.2486 36.0512 21.2862 35.9008 21.3615C31.9509 23.0292 28.8662 24.5841 25.2799 26.7409C24.8786 26.9791 24.4272 27.1296 23.9633 27.1672L23.4241 27.2048Z" fill="black" fill-opacity="0.4"/>
<path d="M25.3677 39.4308V39.3806L53.2177 39.0671C54.2584 39.0546 55.2114 38.5154 55.7506 37.6251C57.5187 34.7159 58.7099 32.4212 60.4027 28.9353C60.7538 28.2205 60.8541 27.3929 60.6786 26.6155L60.5783 26.139L60.6284 26.1265L60.7288 26.603C60.9043 27.3929 60.804 28.2331 60.4529 28.9604C58.7475 32.4463 57.5688 34.741 55.8008 37.6502C55.249 38.553 54.2835 39.1047 53.2302 39.1173L25.3677 39.4308Z" fill="black" fill-opacity="0.4"/>
<path d="M27.274 39.3931C25.7944 34.3397 25.5812 30.1014 26.7348 28.5967L26.7724 28.6218C25.6188 30.1014 25.832 34.3272 27.3116 39.368L27.274 39.3931Z" fill="black" fill-opacity="0.4"/>
<path d="M22.8224 29.036L22.7722 29.0109L23.65 27.1927L23.7001 27.1802L22.8224 29.036Z" fill="black" fill-opacity="0.4"/>
<path d="M44.4901 39.1927C44.0888 34.2647 44.2142 31.6816 45.092 27.205L46.4086 20.4839L46.4588 20.4964L45.1421 27.2175C44.2644 31.6941 44.139 34.2647 44.5528 39.1927H44.4901Z" fill="black" fill-opacity="0.4"/>
<path opacity="0.5" d="M15.2483 33.5122L12.615 31.8194L12.6401 31.7817L15.2859 33.4871L15.2483 33.5122Z" fill="black" fill-opacity="0.4"/>
<path opacity="0.5" d="M66.8727 33.4365L66.8225 33.3988L68.2645 29.9756H68.3147L66.8727 33.4365Z" fill="black" fill-opacity="0.4"/>
<path d="M7.43641 33.2736V33.2485C7.42387 32.9852 7.42387 32.8222 7.47403 32.6216C7.5618 32.2579 7.77497 31.9068 8.101 31.6435C9.16685 30.7407 11.0979 30.2516 14.1199 29.9381C14.2704 29.9256 14.3707 29.9507 14.4083 30.0259C14.4459 30.1011 14.4083 30.2015 14.308 30.3018C13.5306 31.1545 12.8283 31.7438 11.8754 32.3332C11.4992 32.5589 11.0979 32.7344 10.6716 32.8473C9.79381 33.073 8.52734 33.1733 7.46149 33.2736H7.43641ZM14.1199 29.9883C11.1105 30.2892 9.19192 30.7783 8.12608 31.6811C7.81259 31.9444 7.59942 32.283 7.52419 32.6341C7.47403 32.8222 7.47403 32.9852 7.48657 33.2235C8.53988 33.1231 9.79381 33.0228 10.659 32.7971C11.0854 32.6968 11.4866 32.5213 11.8503 32.2955C12.7907 31.7062 13.4929 31.1168 14.2704 30.2767C14.3582 30.1889 14.3832 30.1011 14.3582 30.051C14.3331 30.0008 14.2453 29.9758 14.1199 29.9883Z" fill="black" fill-opacity="0.4"/>
<path d="M7.93819 32.1205H7.56201L7.59963 32.0703H7.96327L7.93819 32.1205Z" fill="black" fill-opacity="0.4"/>
<path d="M14.1197 29.9637C11.2231 30.2521 9.21683 30.7286 8.11336 31.6565C7.81241 31.9073 7.58671 32.2458 7.49893 32.622C7.44877 32.8227 7.44877 32.9857 7.46131 33.249C8.56478 33.1361 9.80618 33.0358 10.6714 32.8227C11.0977 32.7223 11.499 32.5468 11.8752 32.3085C12.9034 31.669 13.5931 31.0421 14.2953 30.2772C14.4708 30.0891 14.3956 29.9386 14.1197 29.9637Z" fill="url(#paint25_linear)"/>
<path d="M11.9385 32.2716C11.9134 32.2841 11.8884 32.2967 11.8633 32.3217C11.7253 32.4095 11.5749 32.4973 11.4244 32.56H9.98237C9.96984 32.4597 9.9573 32.3594 9.94476 32.2465C9.93222 32.0835 9.91968 31.9205 9.91968 31.7324C9.91968 31.6195 9.91968 31.5067 9.93222 31.3938C9.94476 31.2057 9.9573 31.0427 9.98237 30.9048H11.4369H11.9134C11.9134 30.9675 11.9134 31.0302 11.9009 31.1054C11.8884 31.2433 11.8884 31.3813 11.8884 31.5192C11.8884 31.7324 11.9009 31.9456 11.9134 32.1462C11.926 32.1838 11.926 32.2214 11.9385 32.2716Z" fill="url(#paint26_linear)"/>
<path d="M14.2832 30.2894C14.0951 30.5026 13.8945 30.7032 13.6939 30.8913C13.1923 31.3803 12.6405 31.8192 11.9258 32.2706C11.9258 32.2205 11.9133 32.1829 11.9133 32.1327C11.9007 31.9321 11.8882 31.7314 11.8882 31.5057C11.8882 31.3678 11.8882 31.2173 11.9007 31.0919C11.9007 31.0292 11.9007 30.954 11.9133 30.8913C11.9133 30.8035 11.9258 30.7283 11.9258 30.653C11.9383 30.5151 11.9509 30.3897 11.9509 30.2518C12.5653 30.1389 13.2424 30.0512 14.0073 29.9634H14.2707C14.4211 30.0135 14.4337 30.1389 14.2832 30.2894Z" fill="url(#paint27_linear)"/>
<path d="M14.2831 30.2902C13.5809 31.0551 12.8913 31.6695 11.863 32.3216C11.4994 32.5473 11.0856 32.7228 10.6593 32.8357C9.79404 33.0489 8.55264 33.1492 7.44918 33.262C7.44918 33.1115 7.43664 32.9862 7.44918 32.8733C8.28932 32.7855 9.31755 32.6852 10.0072 32.5097C10.4336 32.4093 10.8348 32.2338 11.211 31.9955C12.2141 31.3686 12.9038 30.7667 13.5809 30.0269C13.7565 30.0018 13.932 29.9892 14.1076 29.9642C14.396 29.9391 14.4712 30.0896 14.2831 30.2902Z" fill="#B2B2B2"/>
<g style="mix-blend-mode:screen">
<path d="M14.1197 29.9637C11.2231 30.2521 9.21683 30.7286 8.11336 31.6565C7.81241 31.9073 7.58671 32.2458 7.49893 32.622C7.44877 32.8227 7.44877 32.9857 7.46131 33.249C8.56478 33.1361 9.80618 33.0358 10.6714 32.8227C11.0977 32.7223 11.499 32.5468 11.8752 32.3085C12.9034 31.669 13.5931 31.0421 14.2953 30.2772C14.4708 30.0891 14.3956 29.9386 14.1197 29.9637Z" fill="url(#paint28_linear)"/>
</g>
<path d="M73.607 28.8604V29.7256L68.2527 29.9889L69.0301 28.1331C69.2935 27.5061 69.8828 27.0923 70.5599 27.0673C71.6383 27.0171 72.4785 27.0923 73.3186 27.6315C73.5067 27.9952 73.607 28.4215 73.607 28.8604Z" fill="#A80500"/>
<path d="M73.6069 28.8605V29.7257L72.8044 29.7633C72.2652 28.8856 72.0395 28.1583 71.9768 27.105C72.4408 27.1802 72.8796 27.3432 73.3185 27.6191C73.5066 27.9953 73.6069 28.4216 73.6069 28.8605Z" fill="#EE0000"/>
<path d="M69.8325 28.9856C69.8325 29.0733 69.8952 29.1486 69.9955 29.1486L72.6664 29.0357C72.7918 29.0357 72.8921 28.9229 72.8921 28.7975V28.5091C72.8921 28.2583 72.679 28.0577 72.4282 28.0577L70.8733 27.9824C70.309 28.0075 69.8701 28.4338 69.8325 28.9856Z" fill="#F0F1F2"/>
<path opacity="0.8" d="M61.494 22.8788C61.4563 23.3302 61.356 24.4588 61.3059 24.9729C61.2933 25.1484 61.2432 25.324 61.1679 25.4745C60.9046 25.976 60.5284 26.3021 59.8638 26.5027C59.5127 26.6156 59.1491 26.6657 58.7855 26.6782C46.221 26.9917 36.8917 27.6312 26.7473 28.6219C26.9229 28.1077 27.0859 27.7065 27.3116 27.3052C27.6251 26.7409 28.0765 26.2519 28.6031 25.8883C32.0264 23.5058 34.6346 22.2268 38.5218 21.1735C39.2742 20.9728 40.0516 20.8349 40.8416 20.7722C48.1395 20.2079 52.6161 20.4462 60.1272 21.3992C60.3529 21.4242 60.566 21.4744 60.7667 21.5747C61.1679 21.7628 61.3811 22.0011 61.4814 22.4525C61.494 22.5904 61.5065 22.7409 61.494 22.8788Z" fill="#B2B6B9"/>
<path d="M57.9203 26.7281L57.4438 26.678L58.1335 21.1606L58.61 21.2108L57.9203 26.7281Z" fill="#6B7377"/>
<path d="M30.334 25.0234L30.033 28.0705C29.0675 28.1583 28.1019 28.2461 27.1113 28.3464C27.2493 27.9953 27.3747 27.7069 27.5251 27.431C27.8261 26.9043 28.2399 26.4404 28.7414 26.0893C29.2932 25.7006 29.8198 25.3495 30.334 25.0234Z" fill="#6B7377"/>
<path d="M31.1359 27.8941C31.1359 27.9944 31.0607 28.0822 30.9604 28.0822C30.6469 28.0947 30.3083 28.0822 29.9447 28.0571C29.7566 28.0446 29.5685 28.0321 29.3929 28.007C29.0293 27.9694 28.7409 27.6684 28.7158 27.3048C28.7158 27.2922 28.7158 27.2671 28.7158 27.2546C28.7033 26.9411 28.7409 26.6903 28.791 26.4897C28.8036 26.4395 28.8161 26.4019 28.8287 26.3518C28.8663 26.264 28.9164 26.1511 29.0042 26.0383C29.1923 25.7624 29.4933 25.5869 29.8193 25.5493C29.9447 25.5367 30.0826 25.5367 30.2331 25.5618C30.3835 25.5869 30.5089 25.637 30.6218 25.6997C30.86 25.8251 31.0105 26.0508 31.0356 26.3142C31.0607 26.5524 31.0858 26.8032 31.0983 27.054C31.1108 27.3549 31.1234 27.6308 31.1359 27.8941Z" fill="url(#paint29_linear)"/>
<path d="M31.1359 27.8941C31.1359 27.9944 31.0607 28.0822 30.9604 28.0822C30.6469 28.0947 30.3083 28.0822 29.9447 28.0571C29.7566 28.0446 29.5685 28.0321 29.3929 28.007C29.0293 27.9694 28.7409 27.6684 28.7158 27.3048C28.7158 27.2922 28.7158 27.2671 28.7158 27.2546C28.7033 26.9411 28.7409 26.6903 28.791 26.4897C28.8036 26.4395 28.8161 26.4019 28.8287 26.3518C28.8663 26.264 28.9164 26.1511 29.0042 26.0383C29.1923 25.7624 29.4933 25.5869 29.8193 25.5493C29.9447 25.5367 30.0826 25.5367 30.2331 25.5618C30.3835 25.5869 30.5089 25.637 30.6218 25.6997C30.86 25.8251 31.0105 26.0508 31.0356 26.3142C31.0607 26.5524 31.0858 26.8032 31.0983 27.054C31.1108 27.3549 31.1234 27.6308 31.1359 27.8941Z" fill="url(#paint30_linear)"/>
<path d="M47.8765 20.7225C51.9393 20.7225 55.7011 21.0986 60.0899 21.6504C60.3031 21.6755 60.4911 21.7256 60.6542 21.8009C61.0053 21.9639 61.1557 22.152 61.231 22.5031C61.256 22.6034 61.256 22.7162 61.2435 22.8542C61.2059 23.3056 61.1056 24.4341 61.0554 24.9482C61.0429 25.1113 61.0053 25.2492 60.9426 25.362C60.7043 25.826 60.3657 26.0893 59.7889 26.2774C59.488 26.3777 59.1494 26.4279 58.7732 26.4404C47.2245 26.7414 38.0206 27.2931 27.0987 28.3464C27.2367 27.9953 27.3621 27.7069 27.5251 27.431C27.826 26.9044 28.2398 26.4404 28.7414 26.0893C32.2524 23.6441 34.823 22.4278 38.5848 21.4121C39.3121 21.2115 40.077 21.0861 40.8545 21.0234C43.5128 20.8102 45.7448 20.7225 47.8765 20.7225ZM47.8765 20.4717C45.7072 20.4717 43.4501 20.572 40.8294 20.7726C40.0519 20.8353 39.2745 20.9607 38.5096 21.1739C34.6224 22.2272 32.0267 23.5062 28.5909 25.8887C28.0643 26.2523 27.6129 26.7414 27.2994 27.3056C27.0737 27.7069 26.9107 28.1082 26.7351 28.6223C36.8795 27.6317 46.1962 27.0047 58.7732 26.6787C59.1369 26.6661 59.5005 26.616 59.8516 26.5031C60.5162 26.29 60.8924 25.9765 61.1557 25.4749C61.231 25.3244 61.2811 25.1489 61.2937 24.9733C61.3313 24.4717 61.4316 23.3307 61.4818 22.8792C61.4943 22.7413 61.4943 22.6034 61.4692 22.4654C61.3814 22.014 61.1683 21.7758 60.7545 21.5877C60.5538 21.4999 60.3407 21.4372 60.115 21.4121C55.3124 20.7977 51.7386 20.4717 47.8765 20.4717Z" fill="#6B7377"/>
<path d="M47.3622 20.7227L46.6976 26.8795C46.1835 26.9046 45.6694 26.9297 45.1553 26.9547L46.3716 20.7227C46.7102 20.7227 47.0362 20.7227 47.3622 20.7227Z" fill="#6B7377"/>
<path d="M46.3842 20.7354L45.1679 26.9674C44.6412 26.9925 44.1145 27.0301 43.5879 27.0552L45.381 20.7604C45.707 20.7479 46.0456 20.7354 46.3842 20.7354Z" fill="#6B7377"/>
<defs>
<linearGradient id="paint0_linear" x1="40.4444" y1="41.3994" x2="40.4444" y2="44.8887" gradientUnits="userSpaceOnUse">
<stop stop-color="#0C0C0C"/>
<stop offset="1" stop-color="white" stop-opacity="0"/>
</linearGradient>
<radialGradient id="paint1_radial" cx="0" cy="0" r="1" gradientUnits="userSpaceOnUse" gradientTransform="translate(19.137 38.4909) rotate(-1.36393) scale(5.26804 5.34971)">
<stop offset="0.708877" stop-color="#3D4346"/>
<stop offset="0.78453" stop-color="#6B7377"/>
<stop offset="0.902378" stop-color="#46494B"/>
<stop offset="1" stop-color="#46494B"/>
</radialGradient>
<radialGradient id="paint2_radial" cx="0" cy="0" r="1" gradientUnits="userSpaceOnUse" gradientTransform="translate(19.0839 38.509) scale(2.65807 2.65673)">
<stop offset="0.5732" stop-color="white"/>
<stop offset="0.7573" stop-color="#818181"/>
<stop offset="1" stop-color="#666666"/>
</radialGradient>
<linearGradient id="paint3_linear" x1="20.8937" y1="40.0017" x2="20.8937" y2="35.8758" gradientUnits="userSpaceOnUse">
<stop stop-color="#46494B"/>
<stop offset="0.5021" stop-color="#691418"/>
<stop offset="1" stop-color="#46494B"/>
</linearGradient>
<radialGradient id="paint4_radial" cx="0" cy="0" r="1" gradientUnits="userSpaceOnUse" gradientTransform="translate(19.0832 38.5079) scale(3.81326)">
<stop offset="0.8536" stop-color="#46494B"/>
<stop offset="1" stop-color="#F1F1F1"/>
</radialGradient>
<radialGradient id="paint5_radial" cx="0" cy="0" r="1" gradientUnits="userSpaceOnUse" gradientTransform="translate(19.0827 38.5098) rotate(-1.60889) scale(3.09113)">
<stop stop-color="#535353"/>
<stop offset="0.5272" stop-color="#515151"/>
<stop offset="1" stop-color="#535353"/>
</radialGradient>
<radialGradient id="paint6_radial" cx="0" cy="0" r="1" gradientUnits="userSpaceOnUse" gradientTransform="translate(19.0878 38.5079) rotate(-22.0511) scale(3.36206)">
<stop stop-color="#A0A0A0"/>
<stop offset="0.5272" stop-color="#858585"/>
<stop offset="1" stop-color="#A0A0A0"/>
</radialGradient>
<radialGradient id="paint7_radial" cx="0" cy="0" r="1" gradientUnits="userSpaceOnUse" gradientTransform="translate(19.0839 38.508) rotate(-45) scale(3.81376)">
<stop stop-color="#F7F7F7"/>
<stop offset="0.5272" stop-color="#BFBFBF"/>
<stop offset="1" stop-color="#F7F7F7"/>
</radialGradient>
<radialGradient id="paint8_radial" cx="0" cy="0" r="1" gradientUnits="userSpaceOnUse" gradientTransform="translate(63.4387 38.4909) rotate(-1.36393) scale(5.26804 5.34971)">
<stop offset="0.708877" stop-color="#3D4346"/>
<stop offset="0.78453" stop-color="#6B7377"/>
<stop offset="0.902378" stop-color="#46494B"/>
<stop offset="1" stop-color="#46494B"/>
</radialGradient>
<radialGradient id="paint9_radial" cx="0" cy="0" r="1" gradientUnits="userSpaceOnUse" gradientTransform="translate(63.5276 38.5072) scale(1.86491)">
<stop offset="0.8368" stop-color="#1A1A1A"/>
<stop offset="1" stop-color="#4D4D4D"/>
</radialGradient>
<radialGradient id="paint10_radial" cx="0" cy="0" r="1" gradientUnits="userSpaceOnUse" gradientTransform="translate(63.528 38.5085) scale(2.65806 2.65673)">
<stop offset="0.5732" stop-color="white"/>
<stop offset="0.7573" stop-color="#818181"/>
<stop offset="1" stop-color="#666666"/>
</radialGradient>
<linearGradient id="paint11_linear" x1="65.3378" y1="40.0012" x2="65.3378" y2="35.8753" gradientUnits="userSpaceOnUse">
<stop stop-color="#46494B"/>
<stop offset="0.5021" stop-color="#691418"/>
<stop offset="1" stop-color="#46494B"/>
</linearGradient>
<radialGradient id="paint12_radial" cx="0" cy="0" r="1" gradientUnits="userSpaceOnUse" gradientTransform="translate(63.5276 38.5074) scale(3.81326)">
<stop offset="0.8536" stop-color="#46494B"/>
<stop offset="1" stop-color="#F1F1F1"/>
</radialGradient>
<radialGradient id="paint13_radial" cx="0" cy="0" r="1" gradientUnits="userSpaceOnUse" gradientTransform="translate(63.527 38.5094) rotate(-1.60889) scale(3.09112)">
<stop stop-color="#535353"/>
<stop offset="0.5272" stop-color="#515151"/>
<stop offset="1" stop-color="#535353"/>
</radialGradient>
<radialGradient id="paint14_radial" cx="0" cy="0" r="1" gradientUnits="userSpaceOnUse" gradientTransform="translate(63.5319 38.5074) rotate(-22.0511) scale(3.36206)">
<stop stop-color="#A0A0A0"/>
<stop offset="0.5272" stop-color="#858585"/>
<stop offset="1" stop-color="#A0A0A0"/>
</radialGradient>
<radialGradient id="paint15_radial" cx="0" cy="0" r="1" gradientUnits="userSpaceOnUse" gradientTransform="translate(63.528 38.5075) rotate(-45) scale(3.81376)">
<stop stop-color="#F7F7F7"/>
<stop offset="0.5272" stop-color="#BFBFBF"/>
<stop offset="1" stop-color="#F7F7F7"/>
</radialGradient>
<linearGradient id="paint16_linear" x1="36.5623" y1="17.8351" x2="52.7514" y2="34.0241" gradientUnits="userSpaceOnUse">
<stop stop-color="white"/>
<stop offset="0.1088" stop-color="#B2B2B2"/>
<stop offset="0.2176" stop-color="white"/>
<stop offset="0.3598" stop-color="#B2B2B2"/>
<stop offset="0.4435" stop-color="white"/>
<stop offset="0.523" stop-color="#B2B2B2"/>
<stop offset="0.5983" stop-color="white"/>
<stop offset="0.6946" stop-color="#B2B2B2"/>
<stop offset="0.7615" stop-color="white"/>
<stop offset="0.8536" stop-color="#B2B2B2"/>
<stop offset="0.9247" stop-color="white"/>
<stop offset="1" stop-color="#B2B2B2"/>
</linearGradient>
<linearGradient id="paint17_linear" x1="46.2625" y1="26.9618" x2="46.2625" y2="20.7192" gradientUnits="userSpaceOnUse">
<stop stop-color="#1A1A1A"/>
<stop offset="0.2845" stop-color="#4D4D4D"/>
<stop offset="0.7866" stop-color="#1A1A1A"/>
</linearGradient>
<linearGradient id="paint18_linear" x1="44.9779" y1="27.0513" x2="44.9779" y2="20.7328" gradientUnits="userSpaceOnUse">
<stop stop-color="#1A1A1A"/>
<stop offset="0.2845" stop-color="#4D4D4D"/>
<stop offset="0.7866" stop-color="#1A1A1A"/>
</linearGradient>
<linearGradient id="paint19_linear" x1="41.6207" y1="30.7989" x2="41.5541" y2="29.4469" gradientUnits="userSpaceOnUse">
<stop stop-color="white"/>
<stop offset="1" stop-color="#969696"/>
</linearGradient>
<linearGradient id="paint20_linear" x1="41.5816" y1="30.8442" x2="41.5816" y2="29.0281" gradientUnits="userSpaceOnUse">
<stop stop-color="#DCDCDC"/>
<stop offset="1" stop-color="#969696"/>
</linearGradient>
<linearGradient id="paint21_linear" x1="57.1703" y1="30.047" x2="57.1037" y2="28.695" gradientUnits="userSpaceOnUse">
<stop stop-color="white"/>
<stop offset="1" stop-color="#969696"/>
</linearGradient>
<linearGradient id="paint22_linear" x1="57.1312" y1="30.0922" x2="57.1312" y2="28.2762" gradientUnits="userSpaceOnUse">
<stop stop-color="#DCDCDC"/>
<stop offset="1" stop-color="#969696"/>
</linearGradient>
<linearGradient id="paint23_linear" x1="19.1362" y1="40.6323" x2="19.1362" y2="31.604" gradientUnits="userSpaceOnUse">
<stop offset="0.1255" stop-color="#6B7377"/>
<stop offset="1" stop-color="#CBCBCB"/>
</linearGradient>
<linearGradient id="paint24_linear" x1="63.3809" y1="40.4809" x2="63.3809" y2="31.7917" gradientUnits="userSpaceOnUse">
<stop offset="0.1255" stop-color="#6B7377"/>
<stop offset="1" stop-color="#CBCBCB"/>
</linearGradient>
<linearGradient id="paint25_linear" x1="7.70441" y1="31.6058" x2="14.3912" y2="31.6058" gradientUnits="userSpaceOnUse">
<stop stop-color="#FAFAFA"/>
<stop offset="1" stop-color="#666666"/>
</linearGradient>
<linearGradient id="paint26_linear" x1="10.9285" y1="32.5579" x2="10.9285" y2="30.8924" gradientUnits="userSpaceOnUse">
<stop stop-color="#4D4D4D"/>
<stop offset="0.1841" stop-color="white"/>
<stop offset="0.4812" stop-color="#808080"/>
<stop offset="0.8201" stop-color="white"/>
<stop offset="1" stop-color="#4D4D4D"/>
</linearGradient>
<linearGradient id="paint27_linear" x1="13.1477" y1="32.2713" x2="13.1477" y2="29.9731" gradientUnits="userSpaceOnUse">
<stop stop-color="#4D4D4D"/>
<stop offset="0.1841" stop-color="white"/>
<stop offset="0.4812" stop-color="#808080"/>
<stop offset="0.8201" stop-color="white"/>
<stop offset="1" stop-color="#4D4D4D"/>
</linearGradient>
<linearGradient id="paint28_linear" x1="7.70441" y1="31.6058" x2="14.3912" y2="31.6058" gradientUnits="userSpaceOnUse">
<stop stop-color="#4D4D4D"/>
<stop offset="0.2845"/>
<stop offset="0.4477" stop-color="#4D4D4D"/>
<stop offset="0.6276"/>
<stop offset="0.7866" stop-color="#262626"/>
<stop offset="1"/>
</linearGradient>
<linearGradient id="paint29_linear" x1="31.1333" y1="26.8161" x2="28.7016" y2="26.8161" gradientUnits="userSpaceOnUse">
<stop stop-color="#B3B3B3"/>
<stop offset="0.2427" stop-color="white"/>
<stop offset="0.4017" stop-color="white"/>
<stop offset="1" stop-color="#B3B3B3"/>
</linearGradient>
<linearGradient id="paint30_linear" x1="29.9175" y1="28.0826" x2="29.9175" y2="25.5495" gradientUnits="userSpaceOnUse">
<stop stop-color="#B3B3B3"/>
<stop offset="0.2845" stop-color="white"/>
<stop offset="1" stop-color="#B3B3B3"/>
</linearGradient>
</defs>
</svg>
