<svg width="32" height="32" viewBox="0 0 32 32" fill="none" xmlns="http://www.w3.org/2000/svg">
<mask id="mask0" mask-type="alpha" maskUnits="userSpaceOnUse" x="4" y="0" width="24" height="32">
<path d="M4 2C4 0.895431 4.89543 0 6 0H20V6C20 7.10457 20.8954 8 22 8H28V30C28 31.1046 27.1046 32 26 32H6C4.89543 32 4 31.1046 4 30V2Z" fill="#47A7FF"/>
</mask>
<g mask="url(#mask0)">
<path opacity="0.2" d="M4 2C4 0.895431 4.89543 0 6 0H20V6C20 7.10457 20.8954 8 22 8H28V30C28 31.1046 27.1046 32 26 32H6C4.89543 32 4 31.1046 4 30V2Z" fill="#47A7FF"/>
</g>
<path opacity="0.4" d="M20 6V0L28 8H22C20.8954 8 20 7.10457 20 6Z" fill="#47A7FF"/>
<path fill-rule="evenodd" clip-rule="evenodd" d="M10 15C10 14.4477 10.4477 14 11 14H21C21.5523 14 22 14.4477 22 15C22 15.5523 21.5523 16 21 16H11C10.4477 16 10 15.5523 10 15ZM10 19C10 18.4477 10.4477 18 11 18H21C21.5523 18 22 18.4477 22 19C22 19.5523 21.5523 20 21 20H11C10.4477 20 10 19.5523 10 19ZM11 22C10.4477 22 10 22.4477 10 23C10 23.5523 10.4477 24 11 24H18C18.5523 24 19 23.5523 19 23C19 22.4477 18.5523 22 18 22H11Z" fill="#47A7FF"/>
</svg>
