<svg width="32" height="32" viewBox="0 0 32 32" fill="none" xmlns="http://www.w3.org/2000/svg">
<path d="M32 26V9C32 7.89543 31.1046 7 30 7H15.8284C15.298 7 14.7893 6.78929 14.4142 6.41421L12.5858 4.58579C12.2107 4.21071 11.702 4 11.1716 4H2C0.895431 4 0 4.89543 0 6V26C0 27.1046 0.895431 28 2 28H30C31.1046 28 32 27.1046 32 26Z" fill="#47A7FF"/>
<path fill-rule="evenodd" clip-rule="evenodd" d="M15 15C15 16.3807 13.8807 17.5 12.5 17.5C11.1193 17.5 10 16.3807 10 15C10 13.6193 11.1193 12.5 12.5 12.5C13.8807 12.5 15 13.6193 15 15ZM12.5 18.5C15 18.5 17 20.1631 17 22.5H8C8 20.1631 10 18.5 12.5 18.5ZM19.5 17.5C20.8807 17.5 22 16.3807 22 15C22 13.6193 20.8807 12.5 19.5 12.5C18.1193 12.5 17 13.6193 17 15C17 16.3807 18.1193 17.5 19.5 17.5ZM24 22.5C24 20.1631 22 18.5 19.5 18.5C18.4743 18.5 17.5327 18.78 16.7789 19.2716C17.5404 20.1113 18 21.2138 18 22.5H24Z" fill="#1682E7"/>
</svg>
