<svg width="38" height="51" viewBox="0 0 38 51" fill="none" xmlns="http://www.w3.org/2000/svg">
<g style="mix-blend-mode:multiply">
<path d="M0.582634 8.47128C0.582634 8.73502 0.565727 31.7764 0.557274 43.2641H0.405119C0.422025 44.2278 0.410191 46.3935 0.430478 47.347C0.455838 48.5389 1.79988 48.615 3.72718 48.97C5.65448 49.3251 14.657 50.2887 17.8015 50.6184C20.3172 50.8821 22.941 50.9819 23.9385 50.9988C26.3983 50.7959 27.2859 50.3648 27.6663 48.3868C29.974 48.5643 41.5378 49.0968 44.2258 49.1729C46.3763 49.2338 50.2952 49.0799 51.9858 48.9954C54.4456 48.8179 55.8911 48.4121 56.3983 46.2059C58.1734 41.1847 58.1227 30.3817 58.1734 23.4333C58.2241 16.4849 56.8294 7.93881 56.3222 5.88471C55.815 3.83061 54.7246 3.14592 52.7973 2.94304C50.87 2.74017 47.979 2.63873 44.6823 2.63873C41.3856 2.63873 32.1041 3.17127 27.438 3.4248C27.1591 0.381689 24.2428 0.609922 18.5116 1.11711C12.7804 1.62429 2.73817 2.99369 1.69844 3.24728C0.68407 3.55159 0.506556 3.88126 0.455838 4.23629C0.415263 4.52031 0.371307 7.17796 0.354401 8.47128H0.582634Z" fill="#B07FFF"/>
</g>
</svg>
