<svg width="43" height="43" viewBox="0 0 43 43" fill="none" xmlns="http://www.w3.org/2000/svg">
<circle cx="21.5" cy="21.5" r="21.5" fill="#9570FF" fill-opacity="0.19"/>
<path d="M29.5822 28.3361L26.3265 25.1067C27.5903 23.531 28.2023 21.531 28.0367 19.5179C27.8711 17.5048 26.9405 15.6316 25.4363 14.2836C23.932 12.9355 21.9684 12.2151 19.9493 12.2703C17.9301 12.3256 16.0089 13.1523 14.5806 14.5806C13.1523 16.0089 12.3256 17.9301 12.2703 19.9493C12.2151 21.9684 12.9355 23.932 14.2836 25.4363C15.6316 26.9405 17.5048 27.8711 19.5179 28.0367C21.531 28.2023 23.531 27.5903 25.1067 26.3265L28.3361 29.5559C28.4177 29.6382 28.5148 29.7034 28.6217 29.748C28.7286 29.7926 28.8433 29.8155 28.9592 29.8155C29.075 29.8155 29.1897 29.7926 29.2967 29.748C29.4036 29.7034 29.5007 29.6382 29.5822 29.5559C29.7404 29.3923 29.8288 29.1736 29.8288 28.946C29.8288 28.7184 29.7404 28.4998 29.5822 28.3361ZM20.1837 26.3265C18.9687 26.3265 17.7811 25.9663 16.7709 25.2913C15.7607 24.6163 14.9733 23.6569 14.5084 22.5344C14.0435 21.412 13.9218 20.1769 14.1588 18.9853C14.3959 17.7937 14.9809 16.6991 15.84 15.84C16.6991 14.9809 17.7937 14.3959 18.9853 14.1588C20.1769 13.9218 21.412 14.0435 22.5344 14.5084C23.6569 14.9733 24.6163 15.7607 25.2913 16.7709C25.9663 17.7811 26.3265 18.9687 26.3265 20.1837C26.3265 21.8129 25.6793 23.3753 24.5273 24.5273C23.3753 25.6793 21.8129 26.3265 20.1837 26.3265Z" fill="#333333"/>
</svg>
