<svg width="30" height="30" viewBox="0 0 30 30" fill="none" xmlns="http://www.w3.org/2000/svg">
<path d="M27.2872 19.9648V19.6538H27.2087L27.1179 19.8674L27.0276 19.6538H26.9486V19.9648H27.0044V19.7303L27.0893 19.9327H27.147L27.2319 19.7298V19.9648H27.2872ZM26.7892 19.9648V19.7068H26.8899V19.6543H26.6333V19.7068H26.734V19.9648H26.7892Z" fill="#F79410"/>
<path d="M18.3856 21.3008H11.6089V8.71582H18.3856V21.3008Z" fill="#FF5F00"/>
<path d="M12.0422 15.006C12.0422 12.4531 13.199 10.179 15.0003 8.71349C13.683 7.64184 12.0206 7.00221 10.2138 7.00221C5.9365 7.00221 2.46924 10.5856 2.46924 15.006C2.46924 19.4264 5.9365 23.0098 10.2138 23.0098C12.0206 23.0098 13.683 22.3701 15.0003 21.2985C13.199 19.833 12.0422 17.5589 12.0422 15.006Z" fill="#EB001B"/>
<path d="M27.5286 15.0035C27.5286 19.424 24.0614 23.0073 19.7841 23.0073C17.9773 23.0073 16.3148 22.3677 14.9971 21.296C16.7989 19.8305 17.9556 17.5565 17.9556 15.0035C17.9556 12.4506 16.7989 10.1765 14.9971 8.71105C16.3148 7.6394 17.9773 6.99977 19.7841 6.99977C24.0614 6.99977 27.5286 10.5831 27.5286 15.0035Z" fill="#F79E1B"/>
</svg>
