<svg width="32" height="32" viewBox="0 0 32 32" fill="none" xmlns="http://www.w3.org/2000/svg">
<mask id="mask0" mask-type="alpha" maskUnits="userSpaceOnUse" x="4" y="0" width="24" height="32">
<path d="M4 2C4 0.895431 4.89543 0 6 0H20V6C20 7.10457 20.8954 8 22 8H28V30C28 31.1046 27.1046 32 26 32H6C4.89543 32 4 31.1046 4 30V2Z" fill="#47A7FF"/>
</mask>
<g mask="url(#mask0)">
<path opacity="0.2" d="M4 2C4 0.895431 4.89543 0 6 0H20V6C20 7.10457 20.8954 8 22 8H28V30C28 31.1046 27.1046 32 26 32H6C4.89543 32 4 31.1046 4 30V2Z" fill="#F47F65"/>
</g>
<path opacity="0.4" d="M20 6V0L28 8H22C20.8954 8 20 7.10457 20 6Z" fill="#F47F65"/>
<path opacity="0.5" d="M22 19C22 22.3137 19.3137 25 16 25C12.6863 25 10 22.3137 10 19C10 15.6863 12.6863 13 16 13V19H22Z" fill="#F47F65"/>
<path d="M17 18V13.083C19.5125 13.5045 21.4955 15.4875 21.917 18H17Z" fill="#F47F65"/>
</svg>
