<svg width="342" height="249" viewBox="0 0 342 249" fill="none" xmlns="http://www.w3.org/2000/svg">
<path d="M35 73.5C35 73.5 49.2704 109.8 69.5 113C81.3827 114.88 91 110.5 99.5 106C110.216 100.327 118.324 93.2978 129.5 98C141.093 102.878 133.171 121.037 144.5 126.5C158.842 133.415 167.264 116.529 182 110.5C189.786 107.314 194.406 106.118 202 102.5C207.599 99.8325 209.889 96.0646 216 95C225.861 93.2818 231.467 98.7664 240 104C260.61 116.641 292.882 144.815 272 157C269.431 158.499 267.447 158.31 265 160C253.303 168.078 260.915 193.08 275 195C281.245 195.851 285.329 186.895 290.5 190.5C294.4 193.219 291.26 198.52 294.5 202C296.942 204.624 302.5 206.5 302.5 206.5" stroke="#1152FD" stroke-width="4" stroke-linecap="round" stroke-linejoin="round"/>
<circle cx="35" cy="73" r="27.85" fill="#448AFF" fill-opacity="0.3" stroke="#90B8F9" stroke-width="0.3"/>
<path d="M39 73C39 75.2091 37.2091 77 35 77C32.7909 77 31 75.2091 31 73C31 70.7909 32.7909 69 35 69C37.2091 69 39 70.7909 39 73Z" fill="#2F88FC"/>
<path fill-rule="evenodd" clip-rule="evenodd" d="M41 73C41 76.3137 38.3137 79 35 79C31.6863 79 29 76.3137 29 73C29 69.6863 31.6863 67 35 67C38.3137 67 41 69.6863 41 73ZM35 77C37.2091 77 39 75.2091 39 73C39 70.7909 37.2091 69 35 69C32.7909 69 31 70.7909 31 73C31 75.2091 32.7909 77 35 77Z" fill="#FDFDFD"/>
<rect x="292" y="195" width="40" height="40" fill="white" fill-opacity="0.01"/>
<g filter="url(#filter0_d)">
<path d="M322 215C322 220.523 317.523 225 312 225C306.477 225 302 220.523 302 215C302 209.477 306.477 205 312 205C317.523 205 322 209.477 322 215Z" fill="white"/>
</g>
<g filter="url(#filter1_d)">
<path fill-rule="evenodd" clip-rule="evenodd" d="M324 215C324 221.627 318.627 227 312 227C305.373 227 300 221.627 300 215C300 208.373 305.373 203 312 203C318.627 203 324 208.373 324 215ZM312 225C317.523 225 322 220.523 322 215C322 209.477 317.523 205 312 205C306.477 205 302 209.477 302 215C302 220.523 306.477 225 312 225Z" fill="white"/>
</g>
<path fill-rule="evenodd" clip-rule="evenodd" d="M321.756 212.797C320.753 208.334 316.766 205 312 205C306.477 205 302 209.477 302 215C302 220.523 306.477 225 312 225C316.766 225 320.753 221.666 321.756 217.203V212.797Z" fill="#4B545A"/>
<path fill-rule="evenodd" clip-rule="evenodd" d="M302.078 213.748C302.305 211.931 303.019 210.266 304.085 208.887C304.834 209.086 305.627 209.185 306.481 209.185C306.582 209.185 306.683 209.178 306.784 209.171C306.859 209.166 306.935 209.161 307.01 209.158H307.016V214.435C304.776 214.435 302.745 213.931 302.078 213.748Z" fill="white"/>
<path fill-rule="evenodd" clip-rule="evenodd" d="M307.016 219.718V214.437C309.307 214.437 311.933 213.749 312.167 213.688C312.178 213.685 312.184 213.684 312.184 213.684V218.965C312.184 218.965 309.232 219.718 307.016 219.718Z" fill="white"/>
<path fill-rule="evenodd" clip-rule="evenodd" d="M312.168 224.999C312.112 225 312.056 225 312 225C311.189 225 310.401 224.904 309.646 224.721C310.962 224.516 312.007 224.242 312.151 224.205C312.162 224.202 312.167 224.2 312.168 224.2V224.999Z" fill="white"/>
<path fill-rule="evenodd" clip-rule="evenodd" d="M312.168 205.001C312.112 205 312.056 205 312 205C310.179 205 308.471 205.487 307 206.338V209.035C309.215 209.035 312.168 208.282 312.168 208.282V205.001Z" fill="white"/>
<path d="M317.347 207.632C317.274 207.632 317.212 207.622 317.139 207.622C315.463 207.622 313.803 207.956 312.184 208.311V213.688C312.184 213.688 313.782 212.935 317.352 212.935V207.632H317.347Z" fill="white"/>
<path fill-rule="evenodd" clip-rule="evenodd" d="M307.011 223.668C305.251 222.653 303.829 221.117 302.956 219.271C303.867 219.48 305.285 219.718 307.011 219.718V223.668Z" fill="white"/>
<path d="M312.176 224.177C313.883 223.801 315.507 223.456 317.131 223.456C317.204 223.456 317.271 223.466 317.339 223.466V218.206C314.018 218.206 312.171 218.959 312.171 218.959V224.177H312.176Z" fill="white"/>
<path fill-rule="evenodd" clip-rule="evenodd" d="M321.264 218.772C320.35 218.503 318.981 218.21 317.339 218.21V212.929C319.378 212.929 320.919 213.326 321.765 213.613V217.166C321.642 217.72 321.474 218.257 321.264 218.772Z" fill="white"/>
<path fill-rule="evenodd" clip-rule="evenodd" d="M318.909 207.77C318.422 207.715 317.896 207.682 317.339 207.682V206.543C317.903 206.9 318.429 207.311 318.909 207.77Z" fill="white"/>
<rect opacity="0.01" x="15" y="38.5" width="40" height="40" fill="white"/>
<path d="M35.0217 77.2281C37.3249 77.2281 39.192 75.361 39.192 73.0578C39.192 70.7548 37.3249 68.8877 35.0217 68.8877C32.7186 68.8877 30.8516 70.7548 30.8516 73.0578C30.8516 75.361 32.7186 77.2281 35.0217 77.2281Z" fill="#3E4958"/>
<path fill-rule="evenodd" clip-rule="evenodd" d="M35.0215 69.9137C33.2848 69.9137 31.877 71.3215 31.877 73.0582C31.877 74.7949 33.2848 76.2027 35.0215 76.2027C36.7582 76.2027 38.166 74.7949 38.166 73.0582C38.166 71.3215 36.7582 69.9137 35.0215 69.9137ZM29.8257 73.0582C29.8257 70.1886 32.1519 67.8623 35.0215 67.8623C37.8911 67.8623 40.2174 70.1886 40.2174 73.0582C40.2174 75.9278 37.8911 78.254 35.0215 78.254C32.1519 78.254 29.8257 75.9278 29.8257 73.0582Z" fill="#FDFDFD"/>
<path fill-rule="evenodd" clip-rule="evenodd" d="M34.0105 60.4517H35.8704V72.3218H34.0105V60.4517Z" fill="#3E4958"/>
<path d="M35.0222 60.9642C41.0103 60.9642 45.8647 56.11 45.8647 50.1218C45.8647 44.1336 41.0103 39.2793 35.0222 39.2793C29.034 39.2793 24.1797 44.1336 24.1797 50.1218C24.1797 56.11 29.034 60.9642 35.0222 60.9642Z" fill="#1152FD"/>
<path fill-rule="evenodd" clip-rule="evenodd" d="M35.0221 39.7922C29.3171 39.7922 24.6924 44.4169 24.6924 50.1219C24.6924 55.8267 29.3171 60.4515 35.0221 60.4515C40.727 60.4515 45.3517 55.8267 45.3517 50.1219C45.3517 44.4169 40.727 39.7922 35.0221 39.7922ZM23.6667 50.1219C23.6667 43.8505 28.7507 38.7666 35.0221 38.7666C41.2934 38.7666 46.3774 43.8505 46.3774 50.1219C46.3774 56.3933 41.2934 61.4772 35.0221 61.4772C28.7507 61.4772 23.6667 56.3933 23.6667 50.1219Z" fill="#1152FD"/>
<path d="M35.0224 53.4585C36.8649 53.4585 38.3586 51.9647 38.3586 50.1223C38.3586 48.2798 36.8649 46.7861 35.0224 46.7861C33.1799 46.7861 31.6863 48.2798 31.6863 50.1223C31.6863 51.9647 33.1799 53.4585 35.0224 53.4585Z" fill="#F9FFFF"/>
<defs>
<filter id="filter0_d" x="282" y="189" width="60" height="60" filterUnits="userSpaceOnUse" color-interpolation-filters="sRGB">
<feFlood flood-opacity="0" result="BackgroundImageFix"/>
<feColorMatrix in="SourceAlpha" type="matrix" values="0 0 0 0 0 0 0 0 0 0 0 0 0 0 0 0 0 0 127 0"/>
<feOffset dy="4"/>
<feGaussianBlur stdDeviation="10"/>
<feColorMatrix type="matrix" values="0 0 0 0 0 0 0 0 0 0 0 0 0 0 0 0 0 0 0.3 0"/>
<feBlend mode="normal" in2="BackgroundImageFix" result="effect1_dropShadow"/>
<feBlend mode="normal" in="SourceGraphic" in2="effect1_dropShadow" result="shape"/>
</filter>
<filter id="filter1_d" x="284" y="191" width="56" height="56" filterUnits="userSpaceOnUse" color-interpolation-filters="sRGB">
<feFlood flood-opacity="0" result="BackgroundImageFix"/>
<feColorMatrix in="SourceAlpha" type="matrix" values="0 0 0 0 0 0 0 0 0 0 0 0 0 0 0 0 0 0 127 0"/>
<feOffset dy="4"/>
<feGaussianBlur stdDeviation="8"/>
<feColorMatrix type="matrix" values="0 0 0 0 0 0 0 0 0 0 0 0 0 0 0 0 0 0 0.1 0"/>
<feBlend mode="normal" in2="BackgroundImageFix" result="effect1_dropShadow"/>
<feBlend mode="normal" in="SourceGraphic" in2="effect1_dropShadow" result="shape"/>
</filter>
</defs>
</svg>
