<svg width="32" height="32" viewBox="0 0 32 32" fill="none" xmlns="http://www.w3.org/2000/svg">
<mask id="mask0" mask-type="alpha" maskUnits="userSpaceOnUse" x="4" y="0" width="24" height="32">
<path d="M4 2C4 0.895431 4.89543 0 6 0H20V6C20 7.10457 20.8954 8 22 8H28V30C28 31.1046 27.1046 32 26 32H6C4.89543 32 4 31.1046 4 30V2Z" fill="#47A7FF"/>
</mask>
<g mask="url(#mask0)">
<path opacity="0.2" d="M4 2C4 0.895431 4.89543 0 6 0H20V6C20 7.10457 20.8954 8 22 8H28V30C28 31.1046 27.1046 32 26 32H6C4.89543 32 4 31.1046 4 30V2Z" fill="#29CF61"/>
</g>
<path opacity="0.4" d="M20 6V0L28 8H22C20.8954 8 20 7.10457 20 6Z" fill="#29CF61"/>
<path fill-rule="evenodd" clip-rule="evenodd" d="M11 14C10.4477 14 10 14.4477 10 15C10 15.5523 10.4477 16 11 16H13C13.5523 16 14 15.5523 14 15C14 14.4477 13.5523 14 13 14H11ZM11 18C10.4477 18 10 18.4477 10 19C10 19.5523 10.4477 20 11 20H13C13.5523 20 14 19.5523 14 19C14 18.4477 13.5523 18 13 18H11ZM10 23C10 22.4477 10.4477 22 11 22H13C13.5523 22 14 22.4477 14 23C14 23.5523 13.5523 24 13 24H11C10.4477 24 10 23.5523 10 23ZM16 14C15.4477 14 15 14.4477 15 15C15 15.5523 15.4477 16 16 16H21C21.5523 16 22 15.5523 22 15C22 14.4477 21.5523 14 21 14H16ZM15 19C15 18.4477 15.4477 18 16 18H21C21.5523 18 22 18.4477 22 19C22 19.5523 21.5523 20 21 20H16C15.4477 20 15 19.5523 15 19ZM16 22C15.4477 22 15 22.4477 15 23C15 23.5523 15.4477 24 16 24H21C21.5523 24 22 23.5523 22 23C22 22.4477 21.5523 22 21 22H16Z" fill="#29CF61"/>
</svg>
